<svg width="50" height="51" viewBox="0 0 50 51" fill="none" xmlns="http://www.w3.org/2000/svg">
<path d="M15.4167 44.6667V47.1667C15.4167 47.6269 15.7897 48 16.25 48H33.75C34.2102 48 34.5833 47.6269 34.5833 47.1667V44.6667" stroke="#17C7FF" stroke-width="1.5" stroke-linecap="round" stroke-linejoin="round"/>
<path d="M40.1316 14.127C42.4824 14.9049 44.1667 17.0038 44.1667 19.4711C44.1667 22.6007 41.4568 25.1377 38.114 25.1377H35.4167M40.1316 14.127C39.5005 13.9182 38.8214 13.8046 38.114 13.8046M40.1316 14.127C40.1316 10.0059 37.6097 7.69348 33.9368 7.69348M33.9368 7.69348C34.0297 8.08119 34.0789 8.4864 34.0789 8.90334C34.0789 9.54117 33.9637 10.1515 33.7532 10.7138M33.9368 7.69348C33.4055 5.47755 31.4482 3.83331 29.1148 3.83331C26.3731 3.83331 24.1505 6.10325 24.1505 8.90334M9.86843 16.5617C8.51201 15.2225 7.97242 13.2603 8.65534 11.5168C9.58659 9.1395 12.4382 8.06895 15.0245 9.12567C15.4733 7.66326 17.1511 5.80676 19.6662 5.44268M9.86843 16.5617C10.3616 17.0486 10.9627 17.4531 11.6523 17.7348M9.86843 16.5617C7.63991 16.5617 5.83334 18.7405 5.83334 21.0165C5.83334 23.2926 7.63991 25.1377 9.86843 25.1377H14.5833" stroke="#17C7FF" stroke-width="1.5" stroke-linecap="round" stroke-linejoin="round"/>
<path d="M46.25 28.8333V33C46.25 35.9916 43.8249 38.4166 40.8333 38.4166M3.75 28.8333V33C3.75 35.9916 6.17512 38.4166 9.16667 38.4166M12.5 44.6666H37.5C39.3409 44.6666 40.8333 43.1742 40.8333 41.3333V37.1666C40.8333 28.4221 33.7445 21.3333 25 21.3333C16.2555 21.3333 9.16667 28.4221 9.16667 37.1666V41.3333C9.16667 43.1742 10.6591 44.6666 12.5 44.6666Z" stroke="#1B17F5" stroke-width="1.5" stroke-linecap="round" stroke-linejoin="round"/>
<path d="M19.1667 18L21.6667 19.6666V26.3333L25.0001 29.6666M25.0001 29.6666L28.3333 26.3333L28.3334 19.6666L30.8333 18M25.0001 29.6666L25 35.5M25.0001 29.6666V16.3333" stroke="#17C7FF" stroke-width="1.5" stroke-linecap="round" stroke-linejoin="round"/>
<path d="M19.1667 31.3334C19.1667 30.4129 18.4205 29.6667 17.5 29.6667C16.5795 29.6667 15.8333 30.4129 15.8333 31.3334C15.8333 32.2538 16.5795 33 17.5 33C18.4205 33 19.1667 32.2538 19.1667 31.3334Z" fill="#1B17F5"/>
<path d="M34.1667 31.3334C34.1667 30.4129 33.4205 29.6667 32.5 29.6667C31.5795 29.6667 30.8333 30.4129 30.8333 31.3334C30.8333 32.2538 31.5795 33 32.5 33C33.4205 33 34.1667 32.2538 34.1667 31.3334Z" fill="#1B17F5"/>
<path d="M25 35.5C26.8156 35.5 28.3298 34.0664 28.6757 32.1624C28.7581 31.7095 28.3769 31.3334 27.9167 31.3334H22.0833C21.6231 31.3334 21.2419 31.7095 21.3242 32.1624C21.6702 34.0664 23.1844 35.5 25 35.5Z" stroke="#1B17F5" stroke-width="1.5" stroke-linecap="round" stroke-linejoin="round"/>
<path d="M32.9167 14.6667C34.0673 14.6667 35 15.5994 35 16.75C35 17.9006 34.0673 18.8334 32.9167 18.8334C31.7661 18.8334 30.8333 17.9006 30.8333 16.75C30.8333 15.5994 31.7661 14.6667 32.9167 14.6667Z" stroke="#1B17F5" stroke-width="1.5" stroke-linecap="round" stroke-linejoin="round"/>
<path d="M17.0833 14.6667C18.2339 14.6667 19.1667 15.5994 19.1667 16.75C19.1667 17.9006 18.2339 18.8334 17.0833 18.8334C15.9327 18.8334 15 17.9006 15 16.75C15 15.5994 15.9327 14.6667 17.0833 14.6667Z" stroke="#1B17F5" stroke-width="1.5" stroke-linecap="round" stroke-linejoin="round"/>
<path d="M25 12.1667C26.1506 12.1667 27.0833 13.0994 27.0833 14.25C27.0833 15.4006 26.1506 16.3334 25 16.3334C23.8494 16.3334 22.9167 15.4006 22.9167 14.25C22.9167 13.0994 23.8494 12.1667 25 12.1667Z" stroke="#1B17F5" stroke-width="1.5" stroke-linecap="round" stroke-linejoin="round"/>
<path d="M25 32.1667V30.5" stroke="#17C7FF" stroke-width="1.5" stroke-linecap="round" stroke-linejoin="round"/>
</svg>
