<svg width="103" height="165" viewBox="0 0 103 165" fill="none" xmlns="http://www.w3.org/2000/svg">
<path fill-rule="evenodd" clip-rule="evenodd" d="M81.36 113.438C80.9627 113.049 80.9627 112.667 81.36 112.292C80.7037 111.764 80.0327 111.71 79.3469 112.128C76.6944 110.85 74.1221 109.431 71.6303 107.872C71.8242 107.155 71.4887 106.609 70.6238 106.235C70.4087 106.724 70.0732 107.051 69.6173 107.217C69.2103 106.325 68.5953 105.561 67.772 104.926C68.2669 101.765 70.0004 99.4738 72.9723 98.0506C73.8356 98.396 74.73 98.4507 75.6564 98.2143C75.8573 97.6833 76.0811 97.1922 76.3274 96.7411C76.2687 97.6673 76.7159 98.213 77.6694 98.378C77.0232 99.46 76.1284 99.678 74.9854 99.0328C74.1372 99.1189 73.3545 99.3916 72.6368 99.8512C72.0155 100.811 71.2327 101.629 70.2883 102.307C70.0316 102.894 69.8079 103.494 69.6173 104.107C70.2809 104.973 71.0636 105.737 71.9658 106.399C73.699 107.298 75.3766 108.281 76.9984 109.345C78.8963 110.161 80.6856 111.144 82.3665 112.292C82.9147 112.453 83.474 112.508 84.044 112.455C84.8274 108.525 85.6101 104.597 86.3925 100.67C86.1355 98.5947 85.5202 96.6305 84.5473 94.7768C82.3202 92.3843 80.0834 89.9836 77.8372 87.5744C77.0947 86.7249 76.4794 85.7974 75.9919 84.7917C76.0405 84.539 76.1522 84.3206 76.3274 84.1369C77.0346 84.0191 77.7056 83.8007 78.3404 83.4822C80.2816 81.6567 82.239 79.8561 84.2117 78.0804C84.4355 77.5347 84.4355 76.9892 84.2117 76.4435C82.75 74.47 81.1285 72.6148 79.3469 70.878C78.1166 72.2966 76.8867 73.7154 75.6564 75.134C77.2349 75.6273 78.6887 76.3368 80.0179 77.2619C79.6489 77.5969 79.2017 77.7605 78.6759 77.753C76.9752 77.3513 75.2977 76.8602 73.6433 76.2798C68.7899 74.1158 63.8691 72.1515 58.8811 70.3869C57.8796 70.1028 56.8731 69.9938 55.8616 70.0596C58.1108 72.8682 60.2359 75.7599 62.2362 78.7352C62.7294 79.6544 63.0088 80.6366 63.0749 81.6816C64.1529 91.9145 64.4884 102.172 64.0815 112.455C63.9892 114.562 63.4859 116.527 62.5717 118.348C62.5717 117.803 62.5717 117.257 62.5717 116.711C62.0822 116.689 61.635 116.798 61.2297 117.039C59.3492 116.232 57.4479 115.413 55.5261 114.583C53.915 113.895 52.2375 113.513 50.4935 113.438C50.4378 114.969 50.4938 116.497 50.6613 118.021C51.1602 118.235 51.5514 118.563 51.8355 119.003C54.8467 119.33 57.8662 119.439 60.8942 119.33C60.6254 119.835 60.5137 120.381 60.5587 120.967C57.8746 120.967 55.1906 120.967 52.5065 120.967C52.4076 121.699 52.5196 122.354 52.842 122.932C55.1386 123.15 57.4871 123.368 59.8876 123.586C59.7031 124.293 59.4793 124.947 59.2166 125.551C59.2166 125.223 59.2166 124.896 59.2166 124.568C56.8654 124.514 54.5169 124.568 52.171 124.732C51.9009 125.378 51.4534 125.869 50.829 126.205C48.152 126.587 45.468 126.641 42.7769 126.369C42.0079 125.947 41.3369 125.401 40.7639 124.732C37.4001 124.349 34.045 124.021 30.6987 123.75C30.4006 131.97 28.7231 139.936 25.6661 147.649C26.4849 148.886 27.4356 150.032 28.5179 151.086C28.685 152.063 28.7409 153.045 28.6857 154.033C31.8214 154.045 34.9529 154.154 38.0798 154.36C38.1754 153.775 38.0637 153.229 37.7443 152.723C36.721 152.561 36.3855 152.069 36.7378 151.25C44.3454 151.959 51.9503 151.796 59.5521 150.759C59.8018 151.944 59.9135 153.144 59.8876 154.36C61.957 154.098 63.9701 153.607 65.9267 152.887C67.157 152.778 68.387 152.669 69.6173 152.56C69.1892 151.414 68.5742 150.377 67.772 149.449C67.5855 148.669 67.6412 147.905 67.9398 147.158C68.498 147.649 69.169 147.976 69.9528 148.14C70.1564 148.099 70.2682 147.99 70.2883 147.813C70.6238 147.922 70.8476 148.14 70.9593 148.467C70.2769 149.173 70.1652 149.937 70.6238 150.759C71.2348 152.379 71.011 153.852 69.9528 155.179C70.9687 158.421 69.7384 160.167 66.2622 160.417C62.8803 161.092 61.0911 159.728 60.8942 156.324C60.2141 156.377 59.5431 156.323 58.8811 156.161C58.6443 155.136 58.4205 154.099 58.2101 153.051C57.5951 152.942 56.9798 152.832 56.3648 152.723C50.8421 153.247 45.3063 153.466 39.7573 153.378C39.6976 154.267 39.5299 155.14 39.2541 155.997C38.5388 156.416 37.8121 156.416 37.0733 155.997C37.0002 160.599 34.6516 162.508 30.0277 161.726C29.4285 161.469 28.9252 161.088 28.5179 160.58C28.572 158.954 28.6279 157.317 28.6857 155.67C27.8683 155.73 27.1414 155.511 26.5049 155.015C26.8151 154.072 27.0388 153.09 27.1759 152.068C26.2188 151.233 25.38 150.306 24.6596 149.286C21.9972 148.785 19.3131 148.676 16.6075 148.958C15.4136 149.36 14.2952 149.906 13.2525 150.595C9.5761 151.021 5.99737 150.639 2.51631 149.449C2.30633 148.181 2.86551 147.58 4.19383 147.649C6.50325 144.946 8.34852 141.946 9.72966 138.646C12.522 132.272 15.1501 125.834 17.614 119.33C16.2885 118.5 15.4497 117.3 15.0977 115.729C13.7935 109.549 12.8988 103.329 12.4137 97.0685C13.167 95.2689 14.1736 93.632 15.4332 92.1578C17.9495 89.7024 20.4658 87.2471 22.9821 84.7917C18.7711 83.1947 14.4096 82.1579 9.89741 81.6816C9.53795 79.4911 10.3208 77.7995 12.2459 76.6072C13.7181 75.6705 15.2838 74.9068 16.943 74.3155C17.5336 73.9996 17.6455 73.6175 17.2785 73.1697C13.3627 75.3834 9.33662 75.6565 5.20035 73.9881C2.97446 71.9927 1.91202 69.5374 2.01305 66.6221C3.20777 65.7502 4.38205 65.8046 5.53585 66.7858C7.41649 68.7661 9.09401 70.8941 10.5684 73.1697C13.5346 73.133 16.2745 72.2599 18.7883 70.5506C19.012 70.2233 19.012 69.8959 18.7883 69.5685C16.9051 66.7841 15.8986 63.7287 15.7687 60.4018C13.1003 54.8963 12.0938 49.1124 12.7492 43.0506C13.0243 41.3699 13.9189 40.1694 15.4332 39.4494C17.5347 41.7205 19.6595 44.0122 21.8078 46.3244C21.9334 46.0246 22.1011 45.7515 22.3111 45.506C23.6829 45.4598 25.0249 45.4052 26.3372 45.3423C28.0651 40.9027 28.9039 36.3194 28.8534 31.5923C27.3252 31.178 25.8154 30.6869 24.3241 30.1191C23.7699 29.6378 23.4344 29.0377 23.3176 28.3185C23.8417 26.5306 24.7923 25.0028 26.1694 23.7352C27.7006 22.4155 29.3222 21.2151 31.0342 20.134C31.4559 18.5581 32.1269 17.1394 33.0473 15.878C31.0933 15.9511 29.1921 15.6783 27.3437 15.0596C24.8387 14.2673 23.7203 12.5758 23.9886 9.98516C23.9462 8.88185 24.1699 7.84514 24.6596 6.87504C25.107 6.65678 25.5543 6.65678 26.0016 6.87504C26.449 7.74807 27.12 8.40283 28.0147 8.83933C29.4685 9.43951 30.9224 10.0397 32.3762 10.6399C33.9129 8.21518 36.0376 6.41458 38.7508 5.23814C40.3529 4.85877 41.8066 5.13157 43.1124 6.05659C46.66 4.65321 50.1271 3.07086 53.513 1.30957C54.6313 1.09131 55.7499 1.09131 56.8681 1.30957C67.1517 5.09857 76.8253 9.95471 85.8893 15.878C88.1496 14.5839 90.4421 13.3289 92.7671 12.1131C95.2747 11.2921 96.3372 12.1106 95.9544 14.5685C94.4584 17.8305 92.1659 20.4495 89.0766 22.4256C88.7625 24.1051 88.5388 25.7965 88.4056 27.5C89.0101 29.8128 89.1779 32.159 88.9088 34.5387C87.8376 46.5687 84.8737 58.1364 80.0179 69.2411C81.6887 71.2535 83.422 73.2178 85.2183 75.134C85.7027 75.9704 86.0943 76.8432 86.3925 77.753C84.1517 80.7034 81.4677 83.2134 78.3404 85.2828C80.5568 88.1555 82.961 90.8839 85.5538 93.4673C86.9364 95.7151 87.8869 98.1161 88.4056 100.67C87.2518 105.154 86.0775 109.629 84.8828 114.092C83.6045 114.531 82.4302 114.312 81.36 113.438Z" fill="#0B0B0D"/>
<path fill-rule="evenodd" clip-rule="evenodd" d="M54.184 2.45532C57.2978 3.02514 60.3174 3.9527 63.2426 5.23806C69.7897 8.60589 76.276 12.098 82.7019 15.7143C83.0374 16.0416 83.3729 16.369 83.7084 16.6964C81.99 17.5828 80.2007 17.7465 78.3403 17.1875C78.285 18.3928 78.3407 19.5932 78.5081 20.7887C78.5997 21.3874 78.8795 21.8785 79.3469 22.2619C81.8769 22.8769 84.4492 23.1497 87.0635 23.0803C87.0068 25.0521 86.839 27.0164 86.5602 28.9732C85.9771 29.1785 85.3621 29.2876 84.7149 29.3006C79.2432 28.6195 73.7634 28.0193 68.2752 27.5C65.2419 26.4188 62.1106 25.6548 58.8811 25.2083C57.0838 24.9864 55.2942 25.041 53.513 25.372C49.5899 24.5515 45.6759 23.6784 41.7703 22.7529C41.0486 19.5953 39.1473 18.7222 36.0667 20.1339C35.2058 19.8498 34.3671 19.5224 33.5504 19.1518C33.4945 18.9881 33.4386 18.8244 33.3827 18.6607C34.0426 18.073 34.4899 17.3637 34.7247 16.5327C34.4647 15.1194 34.2409 13.7007 34.0537 12.2768C34.0473 11.3969 34.2711 10.5785 34.7247 9.82139C35.9929 8.60039 37.447 7.61825 39.0863 6.87497C40.7507 6.71946 42.3165 6.93769 43.7833 7.52973C47.3997 6.04961 50.8665 4.35813 54.184 2.45532Z" fill="#18408E"/>
<path fill-rule="evenodd" clip-rule="evenodd" d="M25.6661 9.33032C27.6498 10.5707 29.7747 11.5528 32.0407 12.2768C32.488 12.9315 32.488 13.5863 32.0407 14.241C30.0334 14.1387 28.1322 13.6476 26.3371 12.7678C25.8436 11.6806 25.62 10.5348 25.6661 9.33032Z" fill="#C3C4C3"/>
<path fill-rule="evenodd" clip-rule="evenodd" d="M93.7736 13.2589C94.138 13.2982 94.3618 13.5165 94.4446 13.9137C94.0591 14.6657 93.6679 15.4296 93.2704 16.2053C91.8723 18.0059 90.2508 19.5883 88.4055 20.9524C85.7265 21.5766 83.0425 21.5766 80.3534 20.9524C80.0495 20.396 79.9377 19.7958 80.0179 19.1518C81.8729 19.0813 83.6622 18.6994 85.386 18.0059C88.2029 16.4148 90.999 14.8325 93.7736 13.2589Z" fill="#C3C5C4"/>
<path fill-rule="evenodd" clip-rule="evenodd" d="M38.0798 20.7887C39.7171 21.0809 40.4998 22.063 40.4283 23.7351C40.332 25.357 39.4373 26.23 37.7443 26.3542C36.2999 26.2496 35.7407 25.4857 36.0668 24.0625C36.0399 22.5613 36.7109 21.4701 38.0798 20.7887Z" fill="#EFE529"/>
<path fill-rule="evenodd" clip-rule="evenodd" d="M33.7183 21.1161C34.0538 21.1161 34.3893 21.1161 34.7248 21.1161C34.4155 22.744 34.3598 24.3809 34.5571 26.0268C35.633 27.9726 37.2545 28.5182 39.4219 27.6637C40.5086 26.9024 41.4034 25.9749 42.1059 24.881C45.2573 25.212 48.3889 25.7576 51.5001 26.5179C51.8191 26.7528 51.8748 27.0256 51.6678 27.3363C50.4197 28.7156 49.2455 30.1343 48.145 31.5923C45.7602 32.0259 43.4117 31.8622 41.0994 31.1012C36.8496 30.0099 32.6 28.9187 28.3502 27.8274C28.0313 27.5925 27.9754 27.3197 28.1825 27.0089C29.7589 25.361 31.4365 23.8333 33.215 22.4256C33.3526 21.9671 33.5204 21.5306 33.7183 21.1161Z" fill="#183E8B"/>
<path fill-rule="evenodd" clip-rule="evenodd" d="M54.8551 26.6815C56.7621 26.7609 58.6634 26.9246 60.5587 27.1726C69.3546 29.4387 78.3015 30.6937 87.3991 30.9375C87.1068 38.1412 86.0446 45.2345 84.2118 52.2172C82.3799 57.6891 80.4786 63.1455 78.5082 68.5863C77.6134 69.8958 76.7189 71.2053 75.8242 72.5148C75.2051 73.3932 74.3664 73.939 73.3079 74.1518C68.0975 71.8205 62.7294 69.9109 57.2036 68.4226C56.1099 68.1659 55.0473 68.2206 54.0163 68.5863C53.7795 69.3952 53.8912 70.1593 54.3518 70.8779C56.2531 73.388 58.1541 75.8977 60.0554 78.4077C60.6395 79.3273 61.0311 80.3095 61.2297 81.3541C58.0904 81.5185 54.9588 81.7915 51.8356 82.1726C39.3816 84.1991 29.2045 80.4885 21.3046 71.0416C21.9102 70.7234 22.4693 70.3414 22.9821 69.8958C22.8222 69.5756 22.5985 69.3029 22.3111 69.0773C21.611 69.1487 20.94 69.094 20.2981 68.9137C19.2022 67.282 18.4753 65.5361 18.1173 63.6756C18.7677 64.5287 19.6064 65.1288 20.6336 65.4762C25.2451 66.1224 29.1034 64.7585 32.2085 61.3839C33.2904 59.7801 33.626 58.0341 33.215 56.1458C31.527 54.3707 29.6818 52.7885 27.6792 51.3988C28.8772 51.661 30.1074 51.77 31.3698 51.7262C31.7396 50.9401 31.7955 50.1217 31.5375 49.2708C30.0566 48.2481 28.5468 47.2659 27.0082 46.3244C28.8739 41.6962 29.8804 36.8945 30.0277 31.9196C33.9189 32.8962 37.8333 33.8237 41.7704 34.7024C44.1052 35.1381 46.4537 35.2471 48.816 35.0297C51.854 32.9826 53.867 30.1999 54.8551 26.6815Z" fill="#C8C9C9"/>
<path fill-rule="evenodd" clip-rule="evenodd" d="M29.6922 22.7529C29.9401 22.71 30.1638 22.7646 30.3632 22.9166C28.5831 24.3774 27.1293 26.0688 26.0016 27.991C26.1135 28.2093 26.2253 28.4275 26.3371 28.6458C27.4574 29.028 28.5758 29.41 29.6922 29.7916C28.1966 29.7272 26.7427 29.3998 25.3306 28.8095C25.1772 28.6739 25.0653 28.5102 24.9951 28.3184C26.3152 26.2664 27.8809 24.4112 29.6922 22.7529Z" fill="#B0B0B0"/>
<path fill-rule="evenodd" clip-rule="evenodd" d="M32.3762 30.9375C34.0383 30.8181 35.7158 31.091 37.4088 31.756C35.7189 31.6451 34.0413 31.3722 32.3762 30.9375Z" fill="#636262"/>
<path fill-rule="evenodd" clip-rule="evenodd" d="M31.3697 36.8303C33.2499 37.3417 34.8713 38.3238 36.2345 39.7768C36.4395 40.9514 35.9362 41.3331 34.7247 40.9226C33.2123 40.1526 31.9821 39.1161 31.0342 37.8125C31.0962 37.4576 31.2081 37.1302 31.3697 36.8303Z" fill="#1E1817"/>
<path fill-rule="evenodd" clip-rule="evenodd" d="M14.9299 41.7411C15.439 41.7447 15.8305 41.9627 16.1042 42.3959C17.4871 44.2917 18.9968 46.0923 20.6335 47.7976C24.3666 50.6756 28.0012 53.6767 31.5374 56.8006C31.8822 58.9126 31.1553 60.6041 29.3566 61.875C23.3756 65.837 19.07 64.5818 16.4397 58.1101C14.2454 52.7709 13.7421 47.3148 14.9299 41.7411Z" fill="#FBFBFB"/>
<path fill-rule="evenodd" clip-rule="evenodd" d="M62.5716 41.4136C63.2517 41.3606 63.9227 41.4153 64.5847 41.5773C65.003 42.0664 65.003 42.5575 64.5847 43.0505C62.2844 43.7482 59.9359 44.1846 57.539 44.3601C57.4434 43.7747 57.5552 43.229 57.8746 42.7232C59.4793 42.2786 61.0451 41.8418 62.5716 41.4136Z" fill="#0D0D0D"/>
<path fill-rule="evenodd" clip-rule="evenodd" d="M32.0407 42.7233C34.7647 42.7233 35.4357 43.8691 34.0537 46.1608C32.4041 46.5572 31.3976 45.9571 31.0342 44.3602C31.1205 43.6426 31.456 43.0968 32.0407 42.7233Z" fill="#1F1817"/>
<path fill-rule="evenodd" clip-rule="evenodd" d="M23.3176 46.6518C24.5756 46.4381 25.8057 46.7111 27.0082 47.4703C28.0693 48.2612 29.1877 48.9703 30.3632 49.5983C30.6748 49.9875 30.7866 50.4239 30.6987 50.9078C29.6503 50.7883 28.6438 50.5156 27.6792 50.0893C26.079 49.0941 24.6252 47.9483 23.3176 46.6518Z" fill="#DEB4C8"/>
<path fill-rule="evenodd" clip-rule="evenodd" d="M58.21 46.9791C60.312 46.9343 61.1508 47.9164 60.7263 49.9256C59.5494 51.2141 58.4311 51.2141 57.3713 49.9256C56.9616 48.6874 57.2414 47.7053 58.21 46.9791Z" fill="#1E1715"/>
<path fill-rule="evenodd" clip-rule="evenodd" d="M66.9332 50.2529C68.0877 50.1878 69.206 50.3515 70.2883 50.744C71.5065 51.532 71.6182 52.4598 70.6238 53.5267C68.186 54.5174 65.6697 55.2812 63.0749 55.8184C59.9249 55.5444 59.4216 54.2892 61.5652 52.0535C63.3581 51.3467 65.1473 50.7466 66.9332 50.2529Z" fill="#131112"/>
<path fill-rule="evenodd" clip-rule="evenodd" d="M66.9332 51.2351C67.8555 51.1611 68.7503 51.2701 69.6173 51.5625C70.0356 52.0555 70.0356 52.5466 69.6173 53.0357C67.458 53.7124 65.2772 54.3128 63.0749 54.8363C61.5152 54.6592 61.2357 54.0044 62.2362 52.872C63.8348 52.3164 65.4006 51.7707 66.9332 51.2351Z" fill="#E0B6CA"/>
<path fill-rule="evenodd" clip-rule="evenodd" d="M3.52283 67.9316C3.87578 67.8828 4.21128 67.9372 4.52934 68.0953C5.13097 69.0103 5.85787 69.8288 6.71012 70.5507C6.69932 71.2375 6.47564 71.8923 6.03911 72.5149C4.75836 71.2159 3.9196 69.688 3.52283 67.9316Z" fill="#45963C"/>
<path fill-rule="evenodd" clip-rule="evenodd" d="M59.2166 82.9911C59.9994 82.9911 60.7824 82.9911 61.5652 82.9911C62.5714 93.7776 62.7951 104.581 62.2362 115.402C59.7491 114.572 57.2888 113.644 54.8551 112.619C52.9521 111.728 50.9948 111.456 48.9837 111.801C48.9267 113.774 48.759 115.738 48.4805 117.693C47.067 117.232 45.6133 117.013 44.1189 117.039C44.1344 114.807 43.5754 112.734 42.4414 110.818C42.1619 110.709 41.8821 110.6 41.6026 110.491C39.1991 111.051 36.7945 111.27 34.3893 111.146C36.2456 102.071 37.3639 92.9039 37.7443 83.6459C44.9684 84.1657 52.1261 83.9474 59.2166 82.9911Z" fill="#C7C9C8"/>
<path fill-rule="evenodd" clip-rule="evenodd" d="M76.3274 96.7411C77.1275 96.2936 77.0158 95.8569 75.9919 95.4316C75.3873 95.9181 74.7163 96.2455 73.9788 96.4138C73.9788 95.9774 73.9788 95.5406 73.9788 95.1042C73.4195 95.1042 72.8606 95.1042 72.3013 95.1042C72.6237 96.0622 72.8472 97.0443 72.9723 98.0507C70.0004 99.4738 68.2669 101.765 67.772 104.926C68.5953 105.561 69.2103 106.325 69.6173 107.217C69.1972 108.152 68.8617 109.134 68.6108 110.164C70.2624 114.562 73.5058 116.635 78.3404 116.384C78.7313 119.436 79.1228 122.492 79.5147 125.551C79.5496 127.585 80.444 129.113 82.1987 130.134C82.7372 131.165 83.0727 132.256 83.2052 133.408C87.7963 138.596 92.4373 143.725 97.1287 148.795C96.9525 149.021 96.7287 149.185 96.4577 149.286C88.4079 149.832 80.3558 149.995 72.3013 149.777C71.735 149.443 71.2878 149.006 70.9593 148.467C70.8476 148.14 70.6238 147.922 70.2883 147.813C66.4806 142.568 63.1813 137.002 60.3909 131.116C60.5144 126.769 61.2411 122.513 62.5717 118.348C63.4859 116.527 63.9892 114.562 64.0814 112.455C64.4884 102.172 64.1529 91.9146 63.0749 81.6816C63.0088 80.6366 62.7294 79.6545 62.2362 78.7352C60.2359 75.7599 58.1108 72.8682 55.8616 70.0596C56.8731 69.9938 57.8796 70.1028 58.8811 70.387C63.8691 72.1516 68.7899 74.1158 73.6433 76.2798C75.2977 76.8603 76.9752 77.3513 78.6759 77.753C79.2016 77.7606 79.6489 77.5969 80.0179 77.262C78.6887 76.3368 77.2349 75.6274 75.6564 75.134C76.8867 73.7155 78.1166 72.2966 79.3469 70.878C81.1284 72.6148 82.7499 74.4701 84.2117 76.4435C84.4355 76.9893 84.4355 77.5347 84.2117 78.0804C82.239 79.8561 80.2816 81.6567 78.3404 83.4822C77.7056 83.8008 77.0346 84.0191 76.3274 84.137C76.1522 84.3206 76.0405 84.539 75.9919 84.7917C76.4794 85.7974 77.0947 86.7249 77.8371 87.5745C80.0833 89.9837 82.3202 92.3844 84.5472 94.7769C85.5202 96.6305 86.1355 98.5948 86.3925 100.67C85.6101 104.597 84.8274 108.525 84.044 112.455C83.474 112.508 82.9147 112.453 82.3665 112.292C80.6856 111.144 78.8963 110.161 76.9984 109.345C75.3765 108.281 73.699 107.299 71.9658 106.399C71.0636 105.737 70.2809 104.973 69.6173 104.107C69.8078 103.494 70.0316 102.894 70.2883 102.307C71.2327 101.629 72.0155 100.811 72.6368 99.8513C73.3545 99.3916 74.1372 99.1189 74.9853 99.0328C76.1284 99.6781 77.0232 99.46 77.6694 98.378C76.7159 98.213 76.2687 97.6673 76.3274 96.7411Z" fill="#18408D"/>
<path fill-rule="evenodd" clip-rule="evenodd" d="M76.3273 96.741C76.0811 97.1922 75.8573 97.6832 75.6563 98.2142C74.73 98.4506 73.8355 98.3959 72.9723 98.0506C72.8471 97.0442 72.6237 96.062 72.3013 95.1041C72.8606 95.1041 73.4195 95.1041 73.9788 95.1041C73.9788 95.5405 73.9788 95.9773 73.9788 96.4137C74.7162 96.2454 75.3872 95.918 75.9918 95.4315C77.0158 95.8568 77.1275 96.2935 76.3273 96.741Z" fill="#2A060A"/>
<path fill-rule="evenodd" clip-rule="evenodd" d="M71.6303 107.872C74.1221 109.431 76.6944 110.85 79.3469 112.128C78.9953 113.509 78.1005 114.437 76.6629 114.911C75.6836 115.091 74.7888 114.873 73.9789 114.256C72.7043 113.34 71.53 112.303 70.4561 111.146C70.1893 109.815 70.5809 108.724 71.6303 107.872Z" fill="#C4C5C4"/>
<path fill-rule="evenodd" clip-rule="evenodd" d="M27.6792 110.818C28.5909 111.845 28.8705 113.046 28.5179 114.42C27.296 115.941 25.7863 117.087 23.9886 117.857C23.4294 118.076 22.8703 118.076 22.3111 117.857C22.0572 117.362 21.7217 116.925 21.3046 116.548C23.4953 114.682 25.6201 112.772 27.6792 110.818Z" fill="#C5C7C6"/>
<path fill-rule="evenodd" clip-rule="evenodd" d="M38.7509 112.455C39.7574 112.455 40.7639 112.455 41.7704 112.455C42.0365 113.754 42.2603 115.063 42.4414 116.384C42.6424 117.552 42.1391 118.207 40.9317 118.348C37.9829 117.983 35.0194 117.764 32.0408 117.693C32.553 116.193 33.0003 114.665 33.3828 113.11C35.2274 112.962 37.0166 112.744 38.7509 112.455Z" fill="#183F8A"/>
<path fill-rule="evenodd" clip-rule="evenodd" d="M61.2296 117.039C60.9884 117.78 60.8767 118.544 60.8941 119.33C57.8662 119.439 54.8467 119.33 51.8355 119.003C51.5513 118.563 51.1601 118.235 50.6612 118.021C50.4938 116.497 50.4378 114.969 50.4935 113.438C52.2374 113.513 53.915 113.895 55.5261 114.583C57.4478 115.413 59.3491 116.232 61.2296 117.039Z" fill="#19408C"/>
<path fill-rule="evenodd" clip-rule="evenodd" d="M19.9625 72.5149C24.287 77.2698 29.5433 80.7619 35.7313 82.9911C35.843 83.5368 35.9551 84.0822 36.0668 84.628C35.3927 93.0715 34.4419 101.474 33.215 109.836C31.8462 112.295 30.8396 114.914 30.1954 117.693C29.084 122.878 28.413 128.116 28.1824 133.408C27.1695 137.58 26.0511 141.727 24.8274 145.848C24.611 146.223 24.3314 146.551 23.9886 146.83C21.3115 147.103 18.6275 147.266 15.9365 147.321C12.792 149.221 9.43695 149.603 5.87134 148.467C7.45539 146.145 8.96516 143.744 10.4007 141.265C13.8851 133.555 16.9605 125.698 19.627 117.693C20.5419 117.977 21.2129 118.578 21.6401 119.494C22.3766 119.944 23.1595 120.053 23.9886 119.821C25.8284 118.643 27.6178 117.388 29.3567 116.057C30.5755 114.283 30.6873 112.428 29.6922 110.491C30.2814 109.937 30.4492 109.283 30.1954 108.527C29.0811 106.623 28.0187 104.714 27.0081 102.798C28.2631 100.464 29.4933 98.1177 30.6987 95.7589C30.4146 95.3186 30.0232 94.9912 29.5244 94.7768C28.1272 96.6272 26.953 98.5914 26.0016 100.67C25.2134 99.9537 24.5424 99.1352 23.9886 98.2143C23.6705 98.0562 23.335 98.0018 22.9821 98.0506C22.9295 98.5001 22.9854 98.9368 23.1498 99.3601C24.7958 102.025 26.3615 104.753 27.8469 107.545C28.0125 108.08 28.0684 108.625 28.0147 109.182C27.2486 109.217 26.5776 109.49 26.0016 110C23.4011 112.322 20.8289 114.613 18.285 116.875C17.967 117.033 17.6315 117.087 17.2785 117.039C15.2304 110.218 14.2798 103.234 14.4267 96.0863C17.2317 92.4226 20.419 89.1488 23.9886 86.2649C25.5353 87.2821 26.9332 88.4822 28.1824 89.8661C28.5738 90.4662 28.9652 91.0666 29.3567 91.6667C29.9605 91.7439 30.5197 91.5803 31.0342 91.1756C28.9621 88.1136 26.5017 85.3855 23.6531 82.9911C21.0825 82.2178 18.5103 81.5084 15.9365 80.8631C14.483 80.6722 13.0292 80.5086 11.5749 80.372C11.4669 79.6446 11.6905 79.0442 12.2459 78.5714C14.2117 77.3398 16.2247 76.194 18.285 75.1339C19.1278 74.4235 19.6869 73.5504 19.9625 72.5149Z" fill="#18408D"/>
<path fill-rule="evenodd" clip-rule="evenodd" d="M31.3697 119.33C34.2866 119.327 37.1944 119.491 40.0928 119.821C40.2367 120.819 40.2367 121.856 40.0928 122.932C37.0558 122.738 34.0363 122.411 31.0342 121.949C31.146 121.076 31.2579 120.203 31.3697 119.33Z" fill="#8C612C"/>
<path fill-rule="evenodd" clip-rule="evenodd" d="M43.7834 121.295C45.3405 121.5 46.906 121.609 48.4805 121.622C48.5523 122.16 48.4403 122.651 48.145 123.095C46.6862 123.231 45.2325 123.177 43.7834 122.932C43.7834 122.386 43.7834 121.84 43.7834 121.295Z" fill="#8B622E"/>
<path fill-rule="evenodd" clip-rule="evenodd" d="M49.4869 124.896C49.1541 124.952 48.9307 124.843 48.8159 124.568C50.4502 123.23 50.5622 121.757 49.1514 120.149C47.1377 119.9 45.1247 119.791 43.1123 119.821C42.3534 120.915 42.0739 120.861 42.2736 119.658C43.1066 119.006 44.0571 118.678 45.1254 118.676C46.9572 118.869 48.7465 119.251 50.4934 119.821C50.8732 121.266 50.9293 122.739 50.6612 124.241C50.3874 124.674 49.9959 124.892 49.4869 124.896Z" fill="#DAD228"/>
<path fill-rule="evenodd" clip-rule="evenodd" d="M48.816 124.569C48.9307 124.843 49.1542 124.952 49.487 124.896C47.5347 125.273 45.5216 125.328 43.4479 125.06C42.1636 124.36 41.6603 123.323 41.9381 121.949C42.028 123.017 42.5313 123.836 43.4479 124.405C45.2563 124.792 47.0455 124.847 48.816 124.569Z" fill="#9B9A22"/>
<path fill-rule="evenodd" clip-rule="evenodd" d="M59.2166 125.551C58.4906 127.722 58.4349 129.904 59.0489 132.098C61.5866 137.381 64.5501 142.401 67.9398 147.158C67.6412 147.905 67.5855 148.669 67.772 149.449C68.5742 150.377 69.1892 151.414 69.6173 152.56C68.387 152.669 67.157 152.778 65.9267 152.887C63.9701 153.607 61.957 154.098 59.8876 154.36C59.9135 153.144 59.8017 151.944 59.5521 150.759C51.9503 151.796 44.3454 151.959 36.7378 151.25C36.3855 152.069 36.721 152.561 37.7443 152.723C38.0637 153.229 38.1754 153.775 38.0798 154.36C34.9529 154.154 31.8214 154.045 28.6857 154.033C28.7409 153.045 28.685 152.063 28.5179 151.086C27.4356 150.031 26.4849 148.886 25.6661 147.649C28.7231 139.936 30.4006 131.97 30.6987 123.75C34.045 124.021 37.4001 124.349 40.7639 124.732C41.3369 125.401 42.0079 125.947 42.7769 126.369C45.468 126.641 48.152 126.587 50.829 126.205C51.4534 125.869 51.9009 125.378 52.171 124.732C54.5169 124.568 56.8654 124.514 59.2166 124.568C59.2166 124.896 59.2166 125.223 59.2166 125.551Z" fill="#18408E"/>
<path fill-rule="evenodd" clip-rule="evenodd" d="M71.6303 107.872C70.5808 108.724 70.1893 109.815 70.456 111.146C71.5299 112.303 72.7042 113.34 73.9788 114.256C74.7887 114.873 75.6835 115.091 76.6628 114.911C78.1005 114.437 78.9953 113.509 79.3469 112.128C80.0326 111.71 80.7037 111.764 81.3599 112.292C80.9627 112.667 80.9627 113.049 81.3599 113.437C80.4527 113.839 80.0055 114.548 80.0179 115.565C80.3702 119.461 80.8734 123.335 81.5277 127.187C82.0869 127.733 82.6459 128.279 83.2052 128.824C83.7443 130.75 84.6391 132.496 85.8892 134.062C90.3625 139.082 94.8361 144.102 99.3094 149.122C99.5332 149.558 99.5332 149.995 99.3094 150.432C90.5004 151.121 81.6652 151.667 72.8045 152.068C71.9517 151.838 71.225 151.401 70.6237 150.759C70.1651 149.937 70.2768 149.173 70.9593 148.467C71.2877 149.006 71.7349 149.443 72.3013 149.777C80.3557 149.995 88.4079 149.831 96.4576 149.286C96.7287 149.185 96.9525 149.021 97.1286 148.795C92.4373 143.725 87.7962 138.596 83.2052 133.408C83.0727 132.256 82.7371 131.165 82.1987 130.134C80.444 129.113 79.5495 127.585 79.5146 125.551C79.1228 122.492 78.7312 119.436 78.3404 116.384C73.5057 116.635 70.2624 114.562 68.6107 110.164C68.8617 109.134 69.1972 108.152 69.6172 107.217C70.0732 107.051 70.4087 106.724 70.6237 106.235C71.4887 106.609 71.8242 107.155 71.6303 107.872Z" fill="#31090E"/>
<path fill-rule="evenodd" clip-rule="evenodd" d="M62.5717 118.348C61.241 122.513 60.5143 126.769 60.3909 131.116C63.1813 137.002 66.4806 142.568 70.2883 147.812C70.2681 147.99 70.1564 148.099 69.9528 148.14C69.169 147.976 68.498 147.648 67.9397 147.158C64.5501 142.401 61.5866 137.381 59.0488 132.098C58.4349 129.904 58.4906 127.722 59.2166 125.551C59.4793 124.947 59.7031 124.292 59.8876 123.586C57.4871 123.368 55.1385 123.15 52.842 122.931C52.5196 122.354 52.4075 121.699 52.5065 120.967C55.1905 120.967 57.8746 120.967 60.5586 120.967C60.5137 120.381 60.6254 119.835 60.8941 119.33C60.8767 118.544 60.9884 117.78 61.2296 117.039C61.6349 116.798 62.0822 116.689 62.5717 116.711C62.5717 117.257 62.5717 117.802 62.5717 118.348Z" fill="#31090D"/>
<path fill-rule="evenodd" clip-rule="evenodd" d="M52.842 122.932C52.842 122.386 52.842 121.84 52.842 121.295C55.1906 121.295 57.5391 121.295 59.8876 121.295C59.8876 121.84 59.8876 122.386 59.8876 122.932C57.5391 122.932 55.1906 122.932 52.842 122.932Z" fill="#90642E"/>
<path fill-rule="evenodd" clip-rule="evenodd" d="M30.3632 155.67C31.9289 155.67 33.4946 155.67 35.0603 155.67C35.6149 159.332 34.1051 160.751 30.5309 159.926C30.3635 158.511 30.3076 157.092 30.3632 155.67Z" fill="#C0C2C1"/>
<path fill-rule="evenodd" clip-rule="evenodd" d="M66.5977 154.36C67.2523 154.271 67.7555 154.489 68.1075 155.015C69.2519 157.31 68.5248 158.566 65.9267 158.78C63.5429 159.018 62.4247 157.981 62.5716 155.67C63.971 155.287 65.3131 154.85 66.5977 154.36Z" fill="#C2C3C3"/>
</svg>
