<svg width="35" height="40" viewBox="0 0 35 40" fill="none" xmlns="http://www.w3.org/2000/svg">
<path d="M16.9096 3.56036L10.228 16.6161L7.1209 3.81523L7.05843 3.56036H0.49367L6.12954 26.9002L6.10334 26.9739H3.94732L0 39.5L6.51036 30.3309H9.20236L9.62349 29.5026L10.8083 27.169H10.8143L20.0933 9.05385L22.9082 3.56036H16.9096ZM7.76972 29.196L1.49713 4.13978L8.29361 28.5688L9.00288 29.196H7.76972ZM9.89954 20.672L6.50029 3.99244L9.93581 18.199L17.3307 3.99244L9.89954 20.672Z" fill="#30304C"/>
<path d="M23.9902 20.2399C24.103 20.224 24.2199 20.224 24.3408 20.2439C24.6834 20.2957 25.0158 20.3574 25.3402 20.4291C29.8376 21.3988 32.4087 23.8498 32.4108 23.8538L35 18.8043C33.7648 17.6993 31.4133 16.0227 27.9275 15.3C27.9275 15.3 26.787 15.0332 26.1926 14.9177L26.8353 13.0241H28.9914L32.9387 0.5L26.4283 9.6671H23.7363L20.863 15.3239L18.848 19.2922L15.5132 25.8011C16.1157 26.6633 16.833 27.3542 17.6632 27.8798C18.0904 28.1506 18.576 28.4294 19.116 28.7161C19.6399 28.9969 20.2202 29.2836 20.8509 29.5803C21.3143 29.8013 21.7274 30.0064 22.0881 30.1975C22.2533 30.2871 22.4085 30.3727 22.5535 30.4544C22.9726 30.6953 23.2527 31.1313 23.2547 31.6092V31.6211C23.2547 32.3857 22.7026 33.1284 21.9793 33.226C21.8684 33.2419 21.7496 33.2419 21.6307 33.224C21.2881 33.1702 20.9557 33.1085 20.6333 33.0388C16.1359 32.0692 13.5627 29.6161 13.5607 29.6121L12.8716 30.9581L10.9715 34.6616C12.2067 35.7667 14.5622 37.4452 18.0501 38.1679C18.0984 38.1779 18.1488 38.1898 18.1972 38.1998C18.2113 38.1998 18.2234 38.2038 18.2375 38.2078C19.8656 38.5243 21.7355 38.6319 23.8471 38.383C24.2824 38.3213 24.7035 38.2416 25.1085 38.1421C25.7352 37.9887 26.3235 37.7876 26.8736 37.5427C28.3365 36.8857 29.4548 35.9817 30.2326 34.8229C31.0083 33.668 31.3972 32.3678 31.3972 30.9223C31.3972 29.6559 31.095 28.5827 30.4865 27.7046C30.4764 27.6907 30.4683 27.6768 30.4603 27.6648C29.8558 26.8046 29.1385 26.1117 28.3083 25.5861C27.8771 25.3133 27.3874 25.0325 26.8414 24.7438C25.2032 23.9454 23.7081 23.3242 23.7081 23.3242C23.43 23.2067 23.1903 23.0136 23.019 22.7726C22.8276 22.5118 22.7167 22.1932 22.7167 21.8468C22.7167 21.0822 23.2688 20.3395 23.9902 20.2399ZM11.6586 34.4665L13.6615 30.4783L12.2651 34.5361C12.2651 34.5361 16.0331 38.0246 22.1949 38.0146C22.1949 38.0146 15.4911 38.3969 11.6586 34.4665ZM22.9807 30.0203L18.8903 27.9037C16.3273 26.7688 16.2568 25.4129 16.2568 25.4129L21.8584 14.619L16.958 25.385C16.958 25.385 16.8874 26.1058 19.0294 27.4338C21.1048 28.7201 22.8739 29.9446 22.9807 30.0203Z" fill="#30304C"/>
<path d="M26.3308 0.818176C20.5035 13.41 14.0999 25.9281 7.28531 38.0242C13.1086 25.4324 19.5182 12.9182 26.3308 0.818176Z" fill="#30304C"/>
</svg>
