<svg width="205" height="60" viewBox="0 0 205 60" fill="none" xmlns="http://www.w3.org/2000/svg">
<path d="M0.0138864 51.7976L0.0633594 51.4461C0.0922822 51.218 0.110296 50.9887 0.128055 50.7594C0.151397 50.4864 0.168396 50.1957 0.310219 49.9397C0.331023 49.9028 0.340917 49.8581 0.367556 49.8232C0.437326 49.7311 0.5279 49.6672 0.529676 49.5742C0.533735 49.4806 0.469293 49.3795 0.452802 49.2693C0.435042 49.1802 0.419059 49.0874 0.432506 48.9958C0.458638 48.8149 0.545406 48.6527 0.645113 48.5062C0.763088 48.3356 0.915313 48.1923 1.08048 48.0681C1.10001 48.0314 1.11752 47.9932 1.14111 47.9588C1.1708 47.9176 1.20961 47.8827 1.23981 47.8423C1.29968 47.7559 1.35727 47.6671 1.42831 47.589C1.50315 47.5024 1.58739 47.4246 1.66477 47.3412C1.74012 47.2604 1.80963 47.174 1.87966 47.088C1.9649 46.9847 2.06233 46.8923 2.16508 46.8063C2.18005 46.7933 2.18385 46.7691 2.19857 46.7559C2.25388 46.7067 2.31274 46.661 2.37084 46.6146C2.2965 46.5285 2.22572 46.4392 2.16407 46.3429C2.12068 46.2643 2.0641 46.2007 2.03949 46.0861C2.0159 45.9661 2.0877 45.8513 2.16051 45.789C2.36044 45.629 2.54209 45.5449 2.71816 45.402C2.89525 45.2717 3.06118 45.1267 3.22254 44.977C3.5417 44.6731 3.83296 44.3385 4.10595 43.9887C4.44313 43.5555 4.76128 43.1056 5.07841 42.6553C5.5564 41.9743 6.06914 41.3173 6.61817 40.691C6.94748 40.3168 7.27756 39.9425 7.62767 39.5852C8.33755 38.8603 9.13014 38.2133 9.97854 37.6526C10.18 37.5219 10.3812 37.3874 10.5968 37.2744C10.6838 37.2262 10.7848 37.1923 10.885 37.1668C10.9096 37.053 10.9401 36.94 10.9847 36.8295C11.0499 36.6708 11.142 36.5186 11.2613 36.3896C11.3803 36.2608 11.5196 36.1565 11.6619 36.0639C11.8382 35.9492 12.0244 35.8571 12.199 35.7476C12.4641 35.5859 12.7049 35.3838 12.902 35.145C13.0218 35.0032 13.1134 34.8413 13.1961 34.6776C13.279 34.5139 13.3737 34.3305 13.5424 34.214C13.6614 34.1279 13.7976 34.0775 13.9361 34.0473C13.9904 33.9014 14.0744 33.7701 14.1645 33.6461C14.2254 33.566 14.2939 33.4759 14.3535 33.3978C14.4458 33.2716 14.5402 33.1473 14.6465 33.033C14.711 32.9657 14.7693 32.8898 14.8462 32.8287C14.9109 32.7738 14.9893 32.7351 15.0717 32.7094C15.0903 32.5158 15.1095 32.3204 15.1648 32.1248C15.225 31.9107 15.3447 31.6979 15.5228 31.5474C15.7004 31.4017 15.8712 31.2959 16.0127 31.1357C16.1934 30.9468 16.3558 30.733 16.5331 30.5316C16.6671 30.3807 16.8147 30.2359 16.9926 30.1349C17.0768 30.0797 17.1864 30.0553 17.2321 29.965C17.2749 29.8774 17.2874 29.7748 17.3138 29.6793C17.3706 29.447 17.4104 29.2104 17.4561 28.9754C17.504 28.7373 17.5558 28.5 17.6187 28.2655C17.6801 28.0314 17.7509 27.7924 17.8717 27.5766C17.915 27.5005 17.96 27.4251 18.0092 27.3517C17.8331 27.36 17.6568 27.3023 17.519 27.2068C17.3675 27.1042 17.2524 26.9687 17.1532 26.8287C17.0319 26.6533 16.94 26.4667 16.8462 26.281C16.7761 26.1408 16.7135 25.9973 16.6541 25.8534C16.5942 25.7109 16.526 25.5677 16.4121 25.4601C16.2789 25.3276 16.1056 25.2493 15.9463 25.1445C15.7862 25.0427 15.6246 24.8842 15.5898 24.6769C15.5601 24.4843 15.5644 24.3046 15.5596 24.1182C15.5558 24.1145 15.5525 24.111 15.549 24.107C15.518 24.0683 15.5066 24.0538 15.4871 24.0291C15.452 23.9867 15.4193 23.9423 15.3797 23.9036C15.1014 23.6237 14.7351 23.4413 14.4628 23.1221C14.2901 22.9233 14.1564 22.6558 14.1734 22.3726C14.1898 22.0921 14.3261 21.8456 14.4895 21.642C14.6952 21.3885 14.951 21.1968 15.1626 20.9645C15.4827 20.6132 15.7144 20.1903 15.9024 19.7556C16.0171 19.4954 16.1043 19.2249 16.2017 18.9574C16.3976 18.4167 16.6546 17.8782 17.0527 17.4463C17.0999 17.3949 17.1422 17.349 17.1905 17.2966C17.2366 17.1756 17.2803 17.0523 17.3404 16.9373C17.4292 16.7639 17.55 16.6094 17.6786 16.4627C17.76 16.3724 17.8399 16.2858 17.93 16.1985C18.0011 16.1324 18.0934 16.1012 18.1807 16.0787C18.2687 16.0555 18.356 16.0315 18.4428 16.0049C18.547 15.9744 18.646 15.9265 18.7475 15.8863C18.854 15.8419 18.9636 15.8077 19.0753 15.7805C19.074 15.7735 19.0722 15.7656 19.0709 15.7588C18.9527 15.1962 18.8512 14.6215 18.8682 14.0366C18.8794 13.6614 18.9393 13.2851 19.0585 12.9255C19.1181 12.7459 19.1925 12.5707 19.2823 12.4035C19.3267 12.3197 19.3756 12.2381 19.4284 12.1593C19.4543 12.1201 19.4817 12.0792 19.5093 12.0435C19.5167 12.033 19.5261 12.0228 19.5355 12.0115L19.5532 11.9908C19.5507 11.9891 19.5406 11.9918 19.5337 11.9921C19.517 11.9938 19.504 11.9973 19.4746 12.0026L19.1564 12.0627L18.9228 12.1069L19.1204 11.9873C19.3297 11.8606 19.538 11.7323 19.7235 11.5754C19.9924 11.3573 20.1898 11.0629 20.3007 10.7363C20.4156 10.4111 20.4785 10.0703 20.5391 9.73119C20.6122 9.32497 20.6614 8.91327 20.7789 8.51204C20.8984 8.10832 21.0887 7.70933 21.3969 7.40117C21.5489 7.24772 21.7323 7.11697 21.9429 7.04761C22.153 6.97574 22.3877 6.98772 22.5881 7.06682C22.7786 7.13968 22.9506 7.25046 23.1092 7.37672C23.194 7.44135 23.267 7.53118 23.3299 7.61726C23.5844 7.55638 23.8407 7.49425 24.1055 7.46755C24.4754 7.43112 24.8613 7.46605 25.215 7.5988C25.4327 7.68014 25.6341 7.79766 25.8122 7.93914C25.9472 8.04543 26.0675 8.16919 26.1646 8.30892C26.2646 8.44741 26.3212 8.61084 26.3894 8.7608C26.4412 8.84539 26.5323 8.89854 26.6089 8.96591C26.6878 9.03129 26.7634 9.10115 26.8334 9.17676C27.1165 9.48267 27.3127 9.8779 27.3436 10.2939C27.3472 10.3914 27.3527 10.4895 27.338 10.5888C27.337 10.6003 27.333 10.6112 27.3297 10.6225C27.3812 10.76 27.3999 10.9147 27.3631 11.0654C27.3368 11.1851 27.2617 11.3052 27.1828 11.3872C27.1069 11.4711 27.0414 11.5419 27.0544 11.622C27.0607 11.6734 27.0975 11.7353 27.1287 11.8002C27.1587 11.8663 27.1881 11.9312 27.2168 11.9943C27.3 12.1909 27.3728 12.3893 27.4141 12.5992C27.421 12.6653 27.3878 12.7329 27.3362 12.7773C27.2855 12.8227 27.2254 12.8544 27.1678 12.8831C27.0521 12.939 26.9275 12.9914 26.9255 13.0832C26.9207 13.1281 26.9468 13.1975 26.9397 13.2709C26.9351 13.3422 26.906 13.4081 26.8679 13.4632C26.8293 13.5136 26.7931 13.5643 26.7441 13.6077C26.7416 13.6105 26.737 13.6102 26.7342 13.6125C26.7408 13.6212 26.7494 13.6279 26.7548 13.6379C26.7984 13.712 26.7961 13.8186 26.7525 13.8992C26.7271 13.9501 26.6832 13.9897 26.6411 14.0194C26.5792 14.0681 26.4848 14.0583 26.4726 14.13C26.4676 14.1674 26.495 14.2108 26.497 14.2582C26.5102 14.3543 26.4506 14.4493 26.3633 14.4893C26.3453 14.5684 26.2938 14.6407 26.2194 14.6824C26.1149 14.7418 25.9936 14.7485 25.8838 14.7443C25.7734 14.7385 25.6641 14.7241 25.5567 14.6996C25.5078 14.6889 25.4606 14.6717 25.4134 14.6557C25.4279 14.6664 25.4421 14.6777 25.4547 14.6896C25.5164 14.7478 25.5646 14.8124 25.6179 14.8735L25.9282 15.2303L26.0862 15.4062L26.1258 15.4502C26.1367 15.4624 26.1319 15.4577 26.1408 15.4569C26.1791 15.4434 26.2184 15.4327 26.2577 15.4222C26.6444 15.3277 27.0379 15.3928 27.4157 15.4424C27.4722 15.4504 27.5313 15.4434 27.5882 15.4529C27.8845 15.4991 28.1844 15.6016 28.4211 15.788C28.5201 15.8619 28.6233 15.931 28.7154 16.0123C28.8961 16.1725 29.0698 16.341 29.2424 16.5101C29.3142 16.5802 29.3839 16.6536 29.4507 16.7297C29.4892 16.7579 29.5237 16.7831 29.5542 16.8053C29.6841 16.9051 29.8114 17.0084 29.936 17.1145C30.2425 17.375 30.5345 17.6519 30.8148 17.9389C31.0036 18.1323 31.1792 18.3369 31.3626 18.5342C31.7462 18.9452 32.126 19.3591 32.4969 19.7803L33.7005 21.1517C34.0938 21.5933 34.4946 22.0282 34.8963 22.4624C35.3811 22.9869 35.8593 23.5176 36.3107 24.0716C36.3771 24.1537 36.4571 24.2263 36.523 24.3093C36.8714 24.741 37.188 25.1996 37.4864 25.6632C37.613 25.8556 37.7921 25.9946 37.995 26.1019C38.1952 26.2097 38.3812 26.3567 38.5276 26.5301C38.6773 26.7017 38.8036 26.8891 38.9368 27.0708L39.5523 27.9149C39.651 28.0579 39.7654 28.1909 39.8428 28.3518C39.8727 28.4169 39.889 28.4885 39.8908 28.5614C39.9374 28.5906 39.9831 28.6193 40.0298 28.6487C40.1495 28.7273 40.2655 28.8107 40.3784 28.898C40.4542 28.9569 40.5217 29.0263 40.5981 29.0842C40.7579 29.2047 40.9221 29.3194 41.0779 29.4455C41.2473 29.5807 41.4117 29.7224 41.5827 29.8557C41.6644 29.9225 41.7545 29.9769 41.8314 30.057C41.9113 30.1376 41.9392 30.2591 41.9329 30.3662C41.9123 30.6264 41.8263 30.862 41.7621 31.108C41.752 31.1439 41.7573 31.1841 41.7474 31.2203C41.6926 31.4079 41.6368 31.5986 41.5822 31.7852C41.5703 31.8224 41.5645 31.8688 41.5251 31.9055C41.4848 31.9406 41.4323 31.9439 41.3904 31.9416C41.2275 31.9272 41.068 31.9015 40.9058 31.892C40.8749 31.8902 40.8437 31.8883 40.8127 31.8863C40.8054 31.901 40.8023 31.9172 40.7935 31.9312C40.7295 32.0277 40.6202 32.1011 40.4974 32.1146C40.4149 32.124 40.3358 32.0988 40.2635 32.0709C40.1051 32.0175 39.996 31.864 39.96 31.7171C39.9133 31.5601 39.8971 31.3947 39.7824 31.2809C39.6731 31.1751 39.5163 31.1015 39.4204 30.964C39.3009 30.8051 39.2268 30.6307 39.1431 30.459C39.1309 30.4336 39.1045 30.4151 39.0921 30.3896C39.0304 30.2561 38.9667 30.1187 38.9054 29.9859C38.8792 29.9305 38.8384 29.8826 38.811 29.8277C38.7661 29.7369 38.726 29.6433 38.6803 29.5527L38.4675 29.7139C38.2097 29.9051 37.9486 30.0917 37.6843 30.2736C37.5949 30.3325 37.5044 30.3921 37.4138 30.452C37.328 30.5054 37.2187 30.592 37.0845 30.5551C36.9548 30.5102 36.8927 30.4073 36.812 30.3325L36.5786 30.09L36.1174 29.5997L35.1436 28.5143L34.1998 27.456C34.0121 27.241 33.8297 27.0216 33.6523 26.7981C33.4757 26.5742 33.306 26.3464 33.1185 26.1336C33.063 26.0705 32.9937 26.0196 32.9351 25.9602C32.6324 25.6443 32.2404 25.4177 31.92 25.1046C31.7876 24.9768 31.6518 24.8518 31.5255 24.7198C31.2804 24.4568 31.0102 24.2163 30.7085 24.0164C30.5396 23.9044 30.3643 23.8031 30.1869 23.7053C30.1407 23.7916 30.0862 23.8744 30.0146 23.9421C29.934 24.0197 29.8393 24.0785 29.7472 24.1369C29.6572 24.1938 29.5681 24.25 29.477 24.3074C29.3662 24.3735 29.2462 24.4204 29.1251 24.4608C29.1074 24.467 29.0955 24.4878 29.0777 24.4945C28.9843 24.5287 28.8872 24.5551 28.7905 24.5811C28.7839 24.5828 28.7778 24.5863 28.7715 24.5888C28.7806 24.6425 28.79 24.6964 28.7933 24.7517C28.8012 24.8433 28.7936 24.9364 28.7839 25.0275C28.7738 25.1158 28.7623 25.2061 28.7248 25.2937C28.6801 25.401 28.5705 25.4788 28.4589 25.5001C28.4427 25.5033 28.4302 25.5228 28.4135 25.5253C28.3387 25.539 28.2658 25.535 28.1943 25.5327C28.1928 25.5754 28.1907 25.6183 28.1841 25.6602C28.1765 25.6967 28.1575 25.7314 28.1517 25.768C28.1405 25.8449 28.1362 25.9227 28.1179 25.9983C28.1002 26.0807 28.0738 26.1615 28.058 26.2441C28.0423 26.3245 28.0378 26.4063 28.0337 26.4884C28.0284 26.5875 28.0088 26.6843 27.9832 26.7801C27.9797 26.7943 27.9918 26.8113 27.9888 26.8255C27.9847 26.8442 27.9786 26.8624 27.9738 26.8811C28.0522 26.9243 28.1268 26.9747 28.1935 27.0338C28.2415 27.0743 28.2762 27.1279 28.3217 27.1701C28.414 27.2602 28.5074 27.3515 28.582 27.4573C28.6631 27.5716 28.7286 27.6951 28.7938 27.8173C28.8577 27.9359 28.9194 28.0559 28.975 28.1799C28.9907 28.2176 29.0074 28.2552 29.0196 28.2944C29.0247 28.3111 29.0358 28.3393 29.0353 28.3468C29.0369 28.3563 29.0351 28.3558 29.0546 28.3643C29.1371 28.3977 29.2046 28.4566 29.2601 28.5195C29.2761 28.5385 29.3043 28.5479 29.3192 28.5684C29.3981 28.6747 29.4456 28.7947 29.492 28.9115C29.5113 28.9599 29.545 29.0018 29.5648 29.0495C29.6039 29.144 29.6331 29.2426 29.6772 29.3347C29.7105 29.4043 29.7442 29.4734 29.7764 29.5433L30.3995 29.8689C30.9138 30.1366 31.4321 30.3951 31.9619 30.6279C32.3186 30.7836 32.6771 30.9363 33.049 31.0536C33.4357 31.1796 33.834 31.2595 34.2318 31.361C34.6286 31.4601 35.0203 31.6275 35.3443 31.8803C36.0367 32.4285 36.7047 32.9954 37.3872 33.551C37.7147 33.8255 38.0359 34.112 38.3081 34.4433C38.5824 34.7719 38.7945 35.1545 38.9211 35.5627C39.0764 36.055 39.1659 36.559 39.2697 37.0595C39.3686 37.5613 39.4567 38.0651 39.5411 38.5691C39.5711 38.7171 39.6015 38.8678 39.6312 39.0158C39.7596 39.7993 39.8707 40.585 39.9831 41.3707L40.1396 42.3429C40.1823 42.658 40.2536 42.9956 40.1376 43.313C40.0245 43.6291 39.7449 43.8542 39.444 43.9815C38.9665 44.1878 38.4319 44.1329 37.9354 44.065C37.7218 44.0348 37.5059 44.0032 37.2902 43.9842C37.2491 44.1192 37.2085 44.2542 37.1723 44.3899C37.139 44.5147 37.0995 44.6382 37.0754 44.7654C37.0302 45.0314 37.0129 45.3007 37.002 45.5694C36.9914 45.8606 36.9972 46.1545 37.0393 46.4445C37.0594 46.5854 37.0875 46.7254 37.1243 46.8629C37.1593 46.9996 37.1951 47.1431 37.2867 47.2399C37.3417 47.2981 37.4156 47.3392 37.4919 47.3799C37.5693 47.4206 37.6444 47.4685 37.7198 47.5139C37.8679 47.61 38.0062 47.7188 38.1399 47.8318C38.1787 47.8662 38.2282 47.8887 38.2673 47.9229C38.471 48.1033 38.6582 48.2989 38.8483 48.4908C38.9272 48.5696 39.017 48.6377 39.0977 48.7148C39.174 48.7894 39.2501 48.8645 39.3278 48.9376C39.3514 48.9404 39.375 48.9431 39.3991 48.9459C39.4967 48.9599 39.5934 48.9798 39.6888 49.0048C39.753 49.0217 39.8134 49.0514 39.8778 49.0672C40.0123 49.0983 40.1483 49.1248 40.2782 49.1749C40.4195 49.2266 40.5555 49.2932 40.6866 49.3663C40.8145 49.4364 40.9368 49.5193 41.051 49.6091C41.1905 49.7159 41.3115 49.8374 41.4528 49.931C41.4739 49.9447 41.5033 49.944 41.5254 49.9559C41.6406 50.0198 41.7705 50.0824 41.8677 50.1857C41.907 50.2269 41.9539 50.2666 41.9778 50.3227C42.0277 50.4353 41.9882 50.566 41.9118 50.6486C41.8694 50.6995 41.8141 50.7319 41.755 50.7569C41.7573 50.7764 41.7636 50.7951 41.7624 50.815C41.7601 50.8986 41.7111 50.9787 41.649 51.0309C41.4886 51.1649 41.2661 51.1718 41.0791 51.1244C40.8904 51.076 40.7244 50.9855 40.5529 50.9343C40.3221 50.8647 40.0704 50.8565 39.8185 50.8417C39.5548 50.8315 39.2854 50.7669 39.0497 50.6461C38.8105 50.5301 38.5958 50.3776 38.3832 50.2282C38.1531 50.0665 37.923 49.9043 37.666 49.794C37.4108 49.6795 37.1271 49.6395 36.8457 49.6373C36.298 49.6326 35.7459 49.7598 35.1893 49.659C34.861 49.6011 34.5192 49.4507 34.3287 49.1555C34.1501 48.8718 34.0933 48.4785 34.2983 48.1871C34.3274 48.1487 34.3683 48.0968 34.3794 48.0868C34.4129 48.0658 34.3632 48.0606 34.3498 48.0414C34.2409 47.9478 34.1887 47.8093 34.176 47.6778C34.1608 47.5451 34.1762 47.4143 34.2019 47.2878C34.2534 47.0331 34.3561 46.7983 34.4238 46.5542C34.4842 46.3531 34.5187 46.1453 34.5606 45.9399C34.6438 45.5357 34.7067 45.125 34.7192 44.7115C34.7425 44.0728 34.6803 43.4343 34.5669 42.8057C34.5626 42.7843 34.5581 42.7618 34.5537 42.7401C34.5063 42.5322 34.4495 42.3266 34.4 42.1193C34.3404 41.874 34.2818 41.6277 34.2084 41.3854C34.1379 41.1497 34.0534 40.9184 33.9659 40.688C33.8601 40.4103 33.7645 40.1289 33.6772 39.8442C33.664 39.802 33.6356 39.7648 33.6221 39.7229C33.5518 39.5026 33.4915 39.2793 33.4313 39.0559C33.4067 38.9636 33.3661 38.8758 33.3425 38.783C33.2948 38.6006 33.2634 38.4142 33.2218 38.2308C33.184 38.0616 33.1518 37.8909 33.1292 37.719C33.0589 37.7015 32.9879 37.6873 32.9183 37.6676C32.8049 37.6352 32.6951 37.5905 32.5814 37.5588C32.3442 37.4937 32.1055 37.4338 31.8708 37.36L31.1104 37.1137C30.8633 37.0361 30.6131 36.9682 30.3635 36.8986C30.2128 36.8564 30.0629 36.8118 29.9142 36.7634L29.6922 36.688L29.6389 36.669L29.6077 36.6561C29.5877 36.6483 29.5587 36.6361 29.5422 36.6329L29.5521 36.6458C29.5686 36.6693 29.5861 36.6932 29.5879 36.7092C29.6052 36.8325 29.5504 36.972 29.4626 37.063C29.3715 37.1563 29.254 37.2092 29.1373 37.2467C29.0407 37.2779 28.9458 37.3145 28.8484 37.3385C28.7347 37.3659 28.6198 37.3896 28.5048 37.4129C28.5094 37.443 28.515 37.4732 28.5195 37.5034C28.569 37.8325 28.6114 38.1627 28.6461 38.4933C28.6649 38.7148 28.6839 38.9417 28.7027 39.162C28.7522 39.6258 28.8055 40.0894 28.8425 40.5546L28.9493 42.0669L28.9772 42.4344L28.9917 42.6181L28.9998 42.7184C29.0183 42.7541 28.9549 42.7441 28.9506 42.7526C28.9351 42.7568 28.9194 42.76 28.9034 42.7623C28.6459 42.8055 28.3922 42.7219 28.1616 42.6311C28.0248 42.5727 27.8726 42.5268 27.7564 42.4057C27.6993 42.3459 27.6656 42.261 27.662 42.1802C27.6572 42.0991 27.6722 42.0222 27.6871 41.9494C27.7455 41.6597 27.8 41.3692 27.8358 41.0755C27.8462 40.9885 27.8406 40.8994 27.8505 40.8126C27.8942 40.3559 27.9167 39.8968 27.9132 39.437C27.9139 39.2468 27.8881 39.0572 27.881 38.8675C27.8614 38.4935 27.8414 38.1187 27.7988 37.7462C27.7917 37.6921 27.7846 37.6379 27.7774 37.5838C27.732 37.605 27.6869 37.6262 27.6412 37.6477C27.4981 37.704 27.354 37.7602 27.2043 37.7966C27.1041 37.8238 27.0008 37.8373 26.8996 37.8592C26.6903 37.9104 26.4792 37.9593 26.2648 37.9848C26.033 38.0164 25.799 38.0267 25.5664 38.0431C25.3398 38.0569 25.1135 38.0706 24.8867 38.0843C24.6124 38.0943 24.3377 38.0856 24.0649 38.0556C24.0246 38.0516 23.9827 38.0646 23.9421 38.0601C23.73 38.0389 23.5197 38.0062 23.3096 37.9733C23.2229 37.9591 23.1338 37.9613 23.0471 37.9483C22.9912 37.9393 22.9354 37.9296 22.8796 37.9199C22.8735 38.1048 22.8662 38.2894 22.8679 38.4746C22.8679 38.652 22.8598 38.8301 22.8695 39.008L22.9466 40.1206C22.9682 40.5234 22.9763 40.9276 22.9679 41.3313C22.9682 41.4294 22.9605 41.5274 22.958 41.6257L22.9567 41.6624C22.9527 41.6734 22.9661 41.7118 22.9357 41.7068L22.855 41.7228C22.8058 41.732 22.7561 41.7398 22.7063 41.746C22.5072 41.772 22.3045 41.7752 22.1035 41.7557L22.0127 41.7448L21.9011 41.7263C21.8833 41.7283 21.8858 41.7113 21.8841 41.6988L21.8795 41.6609L21.8739 41.617L21.863 41.5289L21.8224 41.1766C21.7996 40.9411 21.7765 40.7053 21.7537 40.4705C21.7471 40.4006 21.7245 40.3322 21.7176 40.2624C21.6852 39.8968 21.6524 39.5298 21.6199 39.1647C21.606 39.0135 21.5755 38.8638 21.5603 38.7128C21.5344 38.4533 21.5149 38.1931 21.4873 37.9341C21.417 37.9311 21.3464 37.9289 21.2767 37.9221C21.2064 37.9151 21.1374 37.8952 21.0671 37.8909C20.9202 37.8817 20.7733 37.8832 20.6267 37.8762C20.4679 37.8697 20.3083 37.861 20.1492 37.8707C19.9944 37.8795 19.8415 37.9082 19.692 37.9453C19.604 37.9635 19.5071 38.002 19.3972 37.9748C19.3462 37.9608 19.3033 37.9358 19.2653 37.9059C19.2148 37.9097 19.1646 37.9114 19.1146 37.9151C19.0451 37.9199 18.9761 37.9309 18.905 37.9381C18.8193 37.9466 18.7325 37.9324 18.6516 37.9044C18.6394 37.9007 18.6237 37.9121 18.6115 37.9079C18.5721 37.8954 18.5351 37.8777 18.4991 37.8585C18.477 37.8872 18.4572 37.9176 18.4346 37.9461C18.2527 38.1736 18.0454 38.3812 17.8252 38.5724C17.6773 38.7021 17.5144 38.8129 17.3594 38.9324C17.0339 39.1794 16.6967 39.4118 16.3466 39.6226C15.9676 39.8517 15.5764 40.0593 15.195 40.2821C14.8244 40.4987 14.4621 40.7302 14.1234 40.9907C13.7141 41.3041 13.3313 41.6487 13.0114 42.0507C12.9639 42.1101 12.9297 42.1799 12.884 42.2406C12.6445 42.5592 12.4131 42.8881 12.149 43.192C12.0404 43.3177 11.9346 43.4472 11.8139 43.563C11.5718 43.7866 11.3021 43.9785 11.0225 44.1509C10.9061 44.223 10.7856 44.2894 10.6625 44.3515C10.6471 44.3724 10.6318 44.3937 10.6161 44.4146C10.4489 44.6387 10.2599 44.846 10.0602 45.0414C9.92627 45.1737 9.77963 45.2917 9.64263 45.4197L8.78788 46.2189C8.48242 46.5086 8.18431 46.809 7.93847 47.1503C7.82024 47.317 7.7147 47.4917 7.62311 47.6733C7.57617 47.7632 7.53761 47.8595 7.47824 47.9476C7.4209 48.0364 7.33337 48.1132 7.23088 48.1532C6.97894 48.2487 6.7123 48.2016 6.46924 48.1472C6.22315 48.0883 5.98897 48.0015 5.74744 47.9488C5.67564 47.9338 5.60105 47.9356 5.52951 47.9288C5.153 47.8822 4.77066 48.0174 4.37513 48.0042C4.23331 48 4.08692 47.9785 3.95398 47.9221C3.89613 48.0104 3.83854 48.0988 3.78019 48.1878C3.71118 48.2956 3.63228 48.3979 3.5691 48.5097C3.43768 48.7428 3.32427 48.9846 3.21137 49.2266C3.09923 49.4901 2.94498 49.7513 2.93382 50.0363C2.9087 50.3317 3.23142 50.4897 3.28723 50.7911C3.32884 50.964 3.31945 51.1387 3.32326 51.3056C3.32174 51.4735 3.35447 51.634 3.39963 51.7994C3.41231 51.8483 3.44047 51.8935 3.45214 51.9436C3.48335 52.0736 3.50136 52.2136 3.47954 52.3501C3.46026 52.4853 3.3976 52.6223 3.28495 52.7076C3.19488 52.7782 3.08249 52.8274 2.96655 52.8324C2.73745 52.8414 2.52408 52.76 2.32695 52.6665C2.32365 52.6647 2.3206 52.6625 2.3173 52.6607C2.31045 52.6715 2.30335 52.6817 2.29853 52.6929C2.27823 52.7448 2.25388 52.7985 2.21126 52.8376C2.16686 52.8815 2.10952 52.909 2.05497 52.9335C2.00169 52.9569 1.94714 52.9799 1.88752 52.9933C1.81522 53.01 1.73885 52.9938 1.67466 52.9614C1.66502 52.9572 1.6498 52.9659 1.6399 52.9611C1.58865 52.9347 1.54705 52.894 1.51178 52.8521C1.50341 52.8421 1.49148 52.8351 1.47981 52.8274C1.47728 52.8282 1.4755 52.8301 1.47296 52.8309C1.41765 52.8494 1.35829 52.8476 1.30349 52.8431C1.25046 52.8389 1.19642 52.8364 1.14187 52.8247C1.07616 52.8099 1.01933 52.7703 0.977217 52.7209C0.970621 52.7141 0.953623 52.7181 0.947026 52.7109C0.932311 52.6944 0.920386 52.6759 0.908969 52.6572C0.853915 52.668 0.795816 52.6677 0.739239 52.6505C0.646635 52.6201 0.584477 52.5569 0.534496 52.4871C0.479188 52.406 0.455593 52.3156 0.433266 52.2281C0.404597 52.2635 0.367049 52.2924 0.323411 52.3037C0.204422 52.3296 0.102178 52.253 0.0529583 52.1682C-0.0183338 52.0464 -0.00235098 51.9132 0.0138864 51.7976Z" fill="#001E30"/>
<path d="M62.1 28C61.8867 28.0933 61.7 28.2267 61.54 28.4C61.38 28.5733 61.1933 28.72 60.98 28.84C60.78 29.16 60.6 29.5 60.44 29.86C60.2933 30.2067 60.0667 30.4933 59.76 30.72C59.8 30.8533 59.78 30.9467 59.7 31C59.6333 31.0533 59.5467 31.0933 59.44 31.12C59.44 31.24 59.4133 31.34 59.36 31.42C59.3067 31.5 59.24 31.5733 59.16 31.64C59.0933 31.7067 59.0333 31.78 58.98 31.86C58.9267 31.9267 58.8933 32.0133 58.88 32.12C58.8 32.16 58.7733 32.1267 58.8 32.02C58.72 32.0067 58.6667 32.0467 58.64 32.14C58.6133 32.22 58.6267 32.2933 58.68 32.36C58.6 32.4933 58.5267 32.6067 58.46 32.7C58.3933 32.7933 58.2733 32.8533 58.1 32.88C58.1133 32.9867 58.0733 33.0933 57.98 33.2C57.9 33.2933 57.8067 33.3933 57.7 33.5C57.5933 33.5933 57.5 33.6933 57.42 33.8C57.34 33.8933 57.3133 33.98 57.34 34.06C57.3533 34.1133 57.34 34.16 57.3 34.2C57.26 34.24 57.2133 34.2133 57.16 34.12C57.16 34.12 57.1533 34.1267 57.14 34.14C57.1133 34.18 57.0867 34.2267 57.06 34.28C57.0333 34.3333 57.0333 34.4 57.06 34.48C56.9933 34.5867 56.9267 34.5867 56.86 34.48C56.5133 34.8267 56.2067 35.18 55.94 35.54C55.8733 35.5933 55.8133 35.6133 55.76 35.6C55.7067 35.5867 55.66 35.6267 55.62 35.72C55.58 35.72 55.5533 35.7067 55.54 35.68C55.5267 35.64 55.5 35.6133 55.46 35.6C55.46 35.64 55.4333 35.6867 55.38 35.74C55.3 35.8067 55.2667 35.8733 55.28 35.94C55.2533 35.9533 55.2067 35.98 55.14 36.02C55.0867 36.0467 55.0333 36.08 54.98 36.12C54.9267 36.16 54.9067 36.22 54.92 36.3C54.8267 36.3 54.74 36.3333 54.66 36.4C54.5933 36.4667 54.5333 36.54 54.48 36.62C54.4133 36.7 54.34 36.7733 54.26 36.84C54.1933 36.9067 54.1067 36.9267 54 36.9C53.9467 36.94 53.9133 37 53.9 37.08C53.9 37.16 53.8667 37.2133 53.8 37.24C53.6667 37.1733 53.5333 37.2133 53.4 37.36C53.28 37.5067 53.2 37.6467 53.16 37.78C52.9467 37.9133 52.74 37.98 52.54 37.98C52.3533 37.9667 52.1867 38.0533 52.04 38.24C52 38.2133 51.9467 38.2067 51.88 38.22C51.8 38.2333 51.74 38.2067 51.7 38.14C51.5933 38.22 51.5 38.26 51.42 38.26C51.34 38.2467 51.2533 38.2267 51.16 38.2C51.12 38.1733 51.0733 38.16 51.02 38.16C50.9667 38.1467 50.9133 38.14 50.86 38.14C50.86 38.14 50.8933 38.1067 50.96 38.04C51.04 37.9733 51.0267 37.92 50.92 37.88C50.9333 37.8133 50.98 37.7933 51.06 37.82C51.1533 37.8333 51.2067 37.8533 51.22 37.88C51.2733 37.88 51.2933 37.84 51.28 37.76C51.28 37.6533 51.32 37.62 51.4 37.66C51.44 37.6733 51.4933 37.6533 51.56 37.6C51.5867 37.5733 51.6133 37.5467 51.64 37.52C51.68 37.4933 51.72 37.48 51.76 37.48C51.76 37.4133 51.7267 37.4 51.66 37.44C51.6067 37.4667 51.5667 37.5 51.54 37.54C51.5133 37.5 51.5333 37.4467 51.6 37.38C51.68 37.3133 51.76 37.2467 51.84 37.18C51.88 37.1533 51.9067 37.1333 51.92 37.12C51.9733 37.2133 52.0667 37.1933 52.2 37.06C52.3467 36.9267 52.4733 36.7733 52.58 36.6C52.74 36.44 52.9133 36.3 53.1 36.18C53.3 36.0467 53.4 35.8933 53.4 35.72C53.56 35.64 53.72 35.4933 53.88 35.28C54.0533 35.0667 54.2267 34.84 54.4 34.6C54.5733 34.36 54.7533 34.14 54.94 33.94C55.1267 33.74 55.32 33.6067 55.52 33.54C55.5333 33.46 55.4933 33.42 55.4 33.42C55.7867 32.9133 56.1667 32.42 56.54 31.94C56.9267 31.4467 57.2933 30.94 57.64 30.42C57.64 30.42 57.6467 30.3867 57.66 30.32C57.6733 30.2533 57.6267 30.2133 57.52 30.2C57.6933 29.8533 57.8867 29.5267 58.1 29.22C58.3267 28.9133 58.5067 28.5733 58.64 28.2C57.7733 28.1867 56.8267 28.22 55.8 28.3C54.7733 28.38 53.74 28.4867 52.7 28.62C51.6733 28.7533 50.7133 28.9067 49.82 29.08C49.7 28.9733 49.5333 28.8 49.32 28.56C49.12 28.32 48.92 28.0467 48.72 27.74C48.5333 27.4333 48.3867 27.1267 48.28 26.82C48.24 26.7133 48.28 26.64 48.4 26.6C48.6667 26.7067 48.9533 26.84 49.26 27C49.5667 27.1467 49.7733 27.2467 49.88 27.3C50.5867 27.2867 51.2933 27.24 52 27.16C52.72 27.0667 53.44 26.9933 54.16 26.94C54.4 26.9133 54.6333 26.9 54.86 26.9C55.1 26.9 55.3333 26.9 55.56 26.9C55.76 26.9 55.96 26.9 56.16 26.9C56.36 26.9 56.56 26.8933 56.76 26.88C56.9467 26.8667 57.2133 26.8467 57.56 26.82C57.9067 26.78 58.24 26.7267 58.56 26.66C58.88 26.5933 59.08 26.5133 59.16 26.42C59.2533 26.4067 59.34 26.4067 59.42 26.42C59.5 26.4333 59.58 26.4533 59.66 26.48C59.74 26.5067 59.8267 26.5333 59.92 26.56C60.0267 26.5733 60.1467 26.5667 60.28 26.54C60.4267 26.7133 60.6333 26.8533 60.9 26.96C61.1667 27.0533 61.42 27.1733 61.66 27.32C61.9 27.4533 62.0467 27.68 62.1 28ZM64.1 25.78C64.0067 25.8733 63.8933 25.96 63.76 26.04C63.64 26.1067 63.56 26.22 63.52 26.38C63.3333 26.38 63.18 26.4067 63.06 26.46C62.94 26.5 62.8 26.5667 62.64 26.66C62.4933 26.5533 62.3133 26.4867 62.1 26.46C61.9 26.4333 61.7067 26.3867 61.52 26.32C61.28 26.0133 61.1133 25.6867 61.02 25.34C60.94 24.9933 60.9467 24.6733 61.04 24.38C61.1333 24.06 61.3267 23.8 61.62 23.6C61.9267 23.3867 62.34 23.2933 62.86 23.32C63.3667 23.4533 63.7267 23.7467 63.94 24.2C64.1667 24.6533 64.22 25.18 64.1 25.78ZM63.06 24.6C62.8333 24.44 62.62 24.38 62.42 24.42C62.2867 24.46 62.1733 24.5467 62.08 24.68C62 24.8 61.96 24.92 61.96 25.04C61.96 25.2267 62.0467 25.3867 62.22 25.52C62.4067 25.64 62.6667 25.6067 63 25.42C63.08 25.3 63.1267 25.1667 63.14 25.02C63.1667 24.8733 63.14 24.7333 63.06 24.6ZM82.18 29.08C81.7267 29.1733 81.3933 29.4067 81.18 29.78C80.98 30.14 80.8333 30.5667 80.74 31.06C80.6467 31.5133 80.5733 31.9933 80.52 32.5C80.48 33.0067 80.3867 33.4667 80.24 33.88C80.1867 33.8533 80.16 33.7733 80.16 33.64C80.1733 33.4933 80.18 33.42 80.18 33.42C80.0733 33.6333 80.0133 33.86 80 34.1C80 34.3267 79.9867 34.5467 79.96 34.76C79.9467 34.9733 79.8667 35.1667 79.72 35.34C79.8267 35.4333 79.9467 35.5533 80.08 35.7C80.2133 35.8333 80.2867 35.9733 80.3 36.12C80.22 36.1867 80.1267 36.2267 80.02 36.24C79.9133 36.24 79.8067 36.24 79.7 36.24C79.58 36.24 79.4667 36.2467 79.36 36.26C79.2533 36.2733 79.16 36.32 79.08 36.4C78.32 36.2133 77.48 36.1333 76.56 36.16C75.6533 36.1867 74.7733 36.2267 73.92 36.28C73.7333 36.2933 73.5467 36.3067 73.36 36.32C73.1733 36.32 72.9933 36.3267 72.82 36.34C72.46 36.3533 72.1467 36.4 71.88 36.48C71.6133 36.5467 71.3667 36.7 71.14 36.94C70.86 36.7933 70.6333 36.5933 70.46 36.34C70.2867 36.0867 70.1133 35.8267 69.94 35.56C69.9133 35.4933 69.9267 35.4333 69.98 35.38C70.02 35.3267 70.04 35.2733 70.04 35.22C69.8933 34.22 69.7933 33.2 69.74 32.16C69.7 31.12 69.5867 30.1133 69.4 29.14C69.36 29.0733 69.3067 29.0067 69.24 28.94C69.1867 28.86 69.1267 28.7867 69.06 28.72C68.9133 28.56 68.78 28.3933 68.66 28.22C68.5533 28.0467 68.54 27.86 68.62 27.66C68.7667 27.6733 68.8733 27.7067 68.94 27.76C69.0067 27.8133 69.0933 27.84 69.2 27.84C69.32 27.84 69.4 27.8067 69.44 27.74C69.48 27.6733 69.5533 27.6333 69.66 27.62C70.18 27.5933 70.7267 27.5667 71.3 27.54C71.8867 27.5 72.3933 27.48 72.82 27.48C73.0733 27.48 73.3333 27.46 73.6 27.42C73.88 27.38 74.1667 27.3533 74.46 27.34C74.7667 27.3133 75.08 27.3 75.4 27.3C75.7333 27.3 76.0533 27.3067 76.36 27.32C76.8933 27.32 77.4067 27.3133 77.9 27.3C78.4067 27.2867 78.8533 27.22 79.24 27.1C79.7333 27.1667 80.24 27.2933 80.76 27.48C81.28 27.6533 81.74 27.9267 82.14 28.3C82.1933 28.38 82.22 28.4533 82.22 28.52C82.22 28.5867 82.2133 28.66 82.2 28.74C82.1867 28.78 82.1733 28.8333 82.16 28.9C82.16 28.9533 82.1667 29.0133 82.18 29.08ZM78.78 28.36C78.02 28.3467 77.2533 28.3533 76.48 28.38C75.7067 28.4067 74.9067 28.4533 74.08 28.52C73.5867 28.56 73.08 28.5867 72.56 28.6C72.04 28.6133 71.5467 28.72 71.08 28.92C71.04 28.9733 71.0333 29.02 71.06 29.06C71.0867 29.1 71.12 29.1333 71.16 29.16C71.2 29.2 71.2333 29.24 71.26 29.28C71.2867 29.3067 71.3 29.3467 71.3 29.4C71.2467 30.3467 71.2533 31.2533 71.32 32.12C71.3867 32.9867 71.4667 33.8533 71.56 34.72C71.56 34.8 71.56 34.88 71.56 34.96C71.5733 35.0267 71.5867 35.0933 71.6 35.16C72.1733 35.1067 72.76 35.0667 73.36 35.04C73.96 35 74.5467 34.9667 75.12 34.94C75.2533 34.94 75.3933 34.94 75.54 34.94C75.7 34.94 75.86 34.9467 76.02 34.96C76.38 34.9867 76.7533 35 77.14 35C77.5267 34.9867 77.9067 34.9133 78.28 34.78C78.2933 34.58 78.3133 34.3867 78.34 34.2C78.38 34.0133 78.4133 33.8267 78.44 33.64C78.4933 33.3333 78.54 33.02 78.58 32.7C78.62 32.38 78.6333 32.0467 78.62 31.7C78.7667 31.1933 78.8667 30.64 78.92 30.04C78.9733 29.4267 78.9267 28.8667 78.78 28.36ZM80.18 34.02C80.26 34.0333 80.2733 34.1533 80.22 34.38C80.18 34.6067 80.1267 34.7933 80.06 34.94C80.06 34.94 80.06 34.88 80.06 34.76C80.0733 34.6267 80.0867 34.4867 80.1 34.34C80.1267 34.18 80.1533 34.0733 80.18 34.02ZM102.54 28.24C102.54 28.28 102.533 28.3267 102.52 28.38C102.507 28.42 102.487 28.46 102.46 28.5C102.407 28.62 102.413 28.6867 102.48 28.7C102.48 28.9267 102.347 29.16 102.08 29.4C101.827 29.6267 101.607 29.8667 101.42 30.12C101.407 30.1333 101.407 30.1733 101.42 30.24C101.433 30.2933 101.433 30.3333 101.42 30.36C101.393 30.4 101.347 30.44 101.28 30.48C101.227 30.5067 101.18 30.5467 101.14 30.6C101.007 30.8 100.833 31.0467 100.62 31.34C100.407 31.6333 100.147 31.8533 99.84 32C99.6667 32.3733 99.4133 32.68 99.08 32.92C98.76 33.16 98.4467 33.4067 98.14 33.66C97.4733 34.2067 96.74 34.7667 95.94 35.34C95.14 35.9 94.32 36.38 93.48 36.78C93.1067 36.9667 92.74 37.1333 92.38 37.28C92.0333 37.4133 91.7333 37.6733 91.48 38.06C91.1867 37.94 90.8667 37.6933 90.52 37.32C90.1733 36.9467 89.8667 36.52 89.6 36.04C89.3333 35.5467 89.18 35.08 89.14 34.64C89.5933 34.76 90.0067 34.9133 90.38 35.1C90.7667 35.2867 91.1533 35.4733 91.54 35.66C93.1 34.9133 94.5467 34.0533 95.88 33.08C97.2267 32.1067 98.4933 31.0667 99.68 29.96L99.84 30C100.16 29.5333 100.547 29.1 101 28.7C101.453 28.2867 101.853 27.82 102.2 27.3C102.32 27.3933 102.34 27.52 102.26 27.68C102.18 27.84 102.093 27.9933 102 28.14C101.96 28.1933 101.927 28.2467 101.9 28.3C101.873 28.34 101.853 28.38 101.84 28.42C101.88 28.4733 101.92 28.4533 101.96 28.36C101.987 28.3067 102.013 28.26 102.04 28.22C102.08 28.18 102.133 28.1667 102.2 28.18C102.187 28.3 102.213 28.3533 102.28 28.34C102.36 28.3267 102.447 28.2933 102.54 28.24ZM93.08 28.7C93.0667 28.9133 92.9933 29.0533 92.86 29.12C92.7267 29.1733 92.6067 29.2533 92.5 29.36C91.9667 29.2133 91.5133 28.9667 91.14 28.62C90.78 28.26 90.4733 27.86 90.22 27.42C89.98 26.9667 89.76 26.5333 89.56 26.12C89.92 26.2 90.3 26.3 90.7 26.42C91.1133 26.5267 91.4933 26.68 91.84 26.88C92.2 27.0667 92.4933 27.3067 92.72 27.6C92.9467 27.8933 93.0667 28.26 93.08 28.7ZM121.42 32.64C121.367 32.76 121.28 32.8467 121.16 32.9C121.053 32.9533 120.96 33.0267 120.88 33.12C120.44 33.24 120.007 33.2067 119.58 33.02C119.167 32.82 118.773 32.6133 118.4 32.4C118.32 32.36 118.24 32.32 118.16 32.28C118.08 32.2267 118.007 32.18 117.94 32.14C117.54 31.9267 117.14 31.7267 116.74 31.54C116.353 31.3533 115.927 31.1667 115.46 30.98C115.38 31.14 115.34 31.3533 115.34 31.62C115.34 31.8867 115.347 32.1733 115.36 32.48C115.373 32.6533 115.38 32.8267 115.38 33C115.393 33.16 115.393 33.32 115.38 33.48C115.38 33.4933 115.353 33.5267 115.3 33.58C115.26 33.6333 115.24 33.6733 115.24 33.7C115.24 33.74 115.273 33.7933 115.34 33.86C115.407 33.9267 115.44 33.9733 115.44 34C115.467 34.16 115.473 34.38 115.46 34.66C115.46 34.94 115.453 35.22 115.44 35.5C115.427 35.6467 115.413 35.7867 115.4 35.92C115.4 36.0533 115.4 36.1733 115.4 36.28C115.4 36.7867 115.4 37.28 115.4 37.76C115.413 38.2267 115.427 38.6867 115.44 39.14C115.307 39.2467 115.113 39.2867 114.86 39.26C114.607 39.2333 114.42 39.1733 114.3 39.08C114.247 38.84 114.14 38.64 113.98 38.48C113.833 38.3067 113.693 38.14 113.56 37.98C113.44 37.82 113.373 37.6267 113.36 37.4C113.36 37.28 113.393 37.1867 113.46 37.12C113.527 37.04 113.573 36.9467 113.6 36.84C113.653 36.6267 113.673 36.4067 113.66 36.18C113.66 35.94 113.647 35.6867 113.62 35.42C113.607 35.1933 113.593 34.96 113.58 34.72C113.567 34.48 113.573 34.2333 113.6 33.98C113.667 33.98 113.693 34.0267 113.68 34.12C113.667 34.2 113.66 34.24 113.66 34.24C113.78 34.2 113.827 34.0867 113.8 33.9C113.773 33.7 113.707 33.6067 113.6 33.62C113.587 33.5267 113.58 33.3467 113.58 33.08C113.593 32.8133 113.593 32.5867 113.58 32.4C113.647 32.2667 113.673 32.06 113.66 31.78C113.66 31.4867 113.64 31.2 113.6 30.92C113.56 30.6267 113.513 30.4333 113.46 30.34C113.473 30.3267 113.493 30.3133 113.52 30.3C113.587 30.2733 113.613 30.2267 113.6 30.16C113.533 29.7867 113.507 29.4133 113.52 29.04C113.547 28.6667 113.573 28.3 113.6 27.94C113.64 27.5267 113.66 27.1267 113.66 26.74C113.673 26.34 113.62 25.96 113.5 25.6C113.46 25.48 113.38 25.3533 113.26 25.22C113.14 25.0867 113.007 24.9533 112.86 24.82C112.687 24.6467 112.52 24.4733 112.36 24.3C112.213 24.1133 112.14 23.9333 112.14 23.76C112.393 23.7733 112.7 23.8067 113.06 23.86C113.433 23.9 113.807 23.9733 114.18 24.08C114.553 24.1867 114.873 24.3267 115.14 24.5C115.42 24.6733 115.593 24.8933 115.66 25.16C115.7 25.3067 115.707 25.4733 115.68 25.66C115.653 25.8333 115.62 26.0067 115.58 26.18C115.567 26.26 115.547 26.34 115.52 26.42C115.507 26.5 115.5 26.5733 115.5 26.64C115.447 27.1733 115.427 27.6533 115.44 28.08C115.453 28.5067 115.433 29.0333 115.38 29.66C115.82 29.8333 116.3 29.9667 116.82 30.06C117.34 30.1533 117.86 30.2467 118.38 30.34C118.913 30.42 119.393 30.5533 119.82 30.74C120.127 31.0867 120.413 31.3933 120.68 31.66C120.96 31.9133 121.207 32.24 121.42 32.64ZM143.88 39.58C143.48 39.6867 143.1 39.6933 142.74 39.6C142.38 39.52 142.047 39.3667 141.74 39.14C141.3 38.8067 140.893 38.3867 140.52 37.88C140.16 37.36 139.84 36.8267 139.56 36.28C139.28 35.72 139.033 35.2333 138.82 34.82C138.527 34.9933 138.28 35.16 138.08 35.32C137.88 35.4667 137.68 35.6333 137.48 35.82C137.293 35.9933 137.053 36.22 136.76 36.5C136.72 36.4067 136.653 36.36 136.56 36.36C136.493 36.3733 136.487 36.4067 136.54 36.46C136.58 36.4733 136.613 36.4933 136.64 36.52C136.667 36.5467 136.667 36.5867 136.64 36.64C136.6 36.6533 136.553 36.68 136.5 36.72C136.447 36.76 136.393 36.7867 136.34 36.8C136.3 36.8133 136.24 36.7867 136.16 36.72C136.08 36.7333 136.067 36.7733 136.12 36.84C136.16 36.8933 136.173 36.94 136.16 36.98C136.107 36.9933 136.053 36.98 136 36.94C135.947 36.9 135.887 36.8933 135.82 36.92C135.82 36.9733 135.847 37.0067 135.9 37.02C135.953 37.0333 135.98 37.04 135.98 37.04C135.767 37.1733 135.54 37.3133 135.3 37.46C135.06 37.5933 134.747 37.74 134.36 37.9C134.187 37.82 134.04 37.7733 133.92 37.76C133.813 37.7467 133.713 37.7467 133.62 37.76C133.527 37.76 133.44 37.7533 133.36 37.74C133.293 37.7267 133.207 37.7 133.1 37.66C133.113 37.6467 133.133 37.6333 133.16 37.62C133.333 37.4733 133.527 37.3467 133.74 37.24C133.953 37.12 134.18 37.1133 134.42 37.22C134.407 37.1133 134.353 37.0533 134.26 37.04C134.167 37.0267 134.12 37.02 134.12 37.02C134.96 36.5133 135.693 35.9333 136.32 35.28C136.947 34.6267 137.567 33.9333 138.18 33.2C138.087 32.8133 137.993 32.4267 137.9 32.04C137.807 31.6533 137.687 31.2933 137.54 30.96C137.113 31.0667 136.673 31.14 136.22 31.18C135.78 31.22 135.367 31.0733 134.98 30.74C134.847 31.0067 134.76 31.2933 134.72 31.6C134.693 31.8933 134.653 32.1867 134.6 32.48C134.56 32.76 134.453 33.02 134.28 33.26C133.907 33.1667 133.52 33.0933 133.12 33.04C132.72 32.9867 132.3 33.0067 131.86 33.1C131.873 33.3 131.88 33.5 131.88 33.7C131.893 33.8867 131.893 34.0533 131.88 34.2C132.64 34.04 133.38 33.98 134.1 34.02C134.833 34.0467 135.467 34.3067 136 34.8C136.027 34.8933 136.02 34.9667 135.98 35.02C135.953 35.06 135.92 35.1 135.88 35.14C135.867 35.1533 135.86 35.16 135.86 35.16C135.3 35.1467 134.687 35.1467 134.02 35.16C133.367 35.1733 132.7 35.1933 132.02 35.22C131.94 35.4333 131.907 35.7133 131.92 36.06C131.947 36.4067 131.98 36.78 132.02 37.18C132.073 37.5933 132.113 38.0133 132.14 38.44C132.167 38.8667 132.133 39.2467 132.04 39.58C132 39.7133 131.933 39.82 131.84 39.9C131.747 39.98 131.66 40.06 131.58 40.14C131.287 39.94 131.033 39.7 130.82 39.42C130.607 39.14 130.467 38.7733 130.4 38.32C130.56 38.0667 130.647 37.7467 130.66 37.36C130.687 36.96 130.693 36.5467 130.68 36.12C130.68 35.9733 130.68 35.8333 130.68 35.7C130.68 35.5667 130.68 35.4333 130.68 35.3C130.453 35.26 130.2 35.26 129.92 35.3C129.653 35.34 129.387 35.3867 129.12 35.44C128.907 35.48 128.7 35.52 128.5 35.56C128.3 35.5867 128.133 35.5867 128 35.56C127.907 35.5733 127.84 35.62 127.8 35.7C127.76 35.7667 127.693 35.8133 127.6 35.84C127.333 35.76 127.053 35.6933 126.76 35.64C126.48 35.5733 126.22 35.4733 125.98 35.34C125.753 35.2067 125.587 35 125.48 34.72C126.28 34.6133 127.16 34.52 128.12 34.44C129.093 34.36 129.967 34.3067 130.74 34.28L130.72 33.26C130.573 33.2467 130.42 33.2467 130.26 33.26C130.113 33.26 129.967 33.2667 129.82 33.28C129.353 33.2933 128.92 33.2733 128.52 33.22C128.133 33.1533 127.847 32.8867 127.66 32.42C127.793 32.2467 127.887 31.9933 127.94 31.66C127.993 31.3133 127.987 30.98 127.92 30.66C127.853 30.3267 127.713 30.1 127.5 29.98C127.513 29.9 127.567 29.88 127.66 29.92C127.767 29.96 127.82 29.98 127.82 29.98C127.847 29.4733 127.753 29.1 127.54 28.86C127.327 28.6067 127.087 28.38 126.82 28.18C126.753 28.1267 126.687 28.08 126.62 28.04C126.567 27.9867 126.507 27.9333 126.44 27.88C126.787 27.7867 127.06 27.7067 127.26 27.64C127.473 27.56 127.667 27.4067 127.84 27.18C128.333 27.1533 128.887 27.12 129.5 27.08C130.127 27.04 130.74 27 131.34 26.96C131.953 26.9067 132.473 26.88 132.9 26.88C133.167 26.48 133.42 26.0733 133.66 25.66C133.913 25.2333 134.16 24.8133 134.4 24.4C134.387 24.36 134.367 24.32 134.34 24.28C134.313 24.2267 134.287 24.18 134.26 24.14C134.193 24.0467 134.133 23.94 134.08 23.82C134.04 23.7 134.027 23.5533 134.04 23.38C134.36 23.46 134.66 23.56 134.94 23.68C135.233 23.8 135.48 23.9667 135.68 24.18C135.88 24.38 135.993 24.6733 136.02 25.06C135.647 25.2733 135.293 25.5133 134.96 25.78C134.64 26.0333 134.307 26.28 133.96 26.52C134.333 26.5467 134.7 26.6067 135.06 26.7C135.42 26.7933 135.74 26.94 136.02 27.14C136.3 27.34 136.5 27.62 136.62 27.98C136.193 28.1133 135.833 28.3133 135.54 28.58C135.247 28.8333 135.073 29.2133 135.02 29.72C135.287 29.7733 135.573 29.7933 135.88 29.78C136.187 29.7533 136.487 29.72 136.78 29.68C136.887 29.6667 136.987 29.6533 137.08 29.64C137.187 29.6267 137.287 29.6133 137.38 29.6C137.233 28.6933 137.113 27.86 137.02 27.1C136.94 26.34 136.787 25.6133 136.56 24.92C136.4 24.7333 136.24 24.5 136.08 24.22C135.933 23.94 135.86 23.6733 135.86 23.42C136.247 23.42 136.627 23.5133 137 23.7C137.387 23.8733 137.74 24.1133 138.06 24.42C138.38 24.7267 138.627 25.06 138.8 25.42C138.573 25.8733 138.447 26.3733 138.42 26.92C138.407 27.4667 138.413 28.1333 138.44 28.92C138.44 28.9733 138.44 29.0333 138.44 29.1C138.453 29.1667 138.46 29.2333 138.46 29.3C138.607 29.42 138.74 29.46 138.86 29.42C138.98 29.38 139.1 29.32 139.22 29.24C139.3 29.1867 139.38 29.14 139.46 29.1C139.553 29.0467 139.647 29.02 139.74 29.02C139.847 29.02 140 29.06 140.2 29.14C140.4 29.2067 140.56 29.2733 140.68 29.34C140.867 29.4333 141.047 29.56 141.22 29.72C141.393 29.88 141.507 30.02 141.56 30.14C141.36 30.3133 141.1 30.4267 140.78 30.48C140.473 30.5333 140.133 30.5733 139.76 30.6C139.4 30.6267 139.04 30.6933 138.68 30.8C138.72 30.96 138.753 31.1333 138.78 31.32C138.82 31.5067 138.86 31.6733 138.9 31.82C139.087 31.7933 139.187 31.6933 139.2 31.52C139.227 31.3333 139.213 31.16 139.16 31C139.64 30.8533 140.047 30.9333 140.38 31.24C140.727 31.5333 140.913 31.9467 140.94 32.48C140.687 32.64 140.447 32.8133 140.22 33C140.007 33.1733 139.827 33.3933 139.68 33.66C139.667 34.02 139.78 34.4467 140.02 34.94C140.26 35.42 140.56 35.8867 140.92 36.34C141.293 36.7933 141.667 37.1533 142.04 37.42C142.107 37.38 142.173 37.36 142.24 37.36C142.36 37.16 142.433 36.9133 142.46 36.62C142.487 36.3133 142.493 35.9867 142.48 35.64C142.48 35.48 142.473 35.28 142.46 35.04C142.46 34.8 142.453 34.5933 142.44 34.42C142.44 34.2333 142.44 34.14 142.44 34.14C142.68 34.6067 142.94 35.14 143.22 35.74C143.5 36.3267 143.707 36.9333 143.84 37.56C144 38.2667 144.013 38.94 143.88 39.58ZM133.44 27.62C133.333 27.5933 133.207 27.5867 133.06 27.6C132.927 27.6133 132.78 27.6267 132.62 27.64C132.447 27.6667 132.28 27.6867 132.12 27.7C131.96 27.7133 131.813 27.7 131.68 27.66C131.787 27.9533 131.84 28.24 131.84 28.52C131.853 28.8 131.88 29.06 131.92 29.3C131.96 29.5267 132.053 29.7267 132.2 29.9C132.347 30.0733 132.573 30.2067 132.88 30.3C132.747 30.3533 132.58 30.38 132.38 30.38C132.193 30.38 132.027 30.4 131.88 30.44C131.907 30.56 131.913 30.6933 131.9 30.84C131.9 30.9867 131.9 31.14 131.9 31.3C131.887 31.4467 131.88 31.6 131.88 31.76C131.88 31.9067 131.887 32.06 131.9 32.22C132.087 32.1533 132.3 32.1067 132.54 32.08C132.793 32.0533 133.007 32.0933 133.18 32.2C133.34 31.48 133.427 30.7667 133.44 30.06C133.467 29.34 133.467 28.5267 133.44 27.62ZM142.28 28.5C142.013 28.5267 141.78 28.5 141.58 28.42C141.393 28.34 141.227 28.2267 141.08 28.08C140.827 27.8133 140.62 27.48 140.46 27.08C140.3 26.68 140.127 26.3 139.94 25.94C139.9 25.86 139.853 25.7933 139.8 25.74C139.747 25.6733 139.7 25.62 139.66 25.58C139.593 25.5133 139.54 25.4467 139.5 25.38C139.473 25.3133 139.48 25.2067 139.52 25.06C139.96 25.3 140.433 25.5467 140.94 25.8C141.447 26.0533 141.827 26.4 142.08 26.84C142.2 27.0533 142.28 27.3 142.32 27.58C142.36 27.8467 142.347 28.1533 142.28 28.5ZM129.6 26.8C129.413 26.8933 129.24 26.94 129.08 26.94C128.92 26.9267 128.767 26.8933 128.62 26.84C128.367 26.72 128.133 26.5267 127.92 26.26C127.707 25.9933 127.493 25.7533 127.28 25.54C127.32 25.3267 127.32 25.16 127.28 25.04C127.24 24.9067 127.18 24.78 127.1 24.66C127.087 24.62 127.067 24.58 127.04 24.54C127.027 24.4867 127.007 24.44 126.98 24.4C127.407 24.52 127.8 24.6733 128.16 24.86C128.533 25.0467 128.847 25.2933 129.1 25.6C129.367 25.8933 129.533 26.2933 129.6 26.8ZM132.34 26.14C131.833 26.14 131.433 26.02 131.14 25.78C130.847 25.5267 130.613 25.2067 130.44 24.82C130.28 24.4333 130.133 24.0267 130 23.6C130.413 23.7333 130.813 23.9067 131.2 24.12C131.587 24.32 131.893 24.58 132.12 24.9C132.347 25.22 132.42 25.6333 132.34 26.14ZM130.76 32.18C130.733 32.0733 130.72 31.9733 130.72 31.88C130.72 31.7733 130.72 31.6733 130.72 31.58C130.72 31.42 130.713 31.26 130.7 31.1C130.7 30.9267 130.667 30.74 130.6 30.54C130.307 30.54 130.033 30.5533 129.78 30.58C129.527 30.6067 129.307 30.6667 129.12 30.76C129.147 30.8533 129.16 30.9667 129.16 31.1C129.16 31.22 129.16 31.3467 129.16 31.48C129.147 31.64 129.14 31.8 129.14 31.96C129.153 32.1067 129.18 32.2333 129.22 32.34C129.327 32.34 129.427 32.34 129.52 32.34C129.613 32.3267 129.7 32.32 129.78 32.32C129.98 32.32 130.147 32.3133 130.28 32.3C130.427 32.2867 130.587 32.2467 130.76 32.18ZM130.58 29.52C130.54 29.1867 130.5 28.9 130.46 28.66C130.42 28.42 130.387 28.16 130.36 27.88C129.773 27.8667 129.373 27.9733 129.16 28.2C129.027 28.36 128.96 28.5733 128.96 28.84C128.96 29.0933 128.987 29.3933 129.04 29.74C129.32 29.7133 129.587 29.6867 129.84 29.66C130.093 29.62 130.34 29.5733 130.58 29.52ZM164.06 24.58C163.9 24.78 163.68 24.9267 163.4 25.02C163.133 25.1133 162.887 25.2267 162.66 25.36C162.567 25.6133 162.467 25.8933 162.36 26.2C162.267 26.4933 162.207 26.7933 162.18 27.1C162.167 27.26 162.16 27.4267 162.16 27.6C162.173 27.76 162.187 27.9267 162.2 28.1C162.213 28.3933 162.22 28.6733 162.22 28.94C162.22 29.1933 162.16 29.4067 162.04 29.58C162.12 30.02 162.18 30.42 162.22 30.78C162.26 31.14 162.287 31.52 162.3 31.92C162.327 32.32 162.353 32.8 162.38 33.36C162.393 33.52 162.4 33.6867 162.4 33.86C162.413 34.0333 162.427 34.2133 162.44 34.4C162.48 35.12 162.513 35.8533 162.54 36.6C162.567 37.3333 162.56 37.98 162.52 38.54C162.493 38.9133 162.42 39.2067 162.3 39.42C162.18 39.6333 162.047 39.8933 161.9 40.2C161.367 40.2133 160.94 40.1733 160.62 40.08C160.3 40 159.98 39.8733 159.66 39.7C159.527 39.62 159.413 39.5067 159.32 39.36C159.24 39.2267 159.147 39.1267 159.04 39.06C158.92 38.98 158.767 38.92 158.58 38.88C158.407 38.84 158.26 38.7733 158.14 38.68C158.033 38.5867 157.947 38.4933 157.88 38.4C157.827 38.2933 157.707 38.22 157.52 38.18C157.507 38.1133 157.553 38.0667 157.66 38.04C157.74 38.0267 157.78 38.0067 157.78 37.98C157.327 37.7533 156.927 37.4733 156.58 37.14C156.247 36.8067 155.86 36.5267 155.42 36.3C155.42 36.3 155.533 36.3067 155.76 36.32C156 36.3333 156.267 36.34 156.56 36.34C156.853 36.3267 157.073 36.2933 157.22 36.24C157.367 36.04 157.44 35.8 157.44 35.52C157.44 35.24 157.433 34.9467 157.42 34.64C157.407 34.4933 157.393 34.3467 157.38 34.2C157.38 34.04 157.38 33.8867 157.38 33.74C157.06 33.8333 156.747 33.8533 156.44 33.8C156.147 33.7333 155.873 33.6467 155.62 33.54C155.553 33.6733 155.467 33.8467 155.36 34.06C155.267 34.26 155.187 34.4533 155.12 34.64C155.067 34.8 155.04 34.9467 155.04 35.08C155.053 35.2133 155.107 35.32 155.2 35.4C155.093 35.5467 155 35.72 154.92 35.92C154.853 36.1067 154.76 36.2733 154.64 36.42C154.76 36.5 154.887 36.58 155.02 36.66C155.167 36.7267 155.3 36.8 155.42 36.88C155.38 37.12 155.22 37.26 154.94 37.3C154.66 37.34 154.367 37.36 154.06 37.36C153.94 37.36 153.82 37.36 153.7 37.36C153.593 37.36 153.493 37.3667 153.4 37.38C153.293 37.3933 153.187 37.4133 153.08 37.44C152.973 37.4533 152.86 37.4733 152.74 37.5C152.553 37.54 152.36 37.58 152.16 37.62C151.973 37.6467 151.787 37.6533 151.6 37.64C151.227 37.6 150.9 37.48 150.62 37.28C150.34 37.0667 150.08 36.8933 149.84 36.76C149.84 36.76 149.953 36.7533 150.18 36.74C150.407 36.7267 150.66 36.7067 150.94 36.68C151.22 36.64 151.44 36.6 151.6 36.56C151.493 36.4267 151.4 36.2333 151.32 35.98C151.253 35.7267 151.173 35.4733 151.08 35.22C150.987 34.9533 150.847 34.76 150.66 34.64C150.687 34.5867 150.747 34.56 150.84 34.56C150.947 34.5467 151.007 34.5067 151.02 34.44C151.007 34.4 150.993 34.3467 150.98 34.28C150.953 34.08 150.927 33.8867 150.9 33.7C150.873 33.5 150.867 33.28 150.88 33.04C150.747 32.9733 150.593 32.9133 150.42 32.86C150.26 32.8067 150.113 32.74 149.98 32.66C150.007 32.62 150.04 32.5933 150.08 32.58C150.133 32.5533 150.187 32.5333 150.24 32.52C150.333 32.5067 150.413 32.4867 150.48 32.46C150.547 32.42 150.567 32.34 150.54 32.22C150.873 32.2333 151.207 32.2267 151.54 32.2C151.887 32.16 152.233 32.1133 152.58 32.06C152.887 32.02 153.187 31.9867 153.48 31.96C153.787 31.9333 154.08 31.92 154.36 31.92C154.707 31.92 155.033 31.96 155.34 32.04C155.647 32.1067 155.927 32.2467 156.18 32.46C156.207 32.54 156.207 32.5933 156.18 32.62C156.167 32.6467 156.147 32.6733 156.12 32.7C156.067 32.74 156.04 32.7867 156.04 32.84C156.12 32.9333 156.227 32.9733 156.36 32.96C156.507 32.9467 156.653 32.9267 156.8 32.9C156.88 32.8867 156.96 32.8733 157.04 32.86C157.133 32.8333 157.22 32.8267 157.3 32.84C157.353 32.4267 157.333 32.08 157.24 31.8C157.16 31.52 157.06 31.2533 156.94 31C156.887 30.8933 156.833 30.78 156.78 30.66C156.74 30.54 156.7 30.42 156.66 30.3C157.06 30.38 157.433 30.4933 157.78 30.64C158.14 30.7733 158.407 30.9733 158.58 31.24C158.7 31.4133 158.773 31.62 158.8 31.86C158.827 32.0867 158.787 32.3533 158.68 32.66C158.76 32.78 158.88 32.8533 159.04 32.88C159.2 32.9067 159.353 32.9533 159.5 33.02C159.647 33.0733 159.747 33.2067 159.8 33.42C159.747 33.5267 159.647 33.5867 159.5 33.6C159.353 33.6133 159.2 33.62 159.04 33.62C159 33.62 158.953 33.62 158.9 33.62C158.847 33.62 158.8 33.62 158.76 33.62C158.707 33.9133 158.68 34.2133 158.68 34.52C158.693 34.8133 158.713 35.1133 158.74 35.42C158.753 35.58 158.767 35.74 158.78 35.9C158.793 36.06 158.8 36.2133 158.8 36.36C158.8 36.68 158.76 36.98 158.68 37.26C158.6 37.5267 158.44 37.74 158.2 37.9C158.2 37.9 158.313 37.9133 158.54 37.94C158.767 37.9667 159.047 38 159.38 38.04C159.713 38.08 160.04 38.1267 160.36 38.18C160.627 37.2867 160.773 36.28 160.8 35.16C160.84 34.0267 160.853 32.88 160.84 31.72C160.84 31.5867 160.84 31.4533 160.84 31.32C160.84 31.1867 160.84 31.0533 160.84 30.92C160.84 30.4667 160.82 30.0067 160.78 29.54C160.74 29.0733 160.7 28.6 160.66 28.12C160.607 27.5333 160.56 26.9467 160.52 26.36C160.48 25.76 160.473 25.1667 160.5 24.58C160.287 24.5933 160.073 24.6 159.86 24.6C159.647 24.6 159.44 24.6067 159.24 24.62C158.813 24.62 158.407 24.6333 158.02 24.66C157.633 24.6733 157.273 24.7333 156.94 24.84C156.9 24.96 156.88 25.08 156.88 25.2C156.893 25.3067 156.907 25.42 156.92 25.54C156.933 25.6333 156.94 25.7333 156.94 25.84C156.953 25.9333 156.953 26.0333 156.94 26.14C157.54 26.0333 158.107 26.04 158.64 26.16C159.187 26.2667 159.6 26.5333 159.88 26.96C159.76 27.0133 159.567 27.06 159.3 27.1C159.047 27.14 158.76 27.1667 158.44 27.18C158.12 27.18 157.82 27.1733 157.54 27.16C157.273 27.1467 157.073 27.1267 156.94 27.1C156.953 27.26 156.953 27.4133 156.94 27.56C156.94 27.7067 156.933 27.8467 156.92 27.98C156.907 28.0867 156.893 28.2 156.88 28.32C156.88 28.4267 156.88 28.5467 156.88 28.68C157.347 28.64 157.8 28.6267 158.24 28.64C158.693 28.64 159.1 28.7067 159.46 28.84C159.82 28.96 160.1 29.1867 160.3 29.52C160.087 29.5867 159.76 29.6267 159.32 29.64C158.893 29.64 158.46 29.64 158.02 29.64C157.7 29.64 157.393 29.6467 157.1 29.66C156.807 29.66 156.573 29.6733 156.4 29.7C156.227 29.5133 156.027 29.36 155.8 29.24C155.587 29.1067 155.387 28.9667 155.2 28.82C155.36 28.6333 155.447 28.4133 155.46 28.16C155.487 27.9067 155.493 27.6467 155.48 27.38C155.467 27.22 155.46 27.06 155.46 26.9C155.46 26.74 155.473 26.5867 155.5 26.44L155.36 26.32C155.453 26.2533 155.507 26.1333 155.52 25.96C155.533 25.7867 155.527 25.6067 155.5 25.42C155.473 25.22 155.447 25.0733 155.42 24.98C155.287 24.8333 155.113 24.7267 154.9 24.66C154.687 24.5933 154.513 24.4867 154.38 24.34C154.487 24.2867 154.613 24.2533 154.76 24.24C154.907 24.2267 154.987 24.1533 155 24.02C155.627 23.86 156.293 23.7667 157 23.74C157.707 23.7 158.407 23.6667 159.1 23.64C159.807 23.6133 160.46 23.5467 161.06 23.44C161.593 23.6133 162.093 23.8067 162.56 24.02C163.04 24.22 163.54 24.4067 164.06 24.58ZM155 24.98C154.973 25.1667 154.9 25.3 154.78 25.38C154.66 25.4467 154.52 25.4933 154.36 25.52C154.213 25.5467 154.067 25.5867 153.92 25.64C153.787 25.68 153.68 25.78 153.6 25.94C153.64 26.6333 153.62 27.2867 153.54 27.9C153.46 28.5 153.32 29.1267 153.12 29.78C153.04 29.8067 152.993 29.8 152.98 29.76C152.98 29.72 152.98 29.6733 152.98 29.62C152.98 29.58 152.98 29.5467 152.98 29.52C152.927 29.5333 152.9 29.6067 152.9 29.74C152.913 29.86 152.893 29.9333 152.84 29.96C152.547 29.96 152.253 29.98 151.96 30.02C151.667 30.06 151.38 30.1 151.1 30.14C150.767 30.1933 150.433 30.24 150.1 30.28C149.78 30.32 149.46 30.3267 149.14 30.3C149.087 30.8333 149.06 31.3867 149.06 31.96C149.06 32.52 149.06 33.0933 149.06 33.68C149.087 34.52 149.087 35.3667 149.06 36.22C149.047 37.06 148.953 37.9 148.78 38.74C148.767 38.8333 148.733 38.94 148.68 39.06C148.627 39.1933 148.507 39.2733 148.32 39.3C148.187 39.22 148.053 39.1467 147.92 39.08C147.787 39.0267 147.613 38.9333 147.4 38.8C147.373 38.5867 147.3 38.3733 147.18 38.16C147.06 37.9333 146.993 37.76 146.98 37.64C147.167 37.4533 147.28 37.2533 147.32 37.04C147.36 36.8267 147.387 36.6133 147.4 36.4C147.427 36.1733 147.5 35.9733 147.62 35.8C147.607 35.3467 147.607 34.9133 147.62 34.5C147.647 34.0733 147.673 33.66 147.7 33.26C147.74 32.6467 147.76 32.06 147.76 31.5C147.773 30.9267 147.707 30.3533 147.56 29.78C147.653 29.3 147.7 28.8067 147.7 28.3C147.7 27.7933 147.64 27.3133 147.52 26.86C147.413 26.4333 147.24 26.06 147 25.74C146.773 25.4067 146.467 25.1733 146.08 25.04C146.147 24.9333 146.26 24.8733 146.42 24.86C146.58 24.8333 146.747 24.8267 146.92 24.84C147 24.8 147 24.7467 146.92 24.68C146.84 24.6 146.84 24.5467 146.92 24.52C147.453 24.3733 148.027 24.2667 148.64 24.2C149.253 24.1333 149.873 24.0733 150.5 24.02C151.127 23.9667 151.72 23.88 152.28 23.76C152.733 23.9067 153.18 24.0933 153.62 24.32C154.073 24.5467 154.533 24.7667 155 24.98ZM151.92 26.82C151.92 26.74 151.92 26.66 151.92 26.58C151.92 26.5 151.92 26.4133 151.92 26.32C151.92 26.0533 151.907 25.7933 151.88 25.54C151.853 25.2733 151.76 25.06 151.6 24.9C151.227 24.9667 150.833 25.02 150.42 25.06C150.02 25.1 149.633 25.16 149.26 25.24C148.9 25.3067 148.587 25.4267 148.32 25.6C148.373 25.6533 148.427 25.7067 148.48 25.76C148.547 25.8 148.607 25.84 148.66 25.88C148.807 25.9733 148.94 26.0867 149.06 26.22C149.18 26.34 149.233 26.52 149.22 26.76C149.807 26.6133 150.333 26.6 150.8 26.72C151.267 26.8267 151.62 27.0733 151.86 27.46C151.38 27.58 150.953 27.6867 150.58 27.78C150.207 27.86 149.727 27.9067 149.14 27.92C149.14 28.0133 149.133 28.1 149.12 28.18C149.12 28.26 149.12 28.3467 149.12 28.44C149.107 28.6 149.1 28.76 149.1 28.92C149.1 29.0667 149.113 29.22 149.14 29.38C149.58 29.34 150.033 29.3133 150.5 29.3C150.967 29.2733 151.42 29.24 151.86 29.2C151.913 28.8267 151.94 28.4333 151.94 28.02C151.953 27.6067 151.947 27.2067 151.92 26.82ZM155.06 31.36C154.953 31.3733 154.84 31.3867 154.72 31.4C154.6 31.4133 154.467 31.4267 154.32 31.44C153.987 31.4933 153.62 31.54 153.22 31.58C152.833 31.62 152.467 31.6133 152.12 31.56C151.827 31.52 151.567 31.44 151.34 31.32C151.113 31.2 150.94 31.0267 150.82 30.8C151.193 30.72 151.607 30.68 152.06 30.68C152.513 30.6667 152.887 30.6 153.18 30.48C153.38 30.4 153.6 30.3933 153.84 30.46C154.08 30.5267 154.313 30.6467 154.54 30.82C154.767 30.98 154.94 31.16 155.06 31.36ZM154.1 32.84C153.727 32.8267 153.387 32.8467 153.08 32.9C152.773 32.94 152.473 32.9933 152.18 33.06C152.14 33.0733 152.093 33.0867 152.04 33.1C152 33.1 151.96 33.1067 151.92 33.12C152.027 33.2533 152.093 33.4267 152.12 33.64C152.147 33.8533 152.153 34.08 152.14 34.32C152.3 34.3333 152.44 34.3333 152.56 34.32C152.693 34.3067 152.82 34.2933 152.94 34.28C153.087 34.2667 153.233 34.26 153.38 34.26C153.54 34.26 153.727 34.28 153.94 34.32C154.06 33.88 154.113 33.3867 154.1 32.84ZM156.94 35.86C156.687 35.8733 156.44 35.8133 156.2 35.68C155.96 35.5333 155.767 35.3533 155.62 35.14C155.527 34.9933 155.467 34.8267 155.44 34.64C155.427 34.4533 155.467 34.2667 155.56 34.08C155.6 34.0933 155.66 34.1267 155.74 34.18C155.953 34.2867 156.167 34.4133 156.38 34.56C156.607 34.6933 156.773 34.8667 156.88 35.08C157 35.2933 157.02 35.5533 156.94 35.86ZM153.8 35.1C153.28 35.2067 152.813 35.2533 152.4 35.24C151.987 35.2267 151.78 35.22 151.78 35.22C152.047 35.3133 152.233 35.4733 152.34 35.7C152.447 35.9267 152.54 36.1667 152.62 36.42C152.713 36.4333 152.793 36.44 152.86 36.44C152.94 36.4267 153.013 36.4133 153.08 36.4C153.147 36.3867 153.207 36.38 153.26 36.38C153.327 36.3667 153.4 36.36 153.48 36.36C153.547 36.16 153.607 35.96 153.66 35.76C153.727 35.56 153.773 35.34 153.8 35.1Z" fill="#001E30"/>
<path d="M198.979 50.7605C198.945 50.6326 198.87 50.5272 198.802 50.4412C198.78 50.4148 198.76 50.3876 198.74 50.3609C198.703 50.3122 198.665 50.2614 198.622 50.2147C198.519 50.1061 198.388 49.9586 198.293 49.7809C198.288 49.7715 198.283 49.7621 198.279 49.7525C198.278 49.7502 198.277 49.7481 198.276 49.7459C198.288 49.7268 198.301 49.7078 198.313 49.6857C198.342 49.6283 198.352 49.5613 198.358 49.5103C198.376 49.3747 198.31 49.261 198.246 49.165C198.208 49.1084 198.166 49.0549 198.125 49.0028C198.094 48.9632 198.063 48.9236 198.033 48.8828C197.972 48.7975 197.916 48.7007 197.869 48.5951C197.816 48.4811 197.762 48.3573 197.72 48.2275C197.719 48.2242 197.72 48.2164 197.721 48.2095C197.723 48.1976 197.724 48.1829 197.72 48.1676C197.694 48.0648 197.669 47.964 197.651 47.8612C197.647 47.8417 197.648 47.8209 197.648 47.7988C197.649 47.7765 197.649 47.7534 197.645 47.7285L197.612 47.5556C197.617 47.5523 197.621 47.549 197.625 47.5454C197.928 47.2718 198.112 46.9986 198.185 46.711C198.239 46.5057 198.222 46.2673 198.135 46.0221C198.07 45.8294 197.974 45.6514 197.882 45.4791L197.509 44.7932L196.782 43.5013C196.545 43.0725 196.318 42.6379 196.105 42.2292C195.811 41.6611 195.504 41.1143 195.27 40.7018C195.23 40.6284 195.198 40.5467 195.17 40.4736C195.132 40.3865 195.135 40.3007 195.18 40.2035C195.228 40.0943 195.263 39.9765 195.278 39.8625C195.308 39.6546 195.284 39.4279 195.205 39.1698C195.157 39.0091 195.096 38.8202 195.009 38.6367C194.927 38.4699 194.838 38.3039 194.753 38.1434C194.669 37.9853 194.582 37.8218 194.501 37.6583L194.383 37.4202C194.174 36.9991 193.957 36.5634 193.731 36.1415L193.717 36.1159C193.705 36.093 193.693 36.0702 193.682 36.0532L193.664 36.024C193.633 35.9732 193.631 35.9702 193.622 35.9654L193.602 35.9549L193.586 35.9694L193.585 35.9699C193.509 35.8379 193.451 35.6983 193.459 35.5374C193.459 35.4021 193.4 35.2574 193.308 35.1703C193.225 35.0825 193.128 35.021 193.034 34.9616L192.225 34.462L191.929 34.2724C191.926 34.2696 191.922 34.2671 191.919 34.265L192.397 33.9571C192.399 33.9563 192.401 33.9556 192.402 33.9548L192.569 34.0731C192.704 34.1721 192.831 34.2721 192.946 34.3712C193.21 34.5956 193.456 34.8443 193.68 35.1104L193.707 35.1434C193.928 35.4043 194.156 35.6744 194.48 35.8161C194.562 35.8529 194.648 35.8788 194.736 35.8933C194.78 35.9004 194.825 35.9042 194.872 35.9044L194.886 35.9042C194.904 35.9039 194.922 35.9037 194.94 35.9014L194.945 35.9024L194.95 35.9004C194.966 35.8999 194.988 35.8991 195.004 35.8844L195.01 35.8773L195.019 35.824C195.05 35.6714 195.065 35.5056 195.066 35.3013C195.061 34.9649 194.996 34.6199 194.873 34.2762C194.634 33.5972 194.192 32.9711 193.439 32.2469C193.398 32.2073 193.36 32.1652 193.321 32.123C193.277 32.0753 193.232 32.026 193.184 31.9806C193.085 31.8877 192.986 31.7958 192.887 31.7034C192.525 31.3663 192.15 31.0175 191.817 30.6397C191.676 30.4808 191.544 30.308 191.418 30.1407L191.326 30.0196C191.253 29.9254 191.182 29.8294 191.11 29.7332C190.872 29.4134 190.626 29.0826 190.325 28.8074C190.005 28.5081 189.611 28.335 189.215 28.3198C189.005 28.3058 188.795 28.3175 188.591 28.3297C188.553 28.3319 188.515 28.334 188.477 28.336C188.476 28.3302 188.475 28.3241 188.474 28.3185C188.472 28.3035 188.469 28.289 188.47 28.2758L188.473 28.2395C188.477 28.1834 188.482 28.1258 188.476 28.0682C188.472 28.0172 188.461 27.9672 188.451 27.9187C188.446 27.8948 188.441 27.871 188.436 27.8479L188.401 27.6338C188.385 27.5486 188.343 27.4625 188.283 27.3835C188.282 27.3742 188.281 27.3599 188.273 27.3472C188.263 27.334 188.254 27.3216 188.244 27.3089C188.216 27.2711 188.189 27.2356 188.173 27.1954C188.17 27.1878 188.171 27.1779 188.172 27.165C188.172 27.1617 188.172 27.1584 188.172 27.1548L188.22 27.1312C188.236 27.1218 188.252 27.1104 188.268 27.0987C188.286 27.085 188.303 27.0723 188.322 27.0639C188.349 27.0513 188.377 27.0398 188.406 27.0282C188.458 27.0068 188.513 26.9845 188.563 26.9558C188.648 26.9106 188.725 26.8565 188.809 26.7956C188.881 26.7438 188.963 26.6849 189.034 26.6106C189.112 26.5283 189.165 26.4186 189.194 26.2861C189.195 26.2841 189.199 26.2793 189.201 26.2757C189.209 26.2668 189.218 26.2557 189.221 26.2394C189.24 26.1511 189.245 26.0607 189.248 25.9686C189.249 25.9543 189.253 25.9394 189.256 25.9231C189.262 25.9031 189.267 25.8822 189.267 25.8599C189.267 25.8548 189.267 25.8503 189.267 25.8452C189.274 25.8498 189.282 25.8536 189.289 25.8574C189.533 25.9808 189.783 26.0762 190.031 26.1407C190.181 26.1803 190.336 26.2024 190.486 26.2237L190.555 26.2336C190.926 26.2917 191.297 26.3085 191.661 26.2833C192.079 26.2549 192.492 26.1775 192.84 26.1056L192.851 26.1034C193.033 26.0655 193.221 26.0262 193.407 25.9807C193.489 25.9584 193.595 25.9236 193.688 25.8528C193.763 25.7949 193.819 25.7231 193.874 25.6538L193.893 25.6289C194.004 25.4847 194.143 25.3646 194.29 25.2375C194.499 25.0567 194.715 24.8696 194.848 24.6061C194.862 24.5807 194.878 24.5569 194.894 24.5325C194.916 24.498 194.94 24.4627 194.959 24.4231C194.974 24.387 194.991 24.3515 195.007 24.316C195.066 24.1865 195.126 24.0527 195.16 23.9027C195.201 23.7115 195.146 23.5245 195.098 23.3589L195.092 23.3389C195.076 23.281 195.061 23.2221 195.046 23.1635C195.025 23.0772 195.003 22.9881 194.975 22.902C194.898 22.6682 194.805 22.4372 194.715 22.2141L194.657 22.0706C194.513 21.7147 194.365 21.4007 194.204 21.1113C194.178 20.9608 194.143 20.7846 194.091 20.6122C193.991 20.2911 193.85 19.9969 193.671 19.738C193.561 19.578 193.425 19.4277 193.269 19.2919C193.236 19.2615 193.202 19.2315 193.168 19.2016C193.094 19.1356 193.017 19.0673 192.95 18.9944C192.865 18.8949 192.788 18.7769 192.715 18.6329C192.661 18.5273 192.618 18.4128 192.577 18.3022C192.557 18.2496 192.538 18.1971 192.517 18.1458C192.369 17.752 192.111 17.4538 191.809 17.3251L191.76 17.2276C191.72 17.1471 191.68 17.0664 191.638 16.9867C191.503 16.7298 191.286 16.3551 190.965 16.0634C190.802 15.9162 190.605 15.7943 190.359 15.691C190.221 15.6321 190.08 15.5808 189.942 15.5311C189.76 15.4651 189.572 15.3968 189.394 15.311C189.205 15.2249 189.027 15.1127 188.86 15.0048L188.791 14.9614C188.635 14.8609 188.473 14.7571 188.28 14.7104C188.09 14.6609 187.877 14.6565 187.627 14.6982C187.578 14.7068 187.526 14.7114 187.476 14.7157L187.465 14.7167C187.449 14.6685 187.432 14.6197 187.413 14.5733C187.333 14.3771 187.22 14.1917 187.122 14.0344C187.103 14.0026 187.083 13.9716 187.062 13.9409C187.014 13.8676 186.968 13.798 186.946 13.7203C186.936 13.6889 186.933 13.6531 186.93 13.6157C186.924 13.5566 186.919 13.4952 186.888 13.4353C186.838 13.3434 186.744 13.3086 186.662 13.2779L186.634 13.2669C186.597 13.2537 186.56 13.2398 186.523 13.2253C186.455 13.1987 186.383 13.1712 186.31 13.1512C186.198 13.119 186.086 13.103 185.979 13.103C185.91 13.1022 185.847 13.1065 185.782 13.1101L185.772 13.1108C185.767 12.9943 185.754 12.8775 185.735 12.741C185.732 12.7113 185.727 12.6818 185.723 12.6519C185.713 12.5831 185.703 12.5115 185.699 12.4417C185.695 12.3713 185.694 12.2975 185.696 12.2165L185.705 12.0413L185.749 12.0309C185.823 12.0137 185.899 11.9956 185.972 11.9634C186.124 11.9007 186.252 11.7756 186.328 11.6171C186.62 11.7499 186.922 11.8251 187.227 11.8408C187.347 11.8464 187.474 11.8426 187.606 11.8284C187.626 11.8253 187.646 11.8228 187.665 11.8197C187.708 11.8139 187.75 11.8075 187.793 11.7989L187.898 11.7748C187.938 11.7664 187.977 11.7545 188.014 11.7428C188.031 11.7375 188.048 11.7324 188.065 11.7273L188.311 11.6524L188.314 11.6303C188.316 11.6067 188.295 11.5971 188.291 11.5961L187.951 11.4062L187.978 11.4034C188.21 11.3773 188.397 11.3191 188.549 11.2255C188.736 11.1112 188.872 10.946 188.932 10.7601C188.947 10.7124 188.958 10.6467 188.961 10.5934L188.965 10.5477L188.942 10.5393C188.93 10.5345 188.917 10.538 188.904 10.5428L188.786 10.5789C188.704 10.5997 188.619 10.6081 188.532 10.604C188.496 10.6025 188.459 10.5984 188.423 10.5916C188.436 10.5873 188.443 10.5789 188.446 10.5718C188.456 10.5502 188.443 10.5312 188.435 10.521L188.407 10.4756C188.376 10.4248 188.351 10.3814 188.33 10.339C188.182 10.0529 188.109 9.73075 188.04 9.41952L188.028 9.36673C187.944 8.99788 187.861 8.66685 187.697 8.35638C187.518 8.00353 187.236 7.73545 186.924 7.62071C186.741 7.55217 186.578 7.51892 186.426 7.5179C186.388 7.51485 186.347 7.52171 186.299 7.53415C186.139 7.10031 185.844 6.7406 185.634 6.50629C185.449 6.29788 185.225 6.07068 184.923 6.0161C184.76 5.99072 184.6 6.00061 184.444 6.01026C184.391 6.01356 184.339 6.01661 184.286 6.01838C184.07 6.03209 183.859 6.05341 183.658 6.08134C183.413 6.11764 183.16 6.15471 182.913 6.22121C182.393 6.36007 181.926 6.6482 181.598 7.03177L181.36 7.30721C181.357 7.31025 181.355 7.3133 181.355 7.31406C181.253 7.3628 181.145 7.4156 181.039 7.47652C181 7.49912 180.962 7.52577 180.927 7.55166C180.898 7.57248 180.869 7.59304 180.838 7.61183C180.696 7.69915 180.549 7.79917 180.437 7.93829C180.31 8.09263 180.228 8.27159 180.202 8.45665L180.195 8.52773L180.195 8.55389C180.195 8.57953 180.195 8.60871 180.199 8.63054L180.207 8.67979L180.599 8.41172C180.617 8.39954 180.635 8.38685 180.652 8.37441C180.65 8.37822 180.647 8.38177 180.645 8.38558C180.635 8.40131 180.623 8.41883 180.617 8.43939C180.568 8.59881 180.553 8.7722 180.572 8.95446C180.574 8.97833 180.575 9.00244 180.576 9.02681C180.578 9.07276 180.58 9.11998 180.593 9.16669C180.628 9.30478 180.697 9.4307 180.765 9.54595C180.824 9.64648 180.898 9.73863 180.986 9.81986C180.991 9.90642 180.998 10.0171 181.012 10.1293C181.015 10.1506 181.019 10.1717 181.022 10.1925C181.032 10.2512 181.041 10.3067 181.031 10.3595C181.024 10.4019 181.009 10.4446 180.993 10.4898C180.98 10.5276 180.966 10.5667 180.956 10.6078C180.931 10.702 180.919 10.7959 180.92 10.8868C180.922 11.0843 180.97 11.2734 181.024 11.4664L181.177 12.0028C181.229 12.1929 181.297 12.3962 181.391 12.6425C181.396 12.6547 181.398 12.6694 181.399 12.6854C181.402 12.7034 181.404 12.7222 181.411 12.7417L181.597 13.2291C181.609 13.2603 181.617 13.2928 181.626 13.3271C181.635 13.3634 181.644 13.401 181.659 13.4375C181.707 13.5612 181.774 13.6871 181.863 13.8226C181.88 13.8483 181.898 13.8724 181.917 13.8965C181.9 13.9158 181.882 13.9351 181.865 13.9554C181.781 14.0552 181.704 14.1631 181.636 14.2773C181.61 14.3194 181.589 14.3641 181.568 14.4073C181.552 14.4431 181.535 14.4783 181.516 14.5124L181.468 14.5974C181.468 14.5971 181.467 14.5966 181.466 14.5964C181.451 14.5903 181.432 14.5817 181.408 14.5781C181.321 14.5558 181.227 14.5443 181.128 14.5443C181.126 14.5443 181.125 14.5443 181.124 14.5443C181.037 14.5449 180.95 14.5497 180.866 14.5545C180.759 14.5603 180.649 14.5669 180.539 14.5631C180.372 14.5601 180.194 14.5426 179.979 14.5078L179.301 14.4035C179.288 14.4019 179.275 14.3971 179.26 14.392C179.242 14.3857 179.221 14.3783 179.2 14.3768C179.014 14.3557 178.814 14.4022 178.65 14.5007C178.633 14.5106 178.615 14.5202 178.597 14.5296C178.549 14.556 178.498 14.5832 178.453 14.6197C178.378 14.6817 178.312 14.7525 178.248 14.821C178.213 14.8589 178.178 14.8969 178.141 14.9332C178.126 14.9482 178.111 14.9624 178.095 14.9769C178.087 14.9848 178.078 14.9929 178.07 15.001L177.896 14.9919C177.82 14.9873 177.742 14.9828 177.663 14.9828C177.616 14.9825 177.569 14.9886 177.523 14.9942C177.494 14.9977 177.466 15.0013 177.437 15.0033C177.267 15.0127 177.107 15.0536 176.976 15.1219C176.863 15.1782 176.761 15.2493 176.662 15.3181C176.626 15.343 176.591 15.3676 176.554 15.3915C176.441 15.4679 176.31 15.5433 176.145 15.6288C175.974 15.7169 175.806 15.8156 175.642 15.9126C175.634 15.9177 175.622 15.9205 175.609 15.9235C175.594 15.9271 175.577 15.9309 175.561 15.94L175.172 16.1576C175.143 16.1728 175.111 16.1837 175.078 16.1952L175.072 16.1969C174.958 16.2007 174.841 16.2104 174.724 16.2256C174.687 16.2307 174.65 16.2388 174.614 16.2469C174.573 16.2558 174.535 16.2642 174.496 16.2688C174.441 16.2749 174.387 16.2805 174.332 16.2858C174.228 16.2964 174.119 16.3071 174.013 16.3239C173.938 16.3353 173.864 16.348 173.789 16.3607C173.693 16.3774 173.593 16.3944 173.495 16.4076C173.323 16.4315 173.145 16.4439 172.988 16.4549C172.807 16.467 172.612 16.4919 172.374 16.5333C172.363 16.5346 172.349 16.5338 172.335 16.5323C172.319 16.5302 172.301 16.5282 172.281 16.5315L172.232 16.5394C172.09 16.5625 171.944 16.5861 171.803 16.6407C171.789 16.6463 171.774 16.6516 171.759 16.6569C171.708 16.6752 171.656 16.694 171.61 16.728C171.492 16.812 171.415 16.9349 171.346 17.0438C171.307 17.107 171.278 17.174 171.25 17.239L171.248 17.2395C171.185 17.2555 171.118 17.2763 171.043 17.3037C171.023 17.3119 171.003 17.322 170.984 17.3324C170.961 17.3449 170.94 17.3565 170.917 17.3639C170.867 17.3802 170.815 17.3934 170.764 17.4068C170.721 17.4177 170.678 17.4289 170.637 17.4413L170.618 17.4467C170.526 17.4731 170.43 17.5005 170.333 17.5109C170.245 17.5205 170.148 17.517 170.033 17.5L169.986 17.4934C169.882 17.4787 169.774 17.4637 169.663 17.4528C169.661 17.4523 169.654 17.4484 169.648 17.4456C169.638 17.4398 169.626 17.4324 169.61 17.4307C169.5 17.4185 169.396 17.422 169.301 17.4403C169.287 17.4426 169.274 17.4436 169.259 17.4446C169.23 17.4469 169.2 17.4492 169.17 17.4609C169.082 17.4964 169.016 17.5614 168.962 17.62C168.954 17.6292 168.947 17.6396 168.939 17.65C168.939 17.6505 168.939 17.651 168.938 17.6515C168.925 17.648 168.91 17.6452 168.891 17.6437C168.88 17.6442 168.87 17.6477 168.861 17.6508C168.856 17.6523 168.85 17.6546 168.848 17.6546C168.84 17.6536 168.832 17.652 168.824 17.6505C168.797 17.6452 168.767 17.6398 168.733 17.647C168.693 17.6541 168.651 17.6754 168.608 17.7109C168.578 17.7368 168.549 17.7653 168.521 17.7965C168.495 17.8259 168.481 17.8579 168.471 17.8881C168.469 17.8874 168.466 17.8866 168.464 17.8861C168.382 17.8688 168.291 17.8869 168.213 17.9366C168.169 17.9661 168.139 18.0087 168.112 18.0465L168.101 18.0615C168.036 18.1521 168 18.2638 168 18.375C167.999 18.4649 168.015 18.5499 168.031 18.6322C168.036 18.6558 168.04 18.6794 168.044 18.703C168.057 18.7741 168.067 18.8474 168.075 18.9188C168.079 18.9492 168.083 18.9797 168.087 19.0104C168.104 19.1282 168.137 19.2493 168.19 19.3798C168.191 19.3821 168.191 19.3902 168.191 19.3955C168.19 19.4072 168.19 19.4217 168.195 19.4366C168.226 19.5174 168.265 19.5953 168.302 19.6707L168.319 19.705C168.326 19.7182 168.33 19.7324 168.334 19.7471C168.341 19.7717 168.349 19.7994 168.365 19.8238C168.421 19.9157 168.538 19.9377 168.627 19.9195C168.661 19.9151 168.696 19.9058 168.734 19.8913C168.749 19.908 168.764 19.9258 168.784 19.9421C168.823 19.974 168.878 19.987 168.93 19.9768C168.937 19.9822 168.949 19.9877 168.963 19.9855C169.001 19.9768 169.033 19.957 169.068 19.9382C169.077 19.939 169.092 19.9395 169.106 19.9314C169.114 19.9268 169.121 19.9217 169.128 19.9162C169.158 19.9608 169.198 19.9928 169.238 20.006C169.299 20.0299 169.36 20.0273 169.414 20.0256L169.595 20.0228C169.634 20.0218 169.673 20.0141 169.716 19.9994C169.716 20.0253 169.718 20.0545 169.727 20.0855C169.743 20.1375 169.783 20.1756 169.82 20.2109C169.888 20.2761 169.984 20.3119 170.09 20.3122C170.177 20.3122 170.255 20.301 170.339 20.2893L170.365 20.2855C170.442 20.2771 170.511 20.2472 170.578 20.2182C170.595 20.2111 170.61 20.204 170.628 20.1969C170.716 20.1545 170.805 20.0959 170.895 20.0182C170.897 20.0174 170.902 20.0164 170.906 20.0157C170.916 20.0136 170.93 20.0106 170.942 20.001C170.968 19.9804 170.992 19.9578 171.015 19.9355C171.035 20.0142 171.056 20.0868 171.08 20.1553C171.096 20.2012 171.116 20.2454 171.136 20.2881C171.152 20.3221 171.167 20.3563 171.181 20.3911C171.242 20.5549 171.306 20.7244 171.389 20.8826C171.466 21.0329 171.556 21.1781 171.642 21.3187L171.755 21.5022C171.825 21.6172 171.898 21.7366 171.981 21.8602C171.984 21.864 171.986 21.868 171.989 21.8726C172.003 21.8919 172.022 21.9219 172.065 21.9132L172.196 21.8594C172.242 21.8424 172.292 21.8269 172.347 21.8125C172.456 21.7843 172.561 21.7688 172.66 21.7665C172.661 21.7665 172.661 21.7665 172.662 21.7665C172.674 21.7665 172.688 21.7701 172.702 21.7736C172.719 21.7779 172.737 21.782 172.756 21.7825L172.79 21.783C172.951 21.7858 173.134 21.7883 173.292 21.698C173.356 21.6612 173.428 21.6139 173.474 21.5421C173.522 21.4649 173.554 21.3842 173.585 21.3058C173.589 21.2941 173.594 21.2824 173.598 21.271C173.619 21.2999 173.644 21.321 173.675 21.3334C173.753 21.3624 173.833 21.3451 173.888 21.3284C174.004 21.2862 174.099 21.2286 174.19 21.1727C174.221 21.1542 174.252 21.1354 174.285 21.1164C174.325 21.0913 174.363 21.0638 174.402 21.0362C174.443 21.0075 174.485 20.9775 174.528 20.9514C174.621 20.8938 174.705 20.8519 174.78 20.8239C174.836 20.812 174.898 20.8115 174.965 20.8107C175 20.8105 175.035 20.81 175.07 20.808C175.166 20.8047 175.262 20.8001 175.358 20.7955C175.482 20.7894 175.607 20.7833 175.731 20.7805L175.825 20.7798C176.004 20.7785 176.19 20.7765 176.361 20.81C176.511 20.8384 176.648 20.9085 176.793 20.9824C176.878 21.0263 176.967 21.0717 177.06 21.1083C177.075 21.1144 177.09 21.1245 177.106 21.1347C177.123 21.1461 177.141 21.158 177.162 21.1667C177.369 21.2492 177.584 21.3035 177.749 21.3416C177.785 21.3499 177.82 21.3616 177.856 21.3733C177.9 21.3875 177.945 21.402 177.991 21.4114C178.001 21.4134 178.012 21.4152 178.023 21.4167C178.013 21.5403 178.008 21.6627 178.009 21.7807C178.01 21.829 178.014 21.8767 178.018 21.9244C178.022 21.9698 178.026 22.0153 178.027 22.0607L178.028 22.1303C178.031 22.2999 178.034 22.4753 178.054 22.6476C178.078 22.8629 178.12 23.0759 178.162 23.2757C178.204 23.4798 178.248 23.6793 178.306 23.8776C178.373 24.103 178.473 24.3279 178.612 24.565C178.619 24.5779 178.624 24.5939 178.629 24.6109C178.636 24.6297 178.642 24.6493 178.653 24.6688C178.757 24.8425 178.875 25.0075 178.979 25.1489C179.001 25.1786 179.02 25.2108 179.04 25.2448C179.061 25.2799 179.082 25.3159 179.107 25.3497C179.117 25.3624 179.127 25.375 179.137 25.3872L179.15 25.4025C179.149 25.4119 179.149 25.4213 179.149 25.4306C179.148 25.4573 179.147 25.4837 179.148 25.5116C179.151 25.539 179.156 25.5665 179.162 25.5934C179.167 25.619 179.172 25.6441 179.174 25.6693L179.177 25.7165C179.183 25.8112 179.19 25.9092 179.211 26.0046C179.232 26.114 179.267 26.2206 179.301 26.324L179.329 26.4098C179.359 26.5022 179.39 26.5981 179.429 26.6908C179.455 26.756 179.492 26.8213 179.54 26.8895C179.539 26.8913 179.538 26.8931 179.536 26.8951C179.514 26.9319 179.504 26.9721 179.495 27.0071C179.492 27.0193 179.49 27.0309 179.486 27.0424C179.455 27.1472 179.441 27.2462 179.444 27.3358C179.445 27.381 179.447 27.4265 179.449 27.4714C179.453 27.5275 179.455 27.5833 179.455 27.6392C179.455 27.6633 179.454 27.6872 179.452 27.711C179.439 27.7105 179.427 27.7103 179.415 27.7118C179.28 27.7308 179.159 27.7963 179.081 27.8438C179.048 27.8638 179.018 27.8869 178.989 27.909C178.958 27.9329 178.928 27.9552 178.895 27.9743C178.833 28.0146 178.766 28.041 178.696 28.069C178.622 28.0982 178.546 28.1281 178.47 28.1768C178.341 28.2634 178.273 28.3888 178.208 28.5096C178.19 28.5434 178.171 28.5767 178.152 28.6089C178.097 28.7054 178.037 28.8013 177.979 28.8942C177.95 28.9402 177.921 28.9866 177.893 29.0333C177.786 29.206 177.699 29.392 177.632 29.5867C177.629 29.5961 177.622 29.6066 177.615 29.6175C177.605 29.6314 177.594 29.6472 177.588 29.666C177.549 29.7804 177.519 29.9048 177.49 30.0678C177.465 30.0881 177.443 30.1064 177.424 30.1247C177.359 30.1846 177.293 30.2529 177.222 30.3333C177.143 30.4217 177.068 30.5136 176.995 30.6027C176.923 30.6908 176.848 30.7816 176.771 30.8687C176.677 30.9835 176.576 31.1056 176.467 31.2211C176.239 31.448 175.989 31.6607 175.742 31.8717C175.424 32.1393 175.16 32.3479 174.912 32.5284C174.665 32.7094 174.405 32.882 174.154 33.0488L174.062 33.1105C173.7 33.3501 173.361 33.5999 173.054 33.8528C173.031 33.8711 173.006 33.8868 172.98 33.9033C172.953 33.92 172.926 33.9371 172.901 33.9574C172.839 34.0059 172.769 34.066 172.716 34.1407C172.642 34.2419 172.62 34.3422 172.652 34.4311C172.684 34.5158 172.748 34.5567 172.803 34.5933C172.819 34.6032 172.834 34.6128 172.849 34.624C172.907 34.6641 172.967 34.7024 173.027 34.7403L173.053 34.757C173.096 34.7844 173.139 34.8134 173.181 34.8421C173.249 34.888 173.319 34.9352 173.392 34.9763C173.542 35.0588 173.693 35.1294 173.872 35.2079L173.664 35.6879C173.53 36.0146 173.356 36.4462 173.196 36.8856C173.142 37.0308 173.092 37.1803 173.044 37.3248C173.001 37.4512 172.959 37.5778 172.913 37.703C172.694 38.3074 172.498 38.8527 172.315 39.4051L171.724 41.2663L171.14 43.0728C170.933 43.71 170.722 44.4075 170.477 45.2679C170.461 45.3222 170.441 45.3768 170.421 45.4296C170.402 45.4816 170.383 45.5354 170.366 45.5903L170.002 46.8745L169.935 47.1157C169.917 47.1799 169.896 47.2525 169.911 47.3312C169.925 47.4157 169.996 47.4744 170.057 47.501C170.095 47.5188 170.133 47.5333 170.171 47.5475C170.191 47.5548 170.21 47.5627 170.23 47.5706C170.351 47.6183 170.465 47.6599 170.576 47.6967C171.036 47.8475 171.498 47.9605 171.971 48.0727C172.317 48.1534 172.667 48.222 173.011 48.2758L173.013 48.2786C173.017 48.2847 173.021 48.2913 173.024 48.2974C173.039 48.323 173.053 48.3479 173.068 48.3733C173.104 48.436 173.142 48.501 173.17 48.5685C173.219 48.6886 173.261 48.8145 173.302 48.9361C173.33 49.0196 173.358 49.1031 173.389 49.1866L173.636 49.856C173.71 50.067 173.774 50.2802 173.843 50.5158C173.849 50.5364 173.857 50.5559 173.862 50.5765C173.788 50.875 173.576 51.1169 173.345 51.3121C172.99 51.6074 172.613 51.8914 172.221 52.1478C171.977 52.305 171.728 52.4565 171.467 52.5845C171.073 52.7812 170.656 52.9236 170.235 53.0538C169.989 53.1399 169.73 53.2333 169.535 53.4339C169.516 53.4585 169.461 53.5126 169.459 53.5483L169.557 53.6402C169.61 53.6852 169.666 53.7278 169.725 53.7634C169.842 53.8393 169.974 53.887 170.107 53.922C170.376 53.9888 170.66 53.973 170.917 53.887C171.038 53.8461 171.156 53.7992 171.273 53.7431C171.287 53.7352 171.3 53.7233 171.314 53.7136C171.58 53.7634 171.833 53.8768 172.108 53.9449C172.324 53.9999 172.569 54.0261 172.799 53.9642C173.027 53.906 173.228 53.7928 173.417 53.6748C173.65 53.5278 173.867 53.3628 174.116 53.2559C174.302 53.1764 174.508 53.1379 174.71 53.1643C174.913 53.1919 175.106 53.2716 175.306 53.3224C175.54 53.3897 175.815 53.3948 176.038 53.2526C176.261 53.1135 176.423 52.8789 176.475 52.6187C176.53 52.357 176.471 52.0882 176.357 51.8617C176.303 51.7546 176.248 51.648 176.185 51.5447C176.184 51.5421 176.181 51.5401 176.179 51.5376C176.208 51.5091 176.234 51.4766 176.249 51.4391C176.298 51.3327 176.279 51.2055 176.231 51.1096C176.203 51.0489 176.161 50.9986 176.127 50.9468C176.076 50.8692 176.024 50.7945 175.983 50.713C175.957 50.6651 175.949 50.6079 175.936 50.5549C175.932 50.5348 175.923 50.5173 175.917 50.4983C175.911 50.4358 175.906 50.3719 175.904 50.3026C175.898 50.1193 175.887 49.951 175.873 49.789C175.873 49.7811 175.875 49.7707 175.878 49.7601C175.882 49.7459 175.886 49.7301 175.885 49.7121L175.86 49.3125C175.859 49.2861 175.862 49.2595 175.865 49.231C175.869 49.2041 175.872 49.1765 175.871 49.148C175.87 49.1031 175.868 49.0582 175.865 49.0132C175.861 48.9505 175.858 48.8855 175.859 48.8223L175.86 48.7761C175.86 48.765 175.86 48.7538 175.861 48.7424C176.031 48.7622 176.172 48.7749 176.305 48.782C176.358 48.785 176.413 48.7853 176.466 48.7853C176.468 48.7853 176.471 48.7853 176.473 48.7853C176.531 48.7853 176.59 48.7853 176.648 48.7893C176.732 48.7944 176.814 48.8013 176.896 48.8081C177.048 48.8211 177.205 48.8343 177.366 48.8343C177.367 48.8343 177.368 48.8343 177.369 48.8343C177.534 48.8327 177.681 48.7662 177.761 48.6573C177.848 48.5456 177.882 48.4179 177.915 48.274C177.969 48.0202 178.032 47.7698 178.092 47.535C178.163 47.2505 178.235 46.9438 178.277 46.6303C178.28 46.611 178.286 46.5912 178.292 46.5701C178.3 46.5463 178.307 46.5219 178.31 46.4955C178.339 46.2224 178.331 45.9835 178.285 45.7654C178.28 45.7431 178.275 45.7202 178.271 45.6976C178.256 45.6215 178.241 45.543 178.209 45.4697C178.16 45.3468 178.083 45.2432 178.008 45.1432C177.966 45.0858 177.925 45.032 177.889 44.9742C177.852 44.9165 177.823 44.8513 177.8 44.7741L177.839 44.7038C177.846 44.6878 177.852 44.671 177.858 44.654C177.865 44.6345 177.872 44.6157 177.881 44.6002L177.89 44.5845C177.929 44.521 177.973 44.4489 177.99 44.3687C178.006 44.307 178.011 44.2453 178.017 44.1857C178.019 44.1578 178.022 44.1298 178.025 44.1024C178.035 44.0237 178.054 43.9476 178.075 43.8668L178.077 43.859C178.101 43.7656 178.113 43.6635 178.113 43.5498C178.113 43.5482 178.116 43.5442 178.117 43.5411C178.123 43.5323 178.13 43.5198 178.13 43.5046C178.133 43.4424 178.129 43.3797 178.125 43.319L178.122 43.2619C178.121 43.2497 178.124 43.2358 178.127 43.2213C178.13 43.2043 178.134 43.1847 178.133 43.1644C178.131 43.134 178.128 43.104 178.123 43.0697C178.23 42.9961 178.325 42.9162 178.404 42.8314C178.455 42.7758 178.499 42.7148 178.542 42.6559C178.565 42.624 178.588 42.592 178.613 42.561C178.781 42.3442 178.911 42.1635 179.024 41.9916C179.111 41.8581 179.196 41.7202 179.279 41.5872C179.328 41.5073 179.377 41.4278 179.426 41.3491L179.828 40.732C179.978 40.5028 180.123 40.2494 180.272 39.9577C180.281 39.941 180.294 39.925 180.307 39.9082C180.321 39.8899 180.336 39.8709 180.348 39.8488C180.44 39.6719 180.526 39.4886 180.61 39.3117L180.65 39.2261C180.671 39.1837 180.695 39.1421 180.719 39.1017C180.742 39.0614 180.767 39.0195 180.788 38.9758C180.855 38.8347 180.914 38.6874 180.971 38.5453L181.008 38.4541C181.044 38.3645 181.076 38.2671 181.105 38.1645L181.128 38.1731C181.185 38.1952 181.243 38.2173 181.301 38.2361C181.343 38.2495 181.385 38.26 181.428 38.2701C181.472 38.2808 181.518 38.2917 181.56 38.3059C181.618 38.3257 181.676 38.3463 181.734 38.3666C181.851 38.4077 181.971 38.4501 182.092 38.4861C182.289 38.5455 182.489 38.595 182.688 38.6326C182.871 38.6679 183.07 38.6918 183.278 38.7032C183.275 38.725 183.272 38.7468 183.267 38.7687C183.262 38.7941 183.255 38.8197 183.249 38.8461C183.22 38.9679 183.187 39.1063 183.233 39.2502C183.307 39.4653 183.515 39.5564 183.633 39.5917C183.779 39.6346 183.929 39.6445 184.074 39.6541L184.113 39.6569C184.194 39.6617 184.29 39.6666 184.393 39.6666C184.396 39.6666 184.399 39.6666 184.402 39.6666C184.458 39.665 184.518 39.6607 184.575 39.6234C184.636 39.5841 184.659 39.5203 184.673 39.463C184.676 39.4531 184.682 39.4427 184.688 39.4315C184.696 39.4178 184.705 39.4026 184.71 39.384L184.812 38.9492C184.819 38.9202 184.83 38.892 184.842 38.8626C184.853 38.8347 184.864 38.8055 184.872 38.7753C184.886 38.7232 184.898 38.6704 184.91 38.6176L184.912 38.6103C184.96 38.6049 185.008 38.5986 185.056 38.5925C185.135 38.5821 185.218 38.5712 185.299 38.5651L185.312 38.593C185.332 38.6382 185.352 38.6829 185.373 38.7276C185.495 38.9893 185.607 39.2162 185.714 39.4211C185.789 39.5587 185.876 39.7183 185.971 39.8729C186.177 40.2192 186.37 40.5165 186.561 40.7823L187.257 41.7208C187.486 42.0335 187.704 42.3513 187.909 42.6499C188.134 42.9783 188.39 43.3317 188.714 43.7612C188.734 43.7871 188.751 43.8156 188.768 43.8455C188.785 43.875 188.802 43.9052 188.823 43.9339L189.466 44.7827C189.511 44.8424 189.553 44.9064 189.594 44.9683C189.633 45.027 189.673 45.0876 189.716 45.1452C189.784 45.2374 189.853 45.3288 189.923 45.4197C190.027 45.5562 190.134 45.6974 190.235 45.8393L190.32 45.9596C190.533 46.2587 190.752 46.5678 190.975 46.86C190.99 46.8882 191.004 46.9169 191.019 46.9453C191.039 46.9872 191.06 47.0291 191.083 47.0702C191.118 47.1352 191.156 47.1987 191.194 47.2621C191.233 47.3289 191.275 47.398 191.312 47.4673C191.362 47.5622 191.411 47.6574 191.461 47.7523C191.557 47.9369 191.656 48.1275 191.76 48.3131C191.811 48.403 191.861 48.4923 191.911 48.5819C192.027 48.7893 192.147 49.0041 192.278 49.2219C192.344 49.2963 192.437 49.3024 192.511 49.3072L192.797 49.3278L192.908 49.3321C193.036 49.3372 193.17 49.3427 193.3 49.3382C193.699 49.3338 194.105 49.2777 194.508 49.1709C194.531 49.1661 194.555 49.1627 194.58 49.1597C194.615 49.1549 194.652 49.1503 194.687 49.1399C195.001 49.0566 195.299 48.9333 195.578 48.814C195.585 48.8107 195.592 48.8076 195.599 48.8046L195.624 48.8718C195.675 49.0079 195.73 49.1473 195.788 49.2861C195.805 49.3257 195.824 49.3648 195.843 49.4037C195.867 49.4537 195.892 49.5052 195.911 49.5578C195.956 49.6786 195.997 49.8035 196.037 49.9238C196.061 49.9987 196.086 50.0733 196.111 50.1475L196.218 50.4678L196.261 50.6092L196.236 50.6308C196.222 50.6417 196.209 50.6536 196.196 50.6656C196.188 50.6729 196.18 50.6808 196.17 50.6887C195.993 50.8506 195.847 51.0225 195.735 51.1999C195.659 51.3187 195.599 51.4434 195.556 51.5711C195.532 51.6422 195.514 51.7074 195.501 51.7693C195.498 51.7813 195.496 51.7901 195.496 51.797C195.495 51.7998 195.495 51.8021 195.496 51.8021L195.496 51.8018C195.495 51.8026 195.493 51.8041 195.487 51.8077L195.402 51.8625C195.388 51.8716 195.373 51.8785 195.358 51.8853C195.336 51.8952 195.314 51.9054 195.293 51.9219C195.189 52.0044 195.119 52.091 195.079 52.1862C195.033 52.2986 195.029 52.4245 195.069 52.5311C195.098 52.6139 195.168 52.7132 195.278 52.7429C195.446 52.7842 195.598 52.721 195.732 52.6647C195.753 52.656 195.774 52.6472 195.795 52.6388C195.803 52.6352 195.812 52.6314 195.82 52.6276C195.837 52.72 195.895 52.8051 195.974 52.851C196.063 52.9036 196.174 52.9132 196.278 52.8782C196.319 52.8629 196.352 52.8447 196.378 52.8231C196.39 52.8144 196.397 52.8073 196.402 52.8005C196.417 52.8134 196.436 52.8299 196.465 52.8469C196.707 52.9718 196.966 52.887 197.174 52.8188L197.191 52.8132C197.268 52.7855 197.346 52.7596 197.423 52.7337C197.58 52.6812 197.742 52.6271 197.905 52.5581C198.031 52.4928 198.075 52.355 198.111 52.2443L198.117 52.2265C198.153 52.1197 198.207 52.0151 198.277 51.9156C198.353 51.8033 198.451 51.7097 198.554 51.6109C198.664 51.5063 198.778 51.3979 198.868 51.2626C198.876 51.2497 198.886 51.2378 198.896 51.2253C198.916 51.201 198.937 51.1761 198.95 51.1448C199.004 51.026 199.015 50.8862 198.979 50.7605Z" fill="#001E30"/>
</svg>
