<svg width="157" height="36" viewBox="0 0 157 36" fill="none" xmlns="http://www.w3.org/2000/svg">
<path d="M17.184 24.8979L9.92 24.9139L9.888 23.0739L15.056 23.0579V19.6499L9.616 19.6659L9.6 17.7619L17.344 17.7459L17.184 24.8979ZM26.8735 17.9219L26.4895 19.9859C24.3935 19.2979 22.6495 18.9139 20.5375 18.7379L20.7455 17.0099C22.9535 17.2179 24.8575 17.4739 26.8735 17.9219ZM26.4095 20.7379L26.0255 22.8339C24.0415 22.2099 22.5375 21.9219 20.5855 21.6499L20.8575 19.9059C23.0655 20.1139 24.3935 20.2899 26.4095 20.7379ZM26.4255 23.7459L26.0415 25.5699C24.2495 25.0579 23.2255 24.8819 20.6975 24.6579L20.9695 22.9939C22.9695 23.0739 24.4095 23.2499 26.4255 23.7459ZM35.4768 23.3459H37.0928V24.8819L30.1008 24.8979L30.0688 23.3619L33.7648 23.3459C33.8448 22.5299 33.9088 21.4899 33.9088 20.5139L30.2928 20.5299L30.2768 18.9299H35.8928C35.8448 20.2419 35.7168 21.8579 35.4768 23.3459ZM48.7995 16.9939V18.0819H51.1195V20.0179H48.7995V20.8019H50.7355V25.4739H45.0395V20.8019H46.8155V20.0179H44.6075V18.0819H46.8155V17.1059C46.0635 17.1379 45.3115 17.1539 44.5435 17.1539L44.4315 15.0419C46.6395 14.9139 48.8155 14.7219 50.9915 14.4659L51.1195 16.7859C50.3515 16.8659 49.5835 16.9459 48.7995 16.9939ZM40.2555 15.2499L43.6155 15.7939L43.3915 17.6339L39.9675 17.3139L40.2555 15.2499ZM40.2075 18.4179L43.1675 18.6259L43.0235 20.4819L40.0315 20.3379L40.2075 18.4179ZM42.2075 25.0259L40.3995 23.6499L42.3195 21.3299L44.0155 22.6579L42.2075 25.0259ZM47.2155 23.7779H48.4955V22.7859H47.2155V23.7779ZM62.4062 17.7459L62.4383 19.6499H61.1263C60.8703 21.8899 60.5183 23.8739 60.0863 25.5859L58.2143 25.2019C58.5023 24.0179 58.7583 22.0179 58.8863 19.6499L57.5423 19.6659L57.4623 22.4979H55.4143V19.6659H54.0383L54.0063 17.7619H55.4143V16.6419H57.6223L57.5903 17.7619L58.9663 17.7459C58.9823 17.3299 58.9823 16.9139 58.9823 16.4819L61.4143 16.6419L61.3183 17.7459H62.4062ZM73.5673 14.4339C74.3033 14.4339 74.8793 15.0099 74.8793 15.7459C74.8793 16.4979 74.3033 17.0739 73.5673 17.0739C72.8153 17.0739 72.2393 16.4979 72.2393 15.7459C72.2393 15.0099 72.8153 14.4339 73.5673 14.4339ZM73.5673 16.1459C73.7593 16.1459 73.9353 15.9699 73.9353 15.7619C73.9353 15.5699 73.7593 15.3939 73.5673 15.3939C73.3433 15.3939 73.1673 15.5699 73.1673 15.7619C73.1673 15.9699 73.3433 16.1459 73.5673 16.1459ZM74.1273 17.5859L74.1593 19.4899H70.9593V25.4579H68.9113V19.5059H65.7593L65.7273 17.6019H68.9113V16.6419H70.9593V17.5859H74.1273ZM67.4713 25.1219L65.6313 24.6579C66.1113 23.1059 66.3513 22.0979 66.5273 20.6099L68.6233 20.7699C68.4153 22.4339 68.1113 23.5219 67.4713 25.1219ZM71.3913 20.7859L73.0873 20.6099C73.4392 22.0659 73.7433 23.1219 74.3033 24.6099L72.2552 25.1219C71.7273 23.4259 71.5513 22.4339 71.3913 20.7859ZM84.5484 22.2419H77.9244V20.2579H84.5484V22.2419ZM89.6324 16.6419V20.0499C90.9604 20.2259 92.2084 20.3539 93.3604 20.4339L93.2644 22.3059C92.9284 22.3219 92.5924 22.3219 92.2564 22.3219C91.3764 22.3219 90.5124 22.2899 89.6324 22.2099V25.4579H87.5844V16.6419H89.6324ZM104.953 17.7459L104.985 19.6499H103.673C103.417 21.8899 103.065 23.8739 102.633 25.5859L100.761 25.2019C101.049 24.0179 101.305 22.0179 101.433 19.6499L100.089 19.6659L100.009 22.4979H97.9611V19.6659H96.5851L96.5531 17.7619H97.9611V16.6419H100.169L100.137 17.7619L101.513 17.7459C101.529 17.3299 101.529 16.9139 101.529 16.4819L103.961 16.6419L103.865 17.7459H104.953ZM114.69 16.4499L116.13 18.5139C115.442 19.0419 114.306 19.6659 113.026 20.3059H113.65V25.4579H111.682V20.9459C110.786 21.3619 109.874 21.7619 109.074 22.0979L108.178 20.4979C110.53 19.2499 112.514 17.9699 114.69 16.4499ZM121.382 16.6419V20.0499C122.71 20.2259 123.958 20.3539 125.11 20.4339L125.014 22.3059C124.678 22.3219 124.342 22.3219 124.006 22.3219C123.126 22.3219 122.262 22.2899 121.382 22.2099V25.4579H119.334V16.6419H121.382Z" fill="black"/>
<path d="M144.867 8.29576C144.695 8.49697 144.436 8.65506 144.278 8.65506C144.005 8.65506 143.99 8.64069 144.249 8.36762C144.465 8.1233 144.479 8.08019 144.292 8.08019C144.163 8.08019 143.962 8.23828 143.832 8.43948C143.703 8.64069 143.459 8.79878 143.286 8.79878C142.999 8.79878 142.984 8.78441 143.243 8.51134C143.387 8.35325 143.444 8.22391 143.372 8.22391C143.185 8.22391 142.97 8.41074 142.797 8.71255C142.726 8.87064 142.539 8.99999 142.395 9.02874C142.266 9.04311 141.993 9.17246 141.791 9.3018C141.432 9.53175 141.432 9.53175 141.59 9.2012L141.748 8.87064L141.461 9.21557C141.188 9.51738 141.159 9.51738 141.159 9.28743C141.145 9.1006 141.087 9.15808 140.958 9.45989C140.742 9.96291 140.311 10.2072 140.139 9.9198C140.067 9.80482 139.981 9.86231 139.88 10.1354C139.794 10.3653 139.621 10.5234 139.463 10.5234C139.104 10.5234 138.86 10.7965 138.86 11.1989C138.86 11.5869 138.486 11.7882 138.242 11.5438C137.983 11.2851 137.595 11.357 137.422 11.6875C137.322 11.8456 136.905 12.1475 136.474 12.3343C135.583 12.7223 135.338 13.211 135.77 13.6853C136.273 14.2458 137.063 13.8721 137.365 12.9379C137.494 12.5499 137.509 12.5499 137.911 12.7511C138.428 13.0241 138.443 13.0241 138.328 12.708C138.256 12.5068 138.285 12.4924 138.443 12.6361C138.63 12.8229 138.989 12.9092 138.816 12.7223C138.759 12.6648 138.917 12.5355 139.161 12.4349C139.42 12.3343 139.65 12.2768 139.679 12.3055C139.722 12.3487 139.564 12.593 139.348 12.8804C139.018 13.2972 138.903 13.3547 138.73 13.211C138.558 13.0673 138.529 13.0816 138.615 13.2972C138.673 13.4409 138.716 13.6853 138.716 13.829C138.716 13.9727 138.845 14.2314 139.018 14.4182L139.305 14.7632L139.204 14.4182L139.118 14.0733L139.506 14.3751C139.966 14.7344 140.096 14.7057 139.88 14.2889C139.664 13.8721 139.679 13.7571 139.937 13.9727C140.196 14.1883 140.225 13.9583 139.981 13.714C139.722 13.4553 139.391 13.4984 139.492 13.7715C139.564 13.9583 139.549 13.9727 139.391 13.8577C139.276 13.7571 139.133 13.7427 139.061 13.8002C138.989 13.8577 139.046 13.7715 139.19 13.599C139.319 13.4409 139.434 13.2397 139.434 13.1679C139.434 13.096 139.636 12.8661 139.88 12.6648C140.44 12.2049 140.34 11.8888 139.664 12.0181C138.242 12.3055 137.839 12.3343 137.911 12.1475C137.954 12.0468 137.882 11.9606 137.753 11.9606C137.566 11.9606 137.552 11.9175 137.681 11.7882C137.81 11.6588 137.911 11.6732 138.112 11.86C138.4 12.1331 138.644 12.1906 138.5 11.9606C138.414 11.8313 138.543 11.8025 139.334 11.7594C139.664 11.7307 140.44 10.9977 140.44 10.6959C140.426 10.4803 140.412 10.4803 140.254 10.6671C140.024 10.9546 139.104 11.2851 139.19 11.0552C139.219 10.9546 139.391 10.854 139.578 10.8396C139.765 10.8109 140.196 10.5522 140.541 10.2791C141.145 9.79045 141.432 9.80482 140.886 10.2935C140.742 10.4228 140.584 10.6959 140.541 10.8971L140.484 11.2564L140.785 10.969C141.245 10.5378 141.504 10.5953 141.073 11.0264C140.872 11.2276 140.627 11.3857 140.512 11.3857C140.153 11.3857 140.167 11.6157 140.512 11.6444C140.728 11.6588 140.915 11.5582 141.001 11.4001C141.087 11.2564 141.245 11.0983 141.375 11.0408C141.576 10.969 141.576 11.0121 141.375 11.3857C141.26 11.6157 141.044 11.8744 140.915 11.9462C140.584 12.1331 140.742 12.1475 141.231 11.9606C141.777 11.7594 141.533 12.0756 140.958 12.3343L140.512 12.5211L140.943 12.5355L141.375 12.5642L140.958 12.6792C140.728 12.7511 140.484 12.7798 140.412 12.7367C140.354 12.6936 140.196 12.7654 140.067 12.8804C139.952 13.0098 139.894 13.1104 139.966 13.1247C140.024 13.1247 139.966 13.1822 139.822 13.2397C139.607 13.326 139.65 13.3834 140.096 13.599C140.541 13.8002 140.599 13.8146 140.455 13.6278C140.34 13.484 140.325 13.3978 140.412 13.3978C140.498 13.3978 140.613 13.4553 140.656 13.5415C140.699 13.6134 140.814 13.6853 140.9 13.6853C140.987 13.6853 140.943 13.5559 140.8 13.3978C140.426 12.981 140.699 13.0529 141.432 13.5415C141.777 13.7859 142.165 13.9727 142.294 13.9583C142.467 13.9583 142.453 13.9296 142.237 13.8433C142.079 13.7715 141.82 13.5846 141.676 13.4122L141.403 13.1104L141.849 13.326C142.237 13.5272 142.338 13.5272 142.769 13.3403L143.243 13.1247L142.812 13.1966C142.539 13.2397 142.266 13.1822 142.093 13.0529C141.82 12.8373 141.835 12.8229 142.223 12.9667C142.596 13.096 142.611 13.096 142.453 12.8948C142.309 12.708 142.323 12.6792 142.539 12.6792C142.697 12.6792 143.071 12.5786 143.387 12.4636L143.962 12.2481L143.099 12.3199C142.596 12.363 142.151 12.3343 142.021 12.2481C141.849 12.1331 141.892 12.1187 142.194 12.1906C142.409 12.2337 142.74 12.1906 142.97 12.0612C143.329 11.8744 143.43 11.8744 143.775 12.0468C143.99 12.1618 144.263 12.4493 144.393 12.6792C144.953 13.7715 144.35 15.0506 142.984 15.6255C142.366 15.8842 142.28 16.0279 142.855 15.8985C143.2 15.7979 143.229 15.8123 143.042 16.0279C142.812 16.3153 142.524 16.3297 141.892 16.1141C141.446 15.956 141.432 15.9417 141.691 15.6686C141.835 15.5105 142.237 15.1799 142.567 14.95C142.927 14.7057 143.286 14.3032 143.401 14.0302C143.631 13.4697 143.674 12.478 143.459 12.6074C143.387 12.6505 143.315 12.8948 143.315 13.1247C143.315 13.7571 142.97 14.3032 142.294 14.7488C141.964 14.9787 141.547 15.2949 141.389 15.4674C141.116 15.7548 141.03 15.7692 140.541 15.6255C139.995 15.4674 139.995 15.4674 140.282 15.2087C140.498 15.0075 140.627 14.9931 140.857 15.1081C141.26 15.338 141.403 15.3093 141.087 15.065C140.857 14.8925 140.843 14.835 141.001 14.6338C141.159 14.4613 141.245 14.447 141.504 14.5763C141.763 14.72 141.777 14.7057 141.619 14.5188C141.403 14.2458 141.59 14.0733 141.978 14.2026C142.122 14.2458 142.064 14.1739 141.849 14.0589C141.432 13.8146 141.518 13.7715 140.009 15.0793C139.693 15.3668 139.319 15.5536 139.089 15.5536C138.586 15.5536 137.897 15.9129 137.71 16.2722C137.509 16.6459 137.58 16.6315 138.227 16.2003C138.515 15.9991 138.903 15.841 139.089 15.841C139.391 15.841 139.406 15.8842 139.291 16.2866C139.219 16.5453 139.19 16.804 139.248 16.8902C139.305 16.9764 139.204 17.0052 138.989 16.9333C138.17 16.7034 137.293 16.5884 137.02 16.6603C136.589 16.7609 136.617 16.5022 137.092 16.071C137.408 15.7692 137.437 15.683 137.293 15.4961C137.178 15.3668 137.034 15.2662 136.962 15.2662C136.876 15.2662 136.876 15.338 136.977 15.4674C137.106 15.6111 137.092 15.6973 136.919 15.841C136.804 15.9417 136.704 16.1141 136.704 16.2291C136.704 16.3441 136.632 16.3872 136.56 16.3441C136.459 16.2866 136.459 16.186 136.531 16.0854C136.603 15.9848 136.646 15.683 136.646 15.4099C136.632 15.0362 136.56 14.8925 136.359 14.8638C136.172 14.8206 136.129 14.8638 136.215 15.0075C136.287 15.1081 136.344 15.338 136.344 15.5105C136.359 15.7548 136.316 15.7979 136.172 15.6686C136.071 15.5967 136.028 15.4674 136.071 15.3811C136.172 15.2231 135.87 14.835 135.64 14.835C135.54 14.835 135.338 14.9356 135.18 15.0506C134.922 15.2662 134.922 15.2662 135.31 15.1799C135.626 15.1081 135.698 15.1368 135.698 15.3524C135.698 15.4817 135.798 15.7261 135.928 15.8698C136.158 16.0997 136.158 16.1285 135.928 16.2147C135.798 16.2578 135.597 16.2578 135.468 16.2147C135.324 16.1572 135.267 16.2003 135.31 16.301C135.338 16.4016 135.554 16.4878 135.77 16.4878C136.287 16.5022 136.388 16.7752 135.956 16.9908C135.065 17.4507 134.864 18.3993 135.511 19.161C135.999 19.7502 136.646 20.0089 137.566 20.0089C138.242 20.0089 138.285 20.0233 138.141 20.282C138.069 20.4401 137.997 20.6988 137.997 20.8569C137.997 21.0868 137.911 21.1587 137.638 21.1587C137.437 21.1587 137.279 21.0868 137.279 21.0006C137.279 20.9144 137.379 20.8856 137.537 20.9431C137.739 21.015 137.753 21.0006 137.609 20.8569C137.509 20.7563 137.422 20.5551 137.422 20.4113C137.422 20.2676 137.365 20.1526 137.279 20.1526C137.106 20.1526 136.934 20.7994 137.063 21.0006C137.178 21.2018 136.761 21.2018 136.373 21.0006C136.201 20.9144 135.841 20.6413 135.597 20.397C134.993 19.8365 134.792 20.0089 135.353 20.5982C135.87 21.1443 136.431 21.4461 136.905 21.4461C137.164 21.4461 137.25 21.5036 137.192 21.6617C137.135 21.791 137.307 22.0785 137.609 22.3803C138.127 22.8977 138.141 23.027 137.681 23.027C137.523 23.027 137.35 22.8689 137.279 22.6677C137.207 22.4665 137.049 22.3084 136.934 22.3084C136.646 22.3084 136.517 22.5528 136.732 22.639C136.847 22.6965 136.862 22.7252 136.761 22.7252C136.675 22.7396 136.517 22.639 136.416 22.524C136.215 22.2797 135.611 22.2366 135.482 22.4522C135.425 22.5384 135.439 22.5959 135.511 22.5815C135.827 22.524 136.129 22.6102 136.129 22.754C136.129 22.8402 135.985 22.8833 135.813 22.8689C135.367 22.8115 135.123 22.9839 135.123 23.3576C135.137 23.645 135.152 23.645 135.281 23.4151C135.367 23.2857 135.597 23.1708 135.813 23.1708H136.201L135.856 23.4438C135.511 23.7025 135.482 24.1768 135.813 24.2918C135.913 24.3205 135.956 24.263 135.899 24.1337C135.813 23.9037 136.459 23.1708 136.747 23.1708C136.847 23.1708 136.804 23.2426 136.675 23.3288C136.531 23.4151 136.416 23.645 136.416 23.8606V24.2487L136.603 23.8894C136.804 23.5013 137.422 23.3001 137.422 23.6307C137.422 23.7456 137.336 23.9181 137.25 24.0187C137.092 24.1768 137.106 24.2055 137.279 24.148C137.394 24.1049 137.566 23.9325 137.652 23.76C137.954 23.1708 138.385 22.9983 139.549 22.9695C140.412 22.9408 140.872 22.8546 141.59 22.5384C143.142 21.8485 144.321 22.0497 144.321 22.9839C144.321 23.7887 143.631 24.3205 142.596 24.3205C142.237 24.3205 142.036 24.378 142.093 24.4642C142.136 24.5361 142.381 24.608 142.611 24.608C143.588 24.608 144.594 23.8319 144.623 23.0414L144.637 22.6677L144.824 23.0989C145.37 24.3205 144.163 25.3697 142.567 25.0535C141.734 24.881 139.233 24.8954 139.061 25.0679C139.003 25.1397 139.161 25.1828 139.42 25.1828C139.837 25.1828 139.88 25.2116 139.779 25.499C139.693 25.8008 139.707 25.8152 139.937 25.614C140.153 25.4272 140.21 25.4415 140.455 25.7433C140.828 26.2032 140.8 26.5625 140.354 27.0081C140.052 27.3099 139.894 27.353 139.478 27.2955C138.141 27.0656 137.739 25.5278 138.73 24.3924C139.363 23.6738 140.21 23.4007 141.49 23.5013C142.05 23.5588 142.611 23.5444 142.711 23.4726C142.956 23.3288 142.884 22.7109 142.625 22.6246C142.496 22.5815 142.467 22.6677 142.539 22.9408L142.625 23.3145L141.605 23.2282C140.297 23.0989 139.478 23.3288 138.644 24.0618C137.868 24.7373 137.624 25.4559 137.853 26.3182C138.012 26.8931 138.601 27.5255 139.161 27.6979C139.981 27.9566 141.015 27.3099 141.015 26.5338C141.015 26.0739 141.159 26.1026 141.72 26.6775C142.266 27.2524 142.855 27.5255 143.329 27.4536C143.861 27.3817 143.803 27.1087 143.272 27.1662C142.841 27.2093 142.654 27.1087 141.734 26.3038C140.527 25.2691 140.613 25.0966 142.05 25.7002C143.344 26.2464 143.947 26.3613 144.608 26.1889C145.83 25.8583 146.606 24.6654 146.419 23.3576C146.132 21.2449 143.933 20.3395 141.288 21.2305C140.613 21.4749 139.995 21.5898 139.578 21.5611C139.003 21.518 138.931 21.5467 138.974 21.8054C139.003 21.9635 139.161 22.2366 139.334 22.409C139.679 22.7971 139.449 22.8402 138.931 22.5096C138.601 22.2941 138.385 21.8916 138.701 22.0785C138.773 22.136 138.802 22.021 138.745 21.8485C138.673 21.5611 138.658 21.5467 138.572 21.8054C138.486 22.0641 138.471 22.0641 138.328 21.8198C138.242 21.6617 138.141 21.6186 138.098 21.7048C138.04 21.7767 138.141 22.0066 138.299 22.2222C138.457 22.4234 138.529 22.5959 138.443 22.5959C138.27 22.5959 137.422 21.8916 137.422 21.7336C137.422 21.6761 137.724 21.5755 138.112 21.5323C139.549 21.3311 140.943 20.8281 142.912 19.8508C145.327 18.6436 146.103 18.4855 146.893 19.0316C147.612 19.5203 147.957 20.0664 148 20.7563C148.058 21.5755 148.058 21.5755 148.216 21.1874C148.517 20.4113 147.856 19.1466 146.879 18.6292C146.031 18.1837 145.226 18.3561 143.056 19.4197C141.145 20.3682 139.032 21.1587 138.414 21.1587C138.184 21.1587 138.141 21.1012 138.213 20.8281C138.328 20.4688 138.845 19.8652 139.046 19.8652C139.118 19.8652 138.974 20.0952 138.73 20.3682C138.27 20.9 138.141 21.1731 138.486 20.8856C138.644 20.7563 138.701 20.7563 138.745 20.9C138.788 21.0006 138.96 20.8138 139.133 20.4832C139.305 20.1383 139.693 19.6927 140.009 19.4915C140.599 19.0891 141.59 18.8017 141.59 19.0173C141.59 19.2472 140.67 19.7359 140.325 19.6784C139.909 19.6065 139.765 19.8077 140.153 19.9371C140.685 20.1095 141.432 19.7359 141.82 19.1179C142.208 18.5142 142.453 18.4424 142.165 19.0316C142.064 19.2185 142.266 19.0747 142.596 18.7154C142.912 18.3561 143.114 18.2124 143.027 18.3849C142.726 19.0316 142.898 19.0316 143.315 18.3849C143.545 18.0112 143.775 17.7094 143.818 17.7094C143.847 17.7094 143.847 17.925 143.803 18.1693C143.732 18.6148 143.76 18.6005 144.091 17.9681C144.565 17.1058 144.781 16.9621 144.666 17.5944C144.58 18.04 144.594 18.0256 144.939 17.4076C145.14 17.0483 145.586 16.3441 145.959 15.8554C146.937 14.5188 147.152 13.4266 146.635 12.3199C146.275 11.5295 145.672 10.9977 144.68 10.5953L143.847 10.2647L144.335 9.94854L144.824 9.63236L144.393 9.73296C143.847 9.84794 143.372 10.1641 143.171 10.5234C143.027 10.7821 143.056 10.7965 143.372 10.6671C143.574 10.5953 143.89 10.5953 144.134 10.6671C144.536 10.7821 144.536 10.7821 144.177 10.8252C143.976 10.8396 143.732 10.854 143.617 10.8396C143.502 10.8396 143.157 10.9546 142.855 11.1127C142.567 11.2564 142.237 11.3857 142.136 11.3714C142.036 11.3714 142.093 11.3139 142.251 11.242C142.553 11.127 143.545 9.80482 143.344 9.80482C143.157 9.80482 142.783 10.1354 142.625 10.4516C142.539 10.6097 142.453 10.6671 142.453 10.5665C142.453 10.1497 143.114 9.64673 143.818 9.53175C144.22 9.45989 144.378 9.40241 144.177 9.38803C143.818 9.35929 143.818 9.35929 144.249 9.17246C144.781 8.92813 145.528 8.13767 145.327 8.00833C145.255 7.96521 145.054 8.09456 144.867 8.29576ZM143.315 9.31617C142.884 9.51738 142.352 9.84794 142.136 10.0635C141.906 10.2647 141.734 10.3653 141.734 10.2935C141.734 10.0348 142.553 9.35929 143.114 9.15808C144.033 8.82753 144.163 8.91376 143.315 9.31617ZM141.59 10.1066C141.418 10.3366 141.245 10.509 141.202 10.4659C141.116 10.3797 141.619 9.67547 141.777 9.6611C141.849 9.6611 141.763 9.86231 141.59 10.1066ZM145.183 11.0696C145.657 11.4576 145.399 11.86 144.896 11.5295C144.709 11.4001 144.709 11.3714 144.896 11.242C145.083 11.1127 145.083 11.0983 144.881 11.0983C144.766 11.0983 144.536 11.1989 144.378 11.3139C144.062 11.5582 143.832 11.6013 143.962 11.3857C144.091 11.1702 143.947 11.2133 143.315 11.5295C142.596 11.8888 142.237 11.9031 142.826 11.5438C143.085 11.3857 143.329 11.1989 143.387 11.1127C143.43 11.0264 143.53 10.9833 143.588 11.0121C143.645 11.0552 143.89 11.0264 144.12 10.9546C144.738 10.7821 144.838 10.7821 145.183 11.0696ZM144.551 11.7594C144.479 11.9606 144.421 11.975 144.278 11.8313C144.148 11.7019 144.148 11.6301 144.321 11.5295C144.58 11.3714 144.666 11.4432 144.551 11.7594ZM146.046 11.8313C146.046 11.9031 145.916 11.9606 145.758 11.9606C145.442 11.9606 145.428 11.9462 145.557 11.6157C145.629 11.4289 145.686 11.4145 145.844 11.5438C145.959 11.6301 146.046 11.7594 146.046 11.8313ZM143.962 11.6732C144.005 11.745 143.918 11.8169 143.746 11.8169C143.574 11.8169 143.487 11.745 143.53 11.6732C143.574 11.5869 143.674 11.5295 143.746 11.5295C143.818 11.5295 143.918 11.5869 143.962 11.6732ZM144.824 12.2624C144.738 12.4924 144.695 12.5211 144.594 12.3774C144.536 12.2624 144.551 12.1043 144.637 12.0037C144.853 11.745 144.939 11.8744 144.824 12.2624ZM145.37 12.0181C145.456 12.2337 145.356 12.3918 145.154 12.3918C145.097 12.3918 145.039 12.2624 145.039 12.1043C145.039 11.7738 145.255 11.7163 145.37 12.0181ZM137.106 12.9092C136.819 13.5272 136.718 13.6134 136.344 13.6134C135.985 13.6134 135.913 13.5559 135.913 13.2541C135.913 12.9667 136.057 12.8229 136.632 12.5211C137.034 12.3199 137.365 12.1762 137.394 12.1906C137.422 12.2049 137.293 12.5355 137.106 12.9092ZM146.089 12.3343C146.031 12.5211 145.715 12.4924 145.657 12.2912C145.629 12.2049 145.715 12.1475 145.859 12.1618C146.002 12.1906 146.103 12.2624 146.089 12.3343ZM146.592 13.1535C146.606 13.714 146.592 13.7427 146.405 13.484C146.146 13.1535 146.117 12.6217 146.347 12.7654C146.462 12.8229 146.477 12.7511 146.405 12.5211C146.347 12.2912 146.362 12.2481 146.448 12.363C146.52 12.4636 146.577 12.8229 146.592 13.1535ZM145.471 12.6792C145.471 12.7511 145.341 12.8229 145.183 12.8229C145.025 12.8229 144.896 12.7511 144.896 12.6792C144.896 12.593 145.025 12.5355 145.183 12.5355C145.341 12.5355 145.471 12.593 145.471 12.6792ZM146.046 12.8804C146.046 13.1535 145.801 13.2972 145.514 13.1966C145.341 13.1247 145.327 13.0673 145.471 12.8948C145.701 12.6217 146.046 12.6217 146.046 12.8804ZM145.183 13.3834C145.284 13.2254 145.327 13.2397 145.413 13.4409C145.471 13.599 145.413 13.8002 145.255 13.9727C144.939 14.332 144.695 14.3464 144.881 14.0014C144.953 13.8721 144.996 13.599 144.968 13.3978C144.953 13.1966 144.968 13.1679 144.996 13.3116C145.054 13.5272 145.097 13.5415 145.183 13.3834ZM146.046 13.6278C146.046 13.8721 145.729 13.829 145.643 13.5703C145.614 13.4697 145.686 13.3978 145.816 13.3978C145.945 13.3978 146.046 13.4984 146.046 13.6278ZM146.448 14.2026C146.39 14.5476 146.103 14.6194 145.988 14.3176C145.873 14.0302 146.175 13.6134 146.376 13.8146C146.448 13.8865 146.477 14.0589 146.448 14.2026ZM145.758 14.1739C145.758 14.6194 145.37 14.9644 145.298 14.5907C145.241 14.3176 145.471 13.829 145.643 13.829C145.715 13.829 145.758 13.9871 145.758 14.1739ZM145.183 14.4613C145.183 14.72 144.968 14.9787 144.738 14.9787C144.493 14.9787 144.479 14.9356 144.608 14.6913C144.738 14.447 145.183 14.2745 145.183 14.4613ZM146.333 14.835C146.333 14.9069 146.275 15.0075 146.189 15.0506C146.117 15.0937 146.046 15.1081 146.046 15.065C146.046 15.0362 146.002 14.8925 145.959 14.7775C145.887 14.6051 145.931 14.5619 146.103 14.6338C146.232 14.6769 146.333 14.7775 146.333 14.835ZM145.758 15.1081C145.758 15.3524 145.672 15.5536 145.542 15.6111C145.198 15.7404 145.111 15.2949 145.399 14.9787C145.729 14.6051 145.758 14.6194 145.758 15.1081ZM144.465 15.3811C144.465 15.7117 144.192 15.9848 143.847 15.9848C143.602 15.9848 143.602 15.956 143.918 15.568C144.306 15.065 144.465 15.0218 144.465 15.3811ZM145.039 15.2518C145.039 15.3237 144.939 15.453 144.824 15.5536C144.651 15.6973 144.608 15.6973 144.608 15.5249C144.608 15.4099 144.651 15.2662 144.709 15.2231C144.838 15.0793 145.039 15.0937 145.039 15.2518ZM144.982 16.2003C144.881 16.4734 144.465 16.4734 144.465 16.2003C144.465 15.956 144.939 15.6542 145.011 15.8554C145.039 15.9273 145.025 16.0854 144.982 16.2003ZM145.428 16.0854C145.212 16.3153 145.183 16.3153 145.183 16.0997C145.183 15.9704 145.269 15.841 145.37 15.7979C145.657 15.6973 145.686 15.8267 145.428 16.0854ZM140.714 15.9704C140.886 16.0854 140.857 16.1285 140.57 16.186C139.765 16.3584 139.679 16.4016 140.153 16.3728C140.656 16.3441 140.656 16.3441 140.656 16.9477C140.656 17.6232 140.498 17.7094 139.866 17.3501L139.506 17.1489L139.894 17.1345C140.11 17.1345 140.311 17.077 140.354 17.0052C140.412 16.9333 140.311 16.9046 140.153 16.9477C139.607 17.0914 139.434 16.9189 139.607 16.3584C139.736 15.9417 139.837 15.841 140.139 15.841C140.34 15.841 140.613 15.8985 140.714 15.9704ZM141.705 16.5309C141.231 16.6315 141.432 16.8471 141.921 16.7609L142.381 16.6746L142.021 16.9764C141.662 17.2782 141.662 17.2782 141.418 16.9908C141.288 16.8327 141.217 16.574 141.26 16.4159C141.317 16.1716 141.375 16.1572 141.648 16.301C141.906 16.459 141.921 16.4878 141.705 16.5309ZM143.746 16.2147C143.746 16.5165 143.401 16.8471 143.071 16.8471H142.697L143.027 16.4878C143.329 16.1572 143.746 15.9991 143.746 16.2147ZM144.249 16.5309C144.22 17.0627 144.105 17.2351 143.617 17.4938C143.229 17.695 143.214 17.6807 143.286 17.3357C143.315 17.1489 143.43 16.9908 143.516 16.9908C143.617 16.9908 143.818 16.8902 143.976 16.7752C144.177 16.6028 144.192 16.574 144.005 16.6459C143.818 16.7034 143.789 16.6603 143.847 16.4303C143.962 15.9848 144.278 16.0566 144.249 16.5309ZM144.896 16.6171C144.896 16.6459 144.795 16.7177 144.666 16.7609C144.551 16.804 144.493 16.7896 144.536 16.7034C144.623 16.5596 144.896 16.5022 144.896 16.6171ZM141.202 17.2351C141.303 17.3645 141.274 17.422 141.102 17.422C140.943 17.422 140.872 17.307 140.886 17.0196C140.886 16.804 140.929 16.7177 140.972 16.8471C141.015 16.9621 141.116 17.1489 141.202 17.2351ZM139.075 17.3788C139.549 17.5801 140.21 17.7813 140.555 17.81C141.202 17.8819 141.288 17.9968 140.943 18.2843C140.699 18.4855 140.369 18.3705 139.707 17.8388C139.334 17.5369 139.319 17.5369 138.874 17.7956C138.371 18.0974 138.026 17.9825 137.782 17.4507C137.624 17.1058 137.422 17.0339 137.422 17.3214C137.422 17.5801 137.825 18.1118 138.155 18.2987C138.371 18.4136 138.529 18.3993 138.773 18.2268C139.075 18.04 139.133 18.04 139.377 18.2555C139.621 18.4855 139.621 18.4855 139.449 18.2412C139.104 17.81 139.348 17.8675 139.923 18.3705C140.297 18.7011 140.412 18.8592 140.254 18.8592C140.11 18.8592 140.009 18.7873 140.009 18.7154C140.009 18.6148 139.923 18.6148 139.736 18.7154C139.377 18.9023 139.075 18.9023 138.385 18.7011C137.724 18.5286 136.847 17.7813 136.847 17.4076C136.847 17.1202 136.632 17.0339 136.503 17.2639C136.388 17.4363 136.977 18.2699 137.422 18.5861C137.624 18.7298 138.127 18.931 138.529 19.046L139.291 19.2328L138.874 19.4772C138.342 19.7933 137.595 19.8221 137.839 19.5203C137.94 19.4053 138.155 19.3478 138.328 19.3766C138.515 19.4053 138.558 19.3909 138.428 19.3478C138.313 19.2903 138.17 19.1753 138.098 19.0891C138.026 18.9885 137.868 19.0747 137.624 19.3478C137.279 19.7359 137.235 19.7502 136.704 19.5921C136.071 19.4053 135.41 18.7011 135.41 18.2268C135.41 17.9106 135.999 17.2495 136.416 17.0914C136.991 16.8758 138.242 17.0052 139.075 17.3788ZM143.171 17.192C143.171 17.4938 142.769 17.8531 142.524 17.7669C142.266 17.6663 142.266 17.6375 142.481 17.2782C142.697 16.9477 143.171 16.8902 143.171 17.192ZM142.381 17.2782C142.338 17.3501 142.223 17.422 142.151 17.422C142.064 17.422 142.05 17.3501 142.093 17.2782C142.136 17.192 142.251 17.1345 142.323 17.1345C142.409 17.1345 142.424 17.192 142.381 17.2782ZM142.251 17.81C142.51 17.9681 142.567 18.0687 142.438 18.1549C142.194 18.2987 141.849 18.1406 141.935 17.925C141.978 17.81 141.878 17.7813 141.633 17.8244C141.375 17.8675 141.288 17.8388 141.36 17.7238C141.504 17.4938 141.82 17.5226 142.251 17.81ZM141.72 18.1981C141.849 18.3561 141.835 18.4136 141.648 18.4855C141.173 18.6723 141.001 18.5861 141.159 18.2843C141.346 17.9394 141.49 17.925 141.72 18.1981ZM139.866 19.2041C139.866 19.2328 139.765 19.3047 139.636 19.3478C139.521 19.3909 139.463 19.3766 139.506 19.2903C139.592 19.1466 139.866 19.0891 139.866 19.2041ZM143.171 21.288C143.171 21.518 142.769 21.5755 142.496 21.3743C142.251 21.1874 142.266 21.1731 142.711 21.1587C142.956 21.1587 143.171 21.2162 143.171 21.288ZM143.703 21.2449C143.66 21.288 143.53 21.3024 143.43 21.2593C143.315 21.2162 143.358 21.1731 143.516 21.1731C143.674 21.1587 143.76 21.2018 143.703 21.2449ZM141.949 21.4461C141.906 21.518 141.791 21.5898 141.72 21.5898C141.633 21.5898 141.619 21.518 141.662 21.4461C141.705 21.3599 141.82 21.3024 141.892 21.3024C141.978 21.3024 141.993 21.3599 141.949 21.4461ZM142.453 21.5898C142.453 21.6617 142.323 21.791 142.165 21.8773C141.849 22.0497 141.777 21.8916 142.05 21.6186C142.251 21.4174 142.453 21.3886 142.453 21.5898ZM145.198 21.7336C145.341 21.8198 145.471 21.906 145.471 21.9348C145.471 22.0497 144.666 21.8198 144.58 21.6761C144.508 21.5898 144.465 21.6617 144.465 21.8485C144.465 22.136 144.421 22.1503 144.177 22.021C144.019 21.9348 143.89 21.7767 143.89 21.6617C143.89 21.4317 144.709 21.4749 145.198 21.7336ZM141.59 21.7336C141.777 21.8629 141.763 21.9204 141.461 22.1647C141.044 22.524 140.987 22.524 140.57 22.1647L140.225 21.8629L140.584 21.906C140.8 21.9348 140.929 22.0354 140.9 22.1503C140.857 22.3228 140.886 22.3228 141.102 22.1647C141.245 22.0354 141.274 21.9348 141.173 21.906C140.958 21.8342 140.972 21.5898 141.202 21.5898C141.288 21.5898 141.475 21.6617 141.59 21.7336ZM143.746 21.7336C143.746 21.8054 143.645 21.8342 143.53 21.791C143.415 21.7336 143.315 21.6761 143.315 21.6473C143.315 21.6186 143.415 21.5898 143.53 21.5898C143.645 21.5898 143.746 21.6473 143.746 21.7336ZM139.693 22.2509C139.549 22.3947 139.291 22.1647 139.291 21.906C139.291 21.6904 139.305 21.6904 139.535 21.9204C139.664 22.0497 139.736 22.1935 139.693 22.2509ZM140.268 22.1935C140.527 22.4522 140.469 22.5959 140.096 22.5959C139.822 22.5959 139.765 22.5384 139.822 22.3084C139.909 21.9779 140.024 21.9491 140.268 22.1935ZM145.083 22.3659C145.126 22.4809 145.126 22.6102 145.083 22.6534C144.982 22.754 144.608 22.4665 144.608 22.2941C144.608 22.0785 144.996 22.1503 145.083 22.3659ZM145.844 22.524C145.959 22.7109 146.031 22.9408 145.988 23.0127C145.931 23.0845 145.959 23.1851 146.046 23.2426C146.117 23.2857 146.189 23.5013 146.189 23.7025C146.189 24.0187 146.16 24.0474 145.959 23.875C145.816 23.76 145.758 23.5444 145.787 23.2857C145.83 22.9983 145.772 22.8258 145.614 22.7396C145.269 22.5528 145.126 22.1647 145.399 22.1647C145.514 22.1647 145.715 22.3228 145.844 22.524ZM145.571 23.5157C145.586 23.9181 145.514 24.2343 145.384 24.3349C145.083 24.5792 145.025 24.4355 145.255 23.99C145.37 23.7744 145.399 23.6019 145.313 23.6019C145.169 23.6019 145.126 22.9839 145.269 22.8402C145.456 22.6534 145.571 22.8833 145.571 23.5157ZM145.974 24.7086C145.873 25.0966 145.873 25.111 145.729 24.7948C145.542 24.4067 145.701 23.9181 145.931 24.148C146.017 24.2343 146.046 24.4642 145.974 24.7086ZM145.442 24.7804C145.399 24.881 145.284 24.9673 145.183 24.9673C145.083 24.9673 144.968 24.881 144.939 24.7804C144.896 24.6798 144.996 24.608 145.183 24.608C145.37 24.608 145.471 24.6798 145.442 24.7804ZM144.896 25.1972C144.896 25.2691 144.752 25.3265 144.594 25.3265C144.335 25.3265 144.321 25.2978 144.465 25.111C144.637 24.8954 144.896 24.9385 144.896 25.1972ZM142.884 25.4846C143.286 25.7146 142.682 25.6427 142.151 25.3984L141.662 25.1685L142.165 25.2691C142.438 25.3122 142.769 25.4128 142.884 25.4846ZM145.471 25.3265C145.471 25.4559 145.011 25.7577 144.81 25.7577C144.752 25.7577 144.824 25.6284 144.968 25.4703C145.241 25.1685 145.471 25.0966 145.471 25.3265ZM144.407 25.5278C144.666 25.729 144.666 25.7433 144.278 25.8871C143.703 26.1026 143.66 26.0883 143.962 25.7577C144.177 25.5134 144.192 25.4703 144.005 25.5421C143.875 25.5996 143.732 25.5709 143.674 25.4846C143.545 25.2547 144.077 25.2978 144.407 25.5278ZM143.516 25.5565C143.775 25.6571 143.689 25.9014 143.372 25.9014C143.257 25.9014 143.171 25.8008 143.171 25.6858C143.171 25.4415 143.2 25.4272 143.516 25.5565Z" fill="black"/>
<path d="M138.716 18.4854C138.716 18.5142 138.816 18.5861 138.946 18.6292C139.061 18.6723 139.118 18.6579 139.075 18.5717C138.989 18.428 138.716 18.3705 138.716 18.4854Z" fill="black"/>
<path d="M144.536 10.006C144.263 10.121 144.177 10.2216 144.292 10.2791C144.378 10.3509 144.694 10.2647 144.996 10.1066C145.614 9.77605 145.255 9.68982 144.536 10.006Z" fill="black"/>
<path d="M145.054 10.2503L144.694 10.394L145.111 10.6096C146.534 11.3426 147.123 12.3486 147.008 13.8002C146.951 14.5475 146.85 14.8349 146.39 15.5104C145.427 16.8901 145.298 17.1201 145.355 17.3788C145.399 17.5513 145.514 17.4219 145.715 16.9476C146.074 16.1572 146.203 16.0853 146.117 16.732C146.045 17.1632 146.045 17.1776 146.203 16.8758C146.405 16.5021 146.591 16.4734 147.023 16.7895C147.425 17.0626 147.425 17.3788 147.023 17.8099C146.793 18.0686 146.764 18.1405 146.936 18.1405C147.224 18.1405 147.626 17.6806 147.626 17.3644C147.626 16.9476 147.339 16.5452 146.908 16.3728C146.52 16.2003 146.52 16.1715 146.692 15.7691C146.879 15.338 146.879 15.338 146.908 15.6973L146.936 16.0566L147.051 15.6973C147.109 15.4961 147.181 15.0793 147.195 14.7631L147.238 14.1882L147.353 14.7631C147.439 15.1942 147.454 15.0505 147.425 14.1882L147.382 13.0385L147.641 13.6133L147.914 14.1882L147.827 13.6852C147.784 13.4121 147.597 12.9522 147.439 12.6792L147.138 12.1761L147.454 12.4492C147.626 12.6073 147.77 12.6504 147.77 12.5786C147.77 12.4923 147.526 12.2049 147.238 11.9462C146.936 11.6875 146.821 11.5294 146.979 11.5869C147.138 11.6444 147.353 11.745 147.468 11.7881C147.942 11.9749 147.411 11.4863 146.85 11.2132L146.261 10.9401L146.764 11.012C147.497 11.1414 147.094 10.8252 146.232 10.5808C145.557 10.4084 145.542 10.394 146.045 10.3796C146.505 10.3509 146.52 10.3365 146.189 10.2359C145.7 10.0778 145.47 10.0778 145.054 10.2503Z" fill="black"/>
<path d="M142.884 12.823C142.697 12.9379 142.712 12.9667 142.927 12.9667C143.056 12.9667 143.171 12.8948 143.171 12.823C143.171 12.6505 143.157 12.6505 142.884 12.823Z" fill="black"/>
<path d="M145.758 19.4484C145.758 19.5203 145.657 19.5778 145.528 19.5778C145.37 19.5778 145.327 19.6496 145.384 19.8077C145.427 19.9371 145.471 20.1383 145.471 20.2676C145.471 20.4688 145.499 20.4832 145.614 20.2964C145.686 20.1814 145.787 20.1239 145.83 20.167C145.974 20.3107 145.758 20.6844 145.427 20.8425C145.241 20.9287 145.197 21.0006 145.312 21.0006C145.427 21.015 145.643 20.9144 145.787 20.7706C146.031 20.5551 146.06 20.5551 146.318 20.785C146.477 20.9287 146.678 21.0006 146.764 20.9431C146.879 20.8712 146.822 20.785 146.606 20.67C146.16 20.4545 146.103 20.1814 146.505 20.1095C146.707 20.0808 146.577 20.0377 146.189 20.0089L145.542 19.9658L146.117 19.8796L146.692 19.7933L146.232 19.549C145.974 19.4197 145.758 19.3766 145.758 19.4484Z" fill="black"/>
<path d="M144.263 19.8509C144.206 19.9227 144.234 20.0233 144.306 20.0665C144.378 20.124 144.479 20.0952 144.522 20.0233C144.579 19.9515 144.55 19.8509 144.479 19.8078C144.407 19.7503 144.306 19.779 144.263 19.8509Z" fill="black"/>
<path d="M146.362 22.3372C146.836 23.2713 146.822 24.5217 146.29 25.2978C145.859 25.9445 145.988 26.1314 146.462 25.5421C146.865 25.0103 147.066 23.9468 146.894 23.1851C146.735 22.4378 146.376 21.7335 146.189 21.7335C146.103 21.7335 146.189 22.0066 146.362 22.3372Z" fill="black"/>
</svg>
