<svg width="506" height="60" viewBox="0 0 506 60" fill="none" xmlns="http://www.w3.org/2000/svg">
<g clip-path="url(#clip0_2897_10398)">
<path d="M33.5156 14.0625L29.5781 25.3359C27 21.8516 24.0391 20.1094 20.6953 20.1094C18.8359 20.1094 17.9062 20.8125 17.9062 22.2188C17.9062 22.6562 18.1953 23.1016 18.7734 23.5547C19.3672 24.0078 20.9062 24.7188 23.3906 25.6875C26.125 26.7656 28.2266 27.75 29.6953 28.6406C31.1797 29.5156 32.2891 30.6406 33.0234 32.0156C33.7578 33.3906 34.125 34.9922 34.125 36.8203C34.125 40.6484 32.6719 43.5703 29.7656 45.5859C26.8594 47.5859 22.5859 48.5859 16.9453 48.5859C10.6172 48.5859 5.16406 47.6875 0.585938 45.8906L4.45312 33.9375C5.57812 35.6875 6.96875 37.0781 8.625 38.1094C10.2969 39.1406 11.8984 39.6562 13.4297 39.6562C14.1797 39.6562 14.8047 39.4609 15.3047 39.0703C15.8203 38.6797 16.0781 38.2031 16.0781 37.6406C16.0781 37.1094 15.8281 36.6016 15.3281 36.1172C14.8438 35.6328 13.5469 34.9609 11.4375 34.1016C9.53125 33.3359 7.95312 32.5938 6.70312 31.875C5.45312 31.1406 4.36719 30.1016 3.44531 28.7578C2.52344 27.4141 2.0625 25.7188 2.0625 23.6719C2.0625 19.7031 3.50781 16.7109 6.39844 14.6953C9.28906 12.6797 13.5547 11.6719 19.1953 11.6719C24.3516 11.6719 29.125 12.4688 33.5156 14.0625ZM38.625 48V12.2344H54.4453V48H38.625ZM78.5156 48.5859C73.4062 48.5859 69.0703 46.7969 65.5078 43.2188C61.9609 39.625 60.1875 35.25 60.1875 30.0938C60.1875 24.9531 61.9609 20.6016 65.5078 17.0391C69.0703 13.4609 73.4062 11.6719 78.5156 11.6719C83.6406 11.6719 87.9766 13.4609 91.5234 17.0391C95.0859 20.6016 96.8672 24.9531 96.8672 30.0938C96.8672 35.25 95.0859 39.625 91.5234 43.2188C87.9766 46.7969 83.6406 48.5859 78.5156 48.5859ZM78.5156 25.3828C77.5 25.3828 76.6562 25.7422 75.9844 26.4609C75.3125 27.1641 74.9766 28.0547 74.9766 29.1328C74.9766 30.2109 75.3125 31.1094 75.9844 31.8281C76.6562 32.5312 77.5 32.8828 78.5156 32.8828C79.5469 32.8828 80.3984 32.5312 81.0703 31.8281C81.7422 31.1094 82.0781 30.2109 82.0781 29.1328C82.0781 28.0547 81.7422 27.1641 81.0703 26.4609C80.3984 25.7422 79.5469 25.3828 78.5156 25.3828ZM132.562 14.0625L128.625 25.3359C126.047 21.8516 123.086 20.1094 119.742 20.1094C117.883 20.1094 116.953 20.8125 116.953 22.2188C116.953 22.6562 117.242 23.1016 117.82 23.5547C118.414 24.0078 119.953 24.7188 122.438 25.6875C125.172 26.7656 127.273 27.75 128.742 28.6406C130.227 29.5156 131.336 30.6406 132.07 32.0156C132.805 33.3906 133.172 34.9922 133.172 36.8203C133.172 40.6484 131.719 43.5703 128.812 45.5859C125.906 47.5859 121.633 48.5859 115.992 48.5859C109.664 48.5859 104.211 47.6875 99.6328 45.8906L103.5 33.9375C104.625 35.6875 106.016 37.0781 107.672 38.1094C109.344 39.1406 110.945 39.6562 112.477 39.6562C113.227 39.6562 113.852 39.4609 114.352 39.0703C114.867 38.6797 115.125 38.2031 115.125 37.6406C115.125 37.1094 114.875 36.6016 114.375 36.1172C113.891 35.6328 112.594 34.9609 110.484 34.1016C108.578 33.3359 107 32.5938 105.75 31.875C104.5 31.1406 103.414 30.1016 102.492 28.7578C101.57 27.4141 101.109 25.7188 101.109 23.6719C101.109 19.7031 102.555 16.7109 105.445 14.6953C108.336 12.6797 112.602 11.6719 118.242 11.6719C123.398 11.6719 128.172 12.4688 132.562 14.0625Z" fill="white"/>
<path d="M147.07 28.0781V12.2344H178.852V28.0781H170.883V48H155.039V28.0781H147.07ZM209.531 37.2422V42.1875C206.359 46.3438 201.797 48.4219 195.844 48.4219C190.938 48.4219 186.992 47.0625 184.008 44.3438C181.023 41.6094 179.531 38.0156 179.531 33.5625C179.531 29.3281 180.898 25.875 183.633 23.2031C186.383 20.5312 189.945 19.1953 194.32 19.1953C196.555 19.1953 198.625 19.5703 200.531 20.3203C202.438 21.0703 204.086 22.1719 205.477 23.625C206.867 25.0781 207.891 26.7656 208.547 28.6875C209.203 30.6094 209.531 32.9531 209.531 35.7188H194.742C195.273 37.1562 196.164 38.2812 197.414 39.0938C198.664 39.9062 200.094 40.3125 201.703 40.3125C204.953 40.3125 207.562 39.2891 209.531 37.2422ZM193.875 30.7734H200.695C200.633 29.3672 200.281 28.2734 199.641 27.4922C199.016 26.6953 198.195 26.2969 197.18 26.2969C196.289 26.2969 195.516 26.6797 194.859 27.4453C194.203 28.1953 193.875 29.3047 193.875 30.7734ZM240.211 20.8828V33.2578C237.336 31.8828 234.695 31.1953 232.289 31.1953C230.898 31.1953 229.812 31.4219 229.031 31.875C228.266 32.3125 227.883 32.9219 227.883 33.7031C227.883 35.5156 229.562 36.4219 232.922 36.4219C235.797 36.4219 238.227 35.9297 240.211 34.9453V47.1797C237.383 48.0078 234.359 48.4219 231.141 48.4219C225.484 48.4219 221.109 47.0625 218.016 44.3438C214.922 41.625 213.375 38.1719 213.375 33.9844C213.375 29.7969 214.852 26.2891 217.805 23.4609C220.758 20.6172 224.719 19.1953 229.688 19.1953C233.141 19.1953 236.648 19.7578 240.211 20.8828ZM259.805 12.2344V23.4609C262.039 20.8516 264.891 19.5469 268.359 19.5469C271.562 19.5469 274.086 20.4844 275.93 22.3594C277.789 24.2344 278.719 26.8438 278.719 30.1875V48H265.031V31.6875C265.031 29.3125 264.117 28.125 262.289 28.125C261.461 28.125 260.633 28.4922 259.805 29.2266V48H245.297V12.2344H259.805ZM283.406 40.9453C283.406 38.8359 284.148 37.0391 285.633 35.5547C287.133 34.0547 288.938 33.3047 291.047 33.3047C293.141 33.3047 294.93 34.0547 296.414 35.5547C297.914 37.0391 298.664 38.8359 298.664 40.9453C298.664 43.0391 297.914 44.8359 296.414 46.3359C294.93 47.8359 293.141 48.5859 291.047 48.5859C288.938 48.5859 287.133 47.8359 285.633 46.3359C284.148 44.8359 283.406 43.0391 283.406 40.9453ZM304.242 48V12.2344H320.086V39.0234H333.961V48H304.242ZM337.289 31.3828V22.8984C341.383 20.6641 346.023 19.5469 351.211 19.5469C356.148 19.5469 359.789 20.6016 362.133 22.7109C364.477 24.8203 365.648 28.0469 365.648 32.3906V48H351.164V45.8906C349.023 47.4531 346.672 48.2344 344.109 48.2344C341.953 48.2344 340.156 47.5391 338.719 46.1484C337.281 44.7422 336.562 42.9766 336.562 40.8516C336.562 38.4297 337.453 36.4609 339.234 34.9453C341.016 33.4141 343.344 32.6484 346.219 32.6484C347.906 32.6484 349.555 32.8672 351.164 33.3047C351.164 31.9922 350.656 30.9688 349.641 30.2344C348.641 29.5 347.242 29.1328 345.445 29.1328C342.789 29.1328 340.07 29.8828 337.289 31.3828ZM351.164 41.7656V37.8281C350.289 37.5312 349.5 37.3828 348.797 37.3828C347.922 37.3828 347.219 37.6094 346.688 38.0625C346.156 38.5156 345.891 39.1094 345.891 39.8438C345.891 40.6094 346.172 41.25 346.734 41.7656C347.312 42.2812 348.039 42.5391 348.914 42.5391C349.805 42.5391 350.555 42.2812 351.164 41.7656ZM385.383 12.2344V20.6484C387.211 19.9141 389.039 19.5469 390.867 19.5469C394.852 19.5469 398.164 20.875 400.805 23.5312C403.445 26.1875 404.766 29.5312 404.766 33.5625C404.766 37.625 403.383 41.0469 400.617 43.8281C397.852 46.6094 393.961 48 388.945 48H370.898V12.2344H385.383ZM385.383 37.7344H385.711C386.93 37.7344 387.875 37.6719 388.547 37.5469C389.234 37.4062 389.789 37.0781 390.211 36.5625C390.648 36.0312 390.867 35.2031 390.867 34.0781C390.867 33.0312 390.586 32.2031 390.023 31.5938C389.461 30.9844 388.695 30.6797 387.727 30.6797C386.961 30.6797 386.18 30.8984 385.383 31.3359V37.7344Z" fill="white"/>
<path d="M504.651 27.44C504.401 27.3776 504.303 27.2527 504.213 27.0297C503.999 26.4766 503.785 25.9325 503.508 25.4062C502.382 23.2653 500.757 21.5794 498.676 20.3574C498.363 20.17 498.149 19.9559 497.961 19.6705C496.702 17.7794 494.969 16.6465 492.71 16.2719C490.245 15.8616 487.788 16.0043 485.314 16.2451C483.653 16.4057 481.983 16.5038 480.313 16.4949C479.018 16.4949 477.759 16.1559 476.58 15.5672C475.302 14.9249 474.436 13.8545 473.65 12.7127C472.426 10.9376 471.122 9.23383 469.622 7.67279C468.506 6.50424 467.327 5.40705 465.862 4.67559C464.728 4.1047 463.602 4.04226 462.477 4.67559C461.709 5.11268 460.95 5.56762 460.19 6.03147C459.047 6.73617 457.922 7.4587 456.645 7.90472C454.483 8.64509 452 8.22584 450.482 6.04931C450.232 5.68358 449.982 5.31785 449.696 4.97888C449.357 4.58639 449.008 4.20282 448.615 3.87277C448.214 3.5338 447.731 3.36432 447.169 3.50704C446.713 3.62301 446.24 3.64085 445.793 3.76573C445.436 3.86385 445.284 3.77465 445.195 3.42676C445.141 3.2216 445.007 3.03427 444.891 2.83803C444.355 1.97276 443.819 1.1075 443.283 0.233318C443.105 -0.0521289 442.926 -0.0788896 442.712 0.170877C442.605 0.30468 442.497 0.447404 442.435 0.607968C442.122 1.44647 441.783 2.27605 441.533 3.13239C441.22 4.17606 440.952 5.23757 441.658 6.22771C441.604 6.29015 441.586 6.31692 441.56 6.34368C439.398 8.32397 437.237 10.2953 435.084 12.2756C434.924 12.4184 434.808 12.4184 434.638 12.3291C433.754 11.8296 432.86 11.339 431.967 10.8484C431.646 11.678 431.494 13.7385 431.682 14.916C431.771 15.478 431.512 15.7634 430.958 15.6921C430.485 15.6296 430.011 15.5494 429.547 15.4334C425.313 14.3719 422.027 11.9099 419.383 8.51129C419.329 8.43993 419.276 8.37749 419.187 8.27936C418.883 9.82256 418.981 11.2944 419.258 12.7662C419.794 15.5583 420.884 18.1362 422.205 20.6339C422.607 21.3921 423.036 22.1325 423.429 22.8283C423.081 23.194 422.75 23.524 422.446 23.8719C421.16 25.3973 421.294 27.7255 422.768 29.0724C424.51 30.6691 426.278 32.2302 428.029 33.8091C429.386 35.0311 430.958 35.2631 432.593 34.4335C435.879 32.7743 439.166 31.1062 442.462 29.4381C442.605 29.3668 442.756 29.2954 442.953 29.2062C442.748 30.0982 442.56 30.91 442.372 31.7128C441.819 34.1926 442.122 36.5743 443.203 38.8579C443.399 39.2682 443.694 39.6518 443.998 39.9997C444.177 40.2138 444.266 40.4011 444.266 40.6776C444.266 44.1922 444.266 47.7068 444.266 51.2303C444.266 52.7199 445.364 53.9153 446.847 53.9599C448.285 54.0045 449.723 53.9866 451.17 53.9866C451.393 53.9866 451.616 53.9688 451.831 53.9242C453.144 53.6387 454.001 52.5415 454.001 51.1411C454.001 48.1528 454.001 45.1645 454.001 42.1762V41.7035C454.144 41.7213 454.251 41.7302 454.358 41.7481C455.144 41.8819 455.93 42.0246 456.725 42.1495C459.753 42.6222 462.798 42.9345 465.862 43.0593C467.729 43.1396 469.604 43.2199 471.471 43.1485C474.016 43.0415 476.553 42.8453 479.089 42.5955C481.679 42.3368 484.27 41.98 486.851 41.6589C487.815 41.5429 488.771 41.3913 489.798 41.2485V41.7391C489.798 44.8701 489.798 48.0101 489.798 51.1411C489.798 52.7378 490.861 53.9063 492.451 53.9599C493.924 54.0134 495.407 54.0134 496.881 53.9599C498.461 53.9063 499.524 52.7467 499.524 51.1857C499.524 44.8701 499.524 38.5457 499.524 32.2302C499.524 31.3828 499.48 30.5353 499.48 29.6968C499.48 27.9306 499.515 26.1555 499.506 24.3893C499.506 23.9344 499.426 23.4705 499.372 22.9442C499.489 23.0334 499.56 23.078 499.614 23.1315C500.989 24.3893 502.025 25.879 502.632 27.6452C502.713 27.8771 502.713 28.0644 502.579 28.2964C502.213 28.9297 502.32 29.7593 502.793 30.3302C503.24 30.8654 504.026 31.0973 504.704 30.8832C505.49 30.6424 506.017 29.9198 506 29.1081C505.982 28.2964 505.437 27.5917 504.633 27.3954L504.651 27.44ZM437.424 21.2583C435.942 21.2583 434.745 20.063 434.745 18.5822C434.745 17.1015 435.942 15.9062 437.424 15.9062C438.907 15.9062 440.104 17.1015 440.104 18.5822C440.104 20.063 438.907 21.2583 437.424 21.2583Z" fill="white"/>
</g>
<defs>
<clipPath id="clip0_2897_10398">
<rect width="506" height="60" fill="white"/>
</clipPath>
</defs>
</svg>
